<svg width="143" height="15" viewBox="0 0 143 15" fill="none" xmlns="http://www.w3.org/2000/svg">
<path d="M9.633 14C9.50633 14 9.424 13.9367 9.386 13.81L8.759 11.777C8.73367 11.7263 8.702 11.701 8.664 11.701H3.648C3.61 11.701 3.57833 11.7263 3.553 11.777L2.926 13.81C2.888 13.9367 2.80567 14 2.679 14H0.779C0.703 14 0.646 13.981 0.608 13.943C0.57 13.8923 0.563667 13.8227 0.589 13.734L4.712 0.889999C4.75 0.763332 4.83233 0.699999 4.959 0.699999H7.334C7.46067 0.699999 7.543 0.763332 7.581 0.889999L11.723 13.734C11.7357 13.7593 11.742 13.791 11.742 13.829C11.742 13.943 11.6723 14 11.533 14H9.633ZM4.142 9.858C4.12933 9.934 4.15467 9.972 4.218 9.972H8.075C8.151 9.972 8.17633 9.934 8.151 9.858L6.194 3.493C6.18133 3.44233 6.16233 3.417 6.137 3.417C6.11167 3.417 6.09267 3.44233 6.08 3.493L4.142 9.858ZM22.2763 0.851999C22.3396 0.750666 22.4283 0.699999 22.5423 0.699999H24.2903C24.3536 0.699999 24.4043 0.725332 24.4423 0.775999C24.493 0.814 24.5183 0.864666 24.5183 0.928V13.772C24.5183 13.8353 24.493 13.8923 24.4423 13.943C24.4043 13.981 24.3536 14 24.2903 14H22.5423C22.479 14 22.422 13.981 22.3713 13.943C22.3333 13.8923 22.3143 13.8353 22.3143 13.772V4.709C22.3143 4.671 22.2953 4.64567 22.2573 4.633C22.232 4.62033 22.213 4.633 22.2003 4.671L19.8253 8.319C19.762 8.42033 19.6733 8.471 19.5593 8.471H18.6853C18.5713 8.471 18.4826 8.42033 18.4193 8.319L16.0253 4.69C16.0126 4.652 15.9873 4.63933 15.9493 4.652C15.924 4.66467 15.9113 4.69 15.9113 4.728V13.772C15.9113 13.8353 15.886 13.8923 15.8353 13.943C15.7973 13.981 15.7466 14 15.6833 14H13.9353C13.872 14 13.815 13.981 13.7643 13.943C13.7263 13.8923 13.7073 13.8353 13.7073 13.772V0.928C13.7073 0.864666 13.7263 0.814 13.7643 0.775999C13.815 0.725332 13.872 0.699999 13.9353 0.699999H15.6833C15.7973 0.699999 15.886 0.750666 15.9493 0.851999L19.0463 5.545C19.0716 5.57033 19.097 5.583 19.1223 5.583C19.1476 5.583 19.1666 5.57033 19.1793 5.545L22.2763 0.851999ZM35.5353 14C35.4087 14 35.3263 13.9367 35.2883 13.81L34.6613 11.777C34.636 11.7263 34.6043 11.701 34.5663 11.701H29.5503C29.5123 11.701 29.4807 11.7263 29.4553 11.777L28.8283 13.81C28.7903 13.9367 28.708 14 28.5813 14H26.6813C26.6053 14 26.5483 13.981 26.5103 13.943C26.4723 13.8923 26.466 13.8227 26.4913 13.734L30.6143 0.889999C30.6523 0.763332 30.7347 0.699999 30.8613 0.699999H33.2363C33.363 0.699999 33.4453 0.763332 33.4833 0.889999L37.6253 13.734C37.638 13.7593 37.6443 13.791 37.6443 13.829C37.6443 13.943 37.5747 14 37.4353 14H35.5353ZM30.0443 9.858C30.0317 9.934 30.057 9.972 30.1203 9.972H33.9773C34.0533 9.972 34.0787 9.934 34.0533 9.858L32.0963 3.493C32.0837 3.44233 32.0647 3.417 32.0393 3.417C32.014 3.417 31.995 3.44233 31.9823 3.493L30.0443 9.858ZM47.0767 14C46.95 14 46.8613 13.943 46.8107 13.829L44.3027 8.357C44.2773 8.30633 44.2393 8.281 44.1887 8.281H41.9087C41.8453 8.281 41.8137 8.31267 41.8137 8.376V13.772C41.8137 13.8353 41.7883 13.8923 41.7377 13.943C41.6997 13.981 41.649 14 41.5857 14H39.8377C39.7743 14 39.7173 13.981 39.6667 13.943C39.6287 13.8923 39.6097 13.8353 39.6097 13.772V0.928C39.6097 0.864666 39.6287 0.814 39.6667 0.775999C39.7173 0.725332 39.7743 0.699999 39.8377 0.699999H45.0627C45.8353 0.699999 46.5193 0.864666 47.1147 1.194C47.71 1.51067 48.1723 1.96667 48.5017 2.562C48.831 3.14467 48.9957 3.816 48.9957 4.576C48.9957 5.45 48.7677 6.19733 48.3117 6.818C47.8683 7.426 47.2477 7.85033 46.4497 8.091C46.4243 8.091 46.4053 8.10367 46.3927 8.129C46.38 8.15433 46.38 8.17967 46.3927 8.205L49.0717 13.734C49.097 13.7847 49.1097 13.8227 49.1097 13.848C49.1097 13.9493 49.04 14 48.9007 14H47.0767ZM41.9087 2.6C41.8453 2.6 41.8137 2.63167 41.8137 2.695V6.476C41.8137 6.53933 41.8453 6.571 41.9087 6.571H44.7587C45.3667 6.571 45.8543 6.39367 46.2217 6.039C46.6017 5.67167 46.7917 5.19033 46.7917 4.595C46.7917 3.99967 46.6017 3.51833 46.2217 3.151C45.8543 2.78367 45.3667 2.6 44.7587 2.6H41.9087ZM54.2367 13.981C54.1734 13.981 54.1164 13.962 54.0657 13.924C54.0277 13.8733 54.0087 13.8163 54.0087 13.753V8.661C54.0087 8.61033 54.0024 8.57233 53.9897 8.547L50.0757 0.965999C50.0504 0.915332 50.0377 0.877332 50.0377 0.851999C50.0377 0.750666 50.1074 0.699999 50.2467 0.699999H52.1277C52.2544 0.699999 52.343 0.756999 52.3937 0.870999L55.0537 6.172C55.0917 6.22267 55.1297 6.22267 55.1677 6.172L57.8467 0.870999C57.91 0.756999 57.9987 0.699999 58.1127 0.699999H60.0127C60.1014 0.699999 60.1584 0.725332 60.1837 0.775999C60.2217 0.826666 60.2217 0.889999 60.1837 0.965999L56.2507 8.547C56.2254 8.59767 56.2127 8.63567 56.2127 8.661V13.753C56.2127 13.8163 56.1874 13.8733 56.1367 13.924C56.0987 13.962 56.048 13.981 55.9847 13.981H54.2367ZM62.4187 14C62.3554 14 62.2984 13.981 62.2477 13.943C62.2097 13.8923 62.1907 13.8353 62.1907 13.772V0.928C62.1907 0.864666 62.2097 0.814 62.2477 0.775999C62.2984 0.725332 62.3554 0.699999 62.4187 0.699999H64.1667C64.23 0.699999 64.2807 0.725332 64.3187 0.775999C64.3694 0.814 64.3947 0.864666 64.3947 0.928V12.005C64.3947 12.0683 64.4264 12.1 64.4897 12.1H70.8547C70.918 12.1 70.9687 12.1253 71.0067 12.176C71.0574 12.214 71.0827 12.2647 71.0827 12.328V13.772C71.0827 13.8353 71.0574 13.8923 71.0067 13.943C70.9687 13.981 70.918 14 70.8547 14H62.4187ZM73.2732 14C73.2099 14 73.1529 13.981 73.1022 13.943C73.0642 13.8923 73.0452 13.8353 73.0452 13.772V0.928C73.0452 0.864666 73.0642 0.814 73.1022 0.775999C73.1529 0.725332 73.2099 0.699999 73.2732 0.699999H75.0212C75.0845 0.699999 75.1352 0.725332 75.1732 0.775999C75.2239 0.814 75.2492 0.864666 75.2492 0.928V13.772C75.2492 13.8353 75.2239 13.8923 75.1732 13.943C75.1352 13.981 75.0845 14 75.0212 14H73.2732ZM82.3119 14.152C81.3239 14.152 80.4625 13.9937 79.7279 13.677C78.9932 13.3603 78.4232 12.917 78.0179 12.347C77.6252 11.777 77.4289 11.1057 77.4289 10.333V9.858C77.4289 9.79467 77.4479 9.744 77.4859 9.706C77.5365 9.65533 77.5935 9.63 77.6569 9.63H79.3479C79.4112 9.63 79.4619 9.65533 79.4999 9.706C79.5505 9.744 79.5759 9.79467 79.5759 9.858V10.219C79.5759 10.8017 79.8355 11.2893 80.3549 11.682C80.8742 12.062 81.5835 12.252 82.4829 12.252C83.2555 12.252 83.8382 12.0873 84.2309 11.758C84.6235 11.4287 84.8199 11.0043 84.8199 10.485C84.8199 10.1303 84.7122 9.83267 84.4969 9.592C84.2815 9.33867 83.9712 9.11067 83.5659 8.908C83.1732 8.70533 82.5779 8.452 81.7799 8.148C80.8805 7.81867 80.1522 7.50833 79.5949 7.217C79.0375 6.92567 78.5689 6.533 78.1889 6.039C77.8215 5.53233 77.6379 4.90533 77.6379 4.158C77.6379 3.04333 78.0432 2.163 78.8539 1.517C79.6645 0.871 80.7475 0.548 82.1029 0.548C83.0529 0.548 83.8889 0.712666 84.6109 1.042C85.3455 1.37133 85.9155 1.83367 86.3209 2.429C86.7262 3.01167 86.9289 3.68933 86.9289 4.462V4.785C86.9289 4.84833 86.9035 4.90533 86.8529 4.956C86.8149 4.994 86.7642 5.013 86.7009 5.013H84.9909C84.9275 5.013 84.8705 4.994 84.8199 4.956C84.7819 4.90533 84.7629 4.84833 84.7629 4.785V4.576C84.7629 3.98067 84.5159 3.48033 84.0219 3.075C83.5405 2.657 82.8692 2.448 82.0079 2.448C81.3112 2.448 80.7665 2.59367 80.3739 2.885C79.9939 3.17633 79.8039 3.588 79.8039 4.12C79.8039 4.5 79.9052 4.81033 80.1079 5.051C80.3105 5.29167 80.6145 5.51333 81.0199 5.716C81.4252 5.906 82.0522 6.153 82.9009 6.457C83.8002 6.799 84.5159 7.10933 85.0479 7.388C85.5925 7.66667 86.0549 8.05933 86.4349 8.566C86.8275 9.06 87.0239 9.68067 87.0239 10.428C87.0239 11.568 86.5995 12.4737 85.7509 13.145C84.9149 13.8163 83.7685 14.152 82.3119 14.152ZM100.514 14C100.387 14 100.299 13.943 100.248 13.829L97.7402 8.357C97.7148 8.30633 97.6768 8.281 97.6262 8.281H95.3462C95.2828 8.281 95.2512 8.31267 95.2512 8.376V13.772C95.2512 13.8353 95.2258 13.8923 95.1752 13.943C95.1372 13.981 95.0865 14 95.0232 14H93.2752C93.2118 14 93.1548 13.981 93.1042 13.943C93.0662 13.8923 93.0472 13.8353 93.0472 13.772V0.928C93.0472 0.864666 93.0662 0.814 93.1042 0.775999C93.1548 0.725332 93.2118 0.699999 93.2752 0.699999H98.5002C99.2728 0.699999 99.9568 0.864666 100.552 1.194C101.147 1.51067 101.61 1.96667 101.939 2.562C102.268 3.14467 102.433 3.816 102.433 4.576C102.433 5.45 102.205 6.19733 101.749 6.818C101.306 7.426 100.685 7.85033 99.8872 8.091C99.8618 8.091 99.8428 8.10367 99.8302 8.129C99.8175 8.15433 99.8175 8.17967 99.8302 8.205L102.509 13.734C102.534 13.7847 102.547 13.8227 102.547 13.848C102.547 13.9493 102.477 14 102.338 14H100.514ZM95.3462 2.6C95.2828 2.6 95.2512 2.63167 95.2512 2.695V6.476C95.2512 6.53933 95.2828 6.571 95.3462 6.571H98.1962C98.8042 6.571 99.2918 6.39367 99.6592 6.039C100.039 5.67167 100.229 5.19033 100.229 4.595C100.229 3.99967 100.039 3.51833 99.6592 3.151C99.2918 2.78367 98.8042 2.6 98.1962 2.6H95.3462ZM104.928 14C104.864 14 104.807 13.981 104.757 13.943C104.719 13.8923 104.7 13.8353 104.7 13.772V0.928C104.7 0.864666 104.719 0.814 104.757 0.775999C104.807 0.725332 104.864 0.699999 104.928 0.699999H106.676C106.739 0.699999 106.79 0.725332 106.828 0.775999C106.878 0.814 106.904 0.864666 106.904 0.928V13.772C106.904 13.8353 106.878 13.8923 106.828 13.943C106.79 13.981 106.739 14 106.676 14H104.928ZM118.678 2.372C118.678 2.43533 118.653 2.49233 118.602 2.543C118.564 2.581 118.513 2.6 118.45 2.6H111.971C111.908 2.6 111.876 2.63167 111.876 2.695V6.248C111.876 6.31133 111.908 6.343 111.971 6.343H116.322C116.385 6.343 116.436 6.36833 116.474 6.419C116.525 6.457 116.55 6.50767 116.55 6.571V8.015C116.55 8.07833 116.525 8.13533 116.474 8.186C116.436 8.224 116.385 8.243 116.322 8.243H111.971C111.908 8.243 111.876 8.27467 111.876 8.338V12.005C111.876 12.0683 111.908 12.1 111.971 12.1H118.45C118.513 12.1 118.564 12.1253 118.602 12.176C118.653 12.214 118.678 12.2647 118.678 12.328V13.772C118.678 13.8353 118.653 13.8923 118.602 13.943C118.564 13.981 118.513 14 118.45 14H109.9C109.837 14 109.78 13.981 109.729 13.943C109.691 13.8923 109.672 13.8353 109.672 13.772V0.928C109.672 0.864666 109.691 0.814 109.729 0.775999C109.78 0.725332 109.837 0.699999 109.9 0.699999H118.45C118.513 0.699999 118.564 0.725332 118.602 0.775999C118.653 0.814 118.678 0.864666 118.678 0.928V2.372ZM128.155 0.928C128.155 0.864666 128.174 0.814 128.212 0.775999C128.263 0.725332 128.32 0.699999 128.383 0.699999H130.131C130.195 0.699999 130.245 0.725332 130.283 0.775999C130.334 0.814 130.359 0.864666 130.359 0.928V13.772C130.359 13.8353 130.334 13.8923 130.283 13.943C130.245 13.981 130.195 14 130.131 14H128.383C128.32 14 128.263 13.981 128.212 13.943C128.174 13.8923 128.155 13.8353 128.155 13.772V8.338C128.155 8.27467 128.124 8.243 128.06 8.243H123.215C123.152 8.243 123.12 8.27467 123.12 8.338V13.772C123.12 13.8353 123.095 13.8923 123.044 13.943C123.006 13.981 122.956 14 122.892 14H121.144C121.081 14 121.024 13.981 120.973 13.943C120.935 13.8923 120.916 13.8353 120.916 13.772V0.928C120.916 0.864666 120.935 0.814 120.973 0.775999C121.024 0.725332 121.081 0.699999 121.144 0.699999H122.892C122.956 0.699999 123.006 0.725332 123.044 0.775999C123.095 0.814 123.12 0.864666 123.12 0.928V6.248C123.12 6.31133 123.152 6.343 123.215 6.343H128.06C128.124 6.343 128.155 6.31133 128.155 6.248V0.928ZM140.747 0.928C140.747 0.864666 140.766 0.814 140.804 0.775999C140.855 0.725332 140.912 0.699999 140.975 0.699999H142.723C142.786 0.699999 142.837 0.725332 142.875 0.775999C142.926 0.814 142.951 0.864666 142.951 0.928V13.772C142.951 13.8353 142.926 13.8923 142.875 13.943C142.837 13.981 142.786 14 142.723 14H141.032C140.905 14 140.817 13.9493 140.766 13.848L135.294 4.88C135.269 4.842 135.243 4.82933 135.218 4.842C135.193 4.842 135.18 4.86733 135.18 4.918L135.218 13.772C135.218 13.8353 135.193 13.8923 135.142 13.943C135.104 13.981 135.053 14 134.99 14H133.242C133.179 14 133.122 13.981 133.071 13.943C133.033 13.8923 133.014 13.8353 133.014 13.772V0.928C133.014 0.864666 133.033 0.814 133.071 0.775999C133.122 0.725332 133.179 0.699999 133.242 0.699999H134.933C135.06 0.699999 135.148 0.750666 135.199 0.851999L140.652 9.82C140.677 9.858 140.703 9.877 140.728 9.877C140.753 9.86433 140.766 9.83267 140.766 9.782L140.747 0.928Z" fill="#303030"/>
</svg>
