<svg width="32" height="32" viewBox="0 0 32 32" fill="none" xmlns="http://www.w3.org/2000/svg">
<rect x="0.75" y="0.75" width="30.5" height="30.5" rx="4.25" fill="#B9557A" stroke="white" stroke-width="1.5"/>
<path d="M13.072 26C12.91 26 12.811 25.919 12.775 25.757L12.181 22.652C12.181 22.616 12.163 22.589 12.127 22.571C12.109 22.553 12.082 22.544 12.046 22.544H7.645C7.609 22.544 7.573 22.553 7.537 22.571C7.519 22.589 7.51 22.616 7.51 22.652L6.943 25.757C6.925 25.919 6.826 26 6.646 26H4.594C4.504 26 4.432 25.973 4.378 25.919C4.342 25.865 4.333 25.793 4.351 25.703L8.374 7.343C8.41 7.181 8.509 7.1 8.671 7.1H11.074C11.254 7.1 11.353 7.181 11.371 7.343L15.421 25.703V25.757C15.421 25.919 15.34 26 15.178 26H13.072ZM7.969 20.384C7.969 20.456 7.996 20.492 8.05 20.492H11.641C11.695 20.492 11.722 20.456 11.722 20.384L9.886 10.799C9.868 10.763 9.85 10.745 9.832 10.745C9.814 10.745 9.796 10.763 9.778 10.799L7.969 20.384ZM24.6698 26C24.5078 26 24.3998 25.928 24.3458 25.784L21.8618 17.738C21.8438 17.684 21.8078 17.657 21.7538 17.657H19.8638C19.7918 17.657 19.7558 17.693 19.7558 17.765V25.73C19.7558 25.91 19.6658 26 19.4858 26H17.4338C17.2538 26 17.1638 25.91 17.1638 25.73V7.37C17.1638 7.19 17.2538 7.1 17.4338 7.1H22.2668C23.1848 7.1 23.9948 7.325 24.6968 7.775C25.3988 8.225 25.9388 8.864 26.3168 9.692C26.7128 10.502 26.9108 11.429 26.9108 12.473C26.9108 13.607 26.6768 14.597 26.2088 15.443C25.7408 16.271 25.1018 16.874 24.2918 17.252C24.2378 17.306 24.2198 17.36 24.2378 17.414L26.9918 25.703L27.0188 25.811C27.0188 25.937 26.9378 26 26.7758 26H24.6698ZM19.8638 9.341C19.7918 9.341 19.7558 9.377 19.7558 9.449V15.497C19.7558 15.569 19.7918 15.605 19.8638 15.605H21.8618C22.5998 15.605 23.1938 15.326 23.6438 14.768C24.0938 14.192 24.3188 13.436 24.3188 12.5C24.3188 11.528 24.0938 10.763 23.6438 10.205C23.1938 9.629 22.5998 9.341 21.8618 9.341H19.8638Z" fill="white"/>
</svg>
