<svg width="231" height="23" viewBox="0 0 231 23" fill="none" xmlns="http://www.w3.org/2000/svg">
<path d="M15.21 22C15.03 22 14.91 21.92 14.85 21.76L13.77 18.25C13.75 18.19 13.71 18.16 13.65 18.16H5.22C5.16 18.16 5.12 18.19 5.1 18.25L4.02 21.76C3.96 21.92 3.84 22 3.66 22H1.23C1.01 22 0.93 21.89 0.99 21.67L7.56 1.24C7.62 1.08 7.74 0.999999 7.92 0.999999H10.92C11.1 0.999999 11.22 1.08 11.28 1.24L17.91 21.67L17.94 21.79C17.94 21.93 17.85 22 17.67 22H15.21ZM5.85 15.73C5.83 15.77 5.83 15.81 5.85 15.85C5.89 15.87 5.93 15.88 5.97 15.88H12.87C12.91 15.88 12.94 15.87 12.96 15.85C13 15.81 13.01 15.77 12.99 15.73L9.51 4.6C9.49 4.56 9.46 4.54 9.42 4.54C9.38 4.54 9.35 4.56 9.33 4.6L5.85 15.73ZM34.9465 1.18C35.0465 1.06 35.1665 0.999999 35.3065 0.999999H37.5865C37.7865 0.999999 37.8865 1.1 37.8865 1.3V21.7C37.8865 21.9 37.7865 22 37.5865 22H35.3065C35.1065 22 35.0065 21.9 35.0065 21.7V6.34C35.0065 6.28 34.9865 6.24 34.9465 6.22C34.9065 6.2 34.8765 6.22 34.8565 6.28L30.5665 12.82C30.4865 12.94 30.3665 13 30.2065 13H29.0665C28.9265 13 28.8065 12.94 28.7065 12.82L24.3865 6.34C24.3665 6.28 24.3365 6.26 24.2965 6.28C24.2565 6.3 24.2365 6.34 24.2365 6.4V21.7C24.2365 21.9 24.1365 22 23.9365 22H21.6565C21.4565 22 21.3565 21.9 21.3565 21.7V1.3C21.3565 1.1 21.4565 0.999999 21.6565 0.999999H23.9365C24.0965 0.999999 24.2165 1.06 24.2965 1.18L29.5465 9.04C29.5665 9.06 29.5965 9.07 29.6365 9.07C29.6765 9.07 29.7065 9.06 29.7265 9.04L34.9465 1.18ZM55.5518 22C55.3718 22 55.2518 21.92 55.1918 21.76L54.1118 18.25C54.0918 18.19 54.0518 18.16 53.9918 18.16H45.5618C45.5018 18.16 45.4618 18.19 45.4418 18.25L44.3618 21.76C44.3018 21.92 44.1818 22 44.0018 22H41.5718C41.3518 22 41.2718 21.89 41.3318 21.67L47.9018 1.24C47.9618 1.08 48.0818 0.999999 48.2618 0.999999H51.2618C51.4418 0.999999 51.5618 1.08 51.6218 1.24L58.2518 21.67L58.2818 21.79C58.2818 21.93 58.1918 22 58.0118 22H55.5518ZM46.1918 15.73C46.1718 15.77 46.1718 15.81 46.1918 15.85C46.2318 15.87 46.2718 15.88 46.3118 15.88H53.2118C53.2518 15.88 53.2818 15.87 53.3018 15.85C53.3418 15.81 53.3518 15.77 53.3318 15.73L49.8518 4.6C49.8318 4.56 49.8018 4.54 49.7618 4.54C49.7218 4.54 49.6918 4.56 49.6718 4.6L46.1918 15.73ZM73.6683 22C73.5083 22 73.3983 21.93 73.3383 21.79L69.1383 12.82C69.1183 12.76 69.0783 12.73 69.0183 12.73H64.6983C64.6183 12.73 64.5783 12.77 64.5783 12.85V21.7C64.5783 21.9 64.4783 22 64.2783 22H61.9983C61.7983 22 61.6983 21.9 61.6983 21.7V1.3C61.6983 1.1 61.7983 0.999999 61.9983 0.999999H70.0683C71.2683 0.999999 72.3183 1.25 73.2183 1.75C74.1383 2.25 74.8483 2.95 75.3483 3.85C75.8483 4.75 76.0983 5.79 76.0983 6.97C76.0983 8.37 75.7283 9.56 74.9883 10.54C74.2683 11.5 73.2583 12.15 71.9583 12.49C71.8783 12.53 71.8583 12.58 71.8983 12.64L76.2483 21.64C76.2683 21.68 76.2783 21.73 76.2783 21.79C76.2783 21.93 76.1983 22 76.0383 22H73.6683ZM64.6983 3.49C64.6183 3.49 64.5783 3.53 64.5783 3.61V10.33C64.5783 10.41 64.6183 10.45 64.6983 10.45H69.7083C70.7683 10.45 71.6183 10.14 72.2583 9.52C72.8983 8.88 73.2183 8.04 73.2183 7C73.2183 5.94 72.8983 5.09 72.2583 4.45C71.6183 3.81 70.7683 3.49 69.7083 3.49H64.6983ZM84.7294 21.97C84.5294 21.97 84.4294 21.87 84.4294 21.67V13.24C84.4294 13.16 84.4194 13.11 84.3994 13.09L78.1594 1.36C78.1394 1.32 78.1294 1.27 78.1294 1.21C78.1294 1.07 78.2094 0.999999 78.3694 0.999999H80.8294C81.0094 0.999999 81.1294 1.07 81.1894 1.21L85.7794 10C85.7994 10.04 85.8294 10.06 85.8694 10.06C85.9094 10.06 85.9394 10.04 85.9594 10L90.5494 1.21C90.6094 1.07 90.7294 0.999999 90.9094 0.999999H93.3994C93.4994 0.999999 93.5694 1.04 93.6094 1.12C93.6694 1.18 93.6694 1.26 93.6094 1.36L87.3394 13.09C87.3194 13.11 87.3094 13.16 87.3094 13.24V21.67C87.3094 21.87 87.2094 21.97 87.0094 21.97H84.7294ZM97.4182 22C97.2182 22 97.1182 21.9 97.1182 21.7V1.3C97.1182 1.1 97.2182 0.999999 97.4182 0.999999H99.6982C99.8982 0.999999 99.9982 1.1 99.9982 1.3V19.39C99.9982 19.47 100.038 19.51 100.118 19.51H110.468C110.668 19.51 110.768 19.61 110.768 19.81V21.7C110.768 21.9 110.668 22 110.468 22H97.4182ZM114.528 22C114.328 22 114.228 21.9 114.228 21.7V1.3C114.228 1.1 114.328 0.999999 114.528 0.999999H116.808C117.008 0.999999 117.108 1.1 117.108 1.3V21.7C117.108 21.9 117.008 22 116.808 22H114.528ZM128.501 22.24C126.961 22.24 125.621 22 124.481 21.52C123.361 21.04 122.491 20.36 121.871 19.48C121.271 18.6 120.971 17.57 120.971 16.39V15.52C120.971 15.32 121.071 15.22 121.271 15.22H123.461C123.661 15.22 123.761 15.32 123.761 15.52V16.24C123.761 17.26 124.201 18.1 125.081 18.76C125.961 19.42 127.171 19.75 128.711 19.75C130.091 19.75 131.131 19.46 131.831 18.88C132.531 18.3 132.881 17.54 132.881 16.6C132.881 15.98 132.701 15.45 132.341 15.01C131.981 14.57 131.451 14.17 130.751 13.81C130.071 13.43 129.071 12.98 127.751 12.46C126.291 11.9 125.131 11.39 124.271 10.93C123.431 10.47 122.731 9.87 122.171 9.13C121.611 8.37 121.331 7.42 121.331 6.28C121.331 4.56 121.941 3.21 123.161 2.23C124.401 1.25 126.071 0.76 128.171 0.76C129.651 0.76 130.951 1.01 132.071 1.51C133.191 2.01 134.051 2.71 134.651 3.61C135.271 4.51 135.581 5.55 135.581 6.73V7.33C135.581 7.53 135.481 7.63 135.281 7.63H133.031C132.831 7.63 132.731 7.53 132.731 7.33V6.88C132.731 5.84 132.311 4.98 131.471 4.3C130.651 3.6 129.511 3.25 128.051 3.25C126.811 3.25 125.851 3.51 125.171 4.03C124.491 4.53 124.151 5.26 124.151 6.22C124.151 6.88 124.321 7.42 124.661 7.84C125.001 8.26 125.501 8.64 126.161 8.98C126.841 9.3 127.871 9.72 129.251 10.24C130.671 10.8 131.821 11.32 132.701 11.8C133.581 12.26 134.311 12.88 134.891 13.66C135.471 14.42 135.761 15.37 135.761 16.51C135.761 18.27 135.111 19.67 133.811 20.71C132.531 21.73 130.761 22.24 128.501 22.24ZM163.639 22C163.479 22 163.369 21.93 163.309 21.79L159.109 12.82C159.089 12.76 159.049 12.73 158.989 12.73H154.669C154.589 12.73 154.549 12.77 154.549 12.85V21.7C154.549 21.9 154.449 22 154.249 22H151.969C151.769 22 151.669 21.9 151.669 21.7V1.3C151.669 1.1 151.769 0.999999 151.969 0.999999H160.039C161.239 0.999999 162.289 1.25 163.189 1.75C164.109 2.25 164.819 2.95 165.319 3.85C165.819 4.75 166.069 5.79 166.069 6.97C166.069 8.37 165.699 9.56 164.959 10.54C164.239 11.5 163.229 12.15 161.929 12.49C161.849 12.53 161.829 12.58 161.869 12.64L166.219 21.64C166.239 21.68 166.249 21.73 166.249 21.79C166.249 21.93 166.169 22 166.009 22H163.639ZM154.669 3.49C154.589 3.49 154.549 3.53 154.549 3.61V10.33C154.549 10.41 154.589 10.45 154.669 10.45H159.679C160.739 10.45 161.589 10.14 162.229 9.52C162.869 8.88 163.189 8.04 163.189 7C163.189 5.94 162.869 5.09 162.229 4.45C161.589 3.81 160.739 3.49 159.679 3.49H154.669ZM170.367 22C170.167 22 170.067 21.9 170.067 21.7V1.3C170.067 1.1 170.167 0.999999 170.367 0.999999H172.647C172.847 0.999999 172.947 1.1 172.947 1.3V21.7C172.947 21.9 172.847 22 172.647 22H170.367ZM191.81 3.19C191.81 3.39 191.71 3.49 191.51 3.49H180.86C180.78 3.49 180.74 3.53 180.74 3.61V10.06C180.74 10.14 180.78 10.18 180.86 10.18H188.18C188.38 10.18 188.48 10.28 188.48 10.48V12.37C188.48 12.57 188.38 12.67 188.18 12.67H180.86C180.78 12.67 180.74 12.71 180.74 12.79V19.39C180.74 19.47 180.78 19.51 180.86 19.51H191.51C191.71 19.51 191.81 19.61 191.81 19.81V21.7C191.81 21.9 191.71 22 191.51 22H178.16C177.96 22 177.86 21.9 177.86 21.7V1.3C177.86 1.1 177.96 0.999999 178.16 0.999999H191.51C191.71 0.999999 191.81 1.1 191.81 1.3V3.19ZM207.46 1.3C207.46 1.1 207.56 0.999999 207.76 0.999999H210.04C210.24 0.999999 210.34 1.1 210.34 1.3V21.7C210.34 21.9 210.24 22 210.04 22H207.76C207.56 22 207.46 21.9 207.46 21.7V12.79C207.46 12.71 207.42 12.67 207.34 12.67H198.79C198.71 12.67 198.67 12.71 198.67 12.79V21.7C198.67 21.9 198.57 22 198.37 22H196.09C195.89 22 195.79 21.9 195.79 21.7V1.3C195.79 1.1 195.89 0.999999 196.09 0.999999H198.37C198.57 0.999999 198.67 1.1 198.67 1.3V10.06C198.67 10.14 198.71 10.18 198.79 10.18H207.34C207.42 10.18 207.46 10.14 207.46 10.06V1.3ZM227.486 1.3C227.486 1.1 227.586 0.999999 227.786 0.999999H230.066C230.266 0.999999 230.366 1.1 230.366 1.3V21.7C230.366 21.9 230.266 22 230.066 22H227.876C227.736 22 227.616 21.93 227.516 21.79L218.126 6.46C218.106 6.4 218.076 6.38 218.036 6.4C217.996 6.4 217.976 6.43 217.976 6.49L218.006 21.7C218.006 21.9 217.906 22 217.706 22H215.426C215.226 22 215.126 21.9 215.126 21.7V1.3C215.126 1.1 215.226 0.999999 215.426 0.999999H217.646C217.786 0.999999 217.906 1.07 218.006 1.21L227.366 16.54C227.386 16.6 227.416 16.63 227.456 16.63C227.496 16.61 227.516 16.57 227.516 16.51L227.486 1.3Z" fill="#416759"/>
</svg>
