<svg width="923" height="148" viewBox="0 0 923 148" fill="none" xmlns="http://www.w3.org/2000/svg">
<path d="M2.98023e-08 145L22.6 1.99999H64.6C112.6 1.99999 135 26.2 135.2 63C135.2 112.6 103.6 145 52.2 145H2.98023e-08ZM36.4 119.8H52C83.6 119.8 101.6 99.4 101.6 64C101.6 41.6 90.4 27 63.8 27H51L36.4 119.8ZM148.094 145L170.694 1.99999H263.294L259.294 27.2H198.894L193.694 60.6H242.294L238.694 84.2H190.094L184.294 119.8H248.494L244.494 145H148.094ZM304.625 145L279.425 1.99999H312.625L329.225 111.8L380.625 1.99999H412.025L341.825 145H304.625ZM409.516 145L432.116 1.99999H524.716L520.716 27.2H460.316L455.116 60.6H503.716L500.116 84.2H451.516L445.716 119.8H509.916L505.916 145H409.516ZM531.047 145L553.647 1.99999H586.047L567.447 119.6H625.647L621.647 145H531.047ZM789.725 63.8C789.725 112.6 756.125 147.2 709.525 147.2C670.925 147.2 641.725 122.8 641.725 84C641.725 35.8 675.325 -4.76837e-06 721.525 -4.76837e-06C761.725 -4.76837e-06 789.725 25 789.725 63.8ZM755.925 64.6C755.925 43 744.525 25.8 720.725 25.6C691.925 25.4 675.325 52.6 675.325 83C675.325 106.4 688.925 121.6 711.325 121.6C739.525 121.6 755.925 95.4 755.925 64.6ZM803.406 145L826.006 1.99999H873.206C904.406 1.99999 922.806 16.4 922.806 41.6C922.806 76.8 897.806 93 864.806 93H844.006L835.806 145H803.406ZM847.406 70.4H864.206C882.206 70.4 891.806 61.2 891.806 44.4C891.806 32.4 884.406 26.4 869.606 26.4H854.406L847.406 70.4Z" fill="#F16562"/>
</svg>
