<svg width="1129" height="362" viewBox="0 0 1129 362" fill="none" xmlns="http://www.w3.org/2000/svg">
<path d="M7 257H59.2C110.6 257 142.2 224.6 142.2 175C142 138.2 119.6 114 71.6 114H29.6L7 257ZM43.4 231.8L58 139H70.8C97.4 139 108.6 153.6 108.6 176C108.6 211.4 90.6 231.8 59 231.8H43.4ZM155.894 257H188.494L211.094 114H178.494L155.894 257ZM277.128 259.2C313.528 259 334.128 239.2 334.128 211.4C334.128 188 319.128 177.8 288.328 170.2C269.328 165.4 264.128 161.4 264.128 153.2C264.128 143 270.928 135.8 285.528 135.8C298.928 135.8 307.528 141 308.528 154.8H338.128C338.128 126 318.528 112 286.928 112C253.128 112 232.928 131.8 232.928 156.6C232.928 179.8 246.328 190.2 278.328 197.6C296.728 202.2 302.328 206.8 302.328 216C302.328 228.2 293.728 235.8 278.128 235.6C258.128 235.6 250.728 224.4 250.328 212.2H219.528C219.328 239.8 239.328 259.2 277.128 259.2ZM421.5 259.2C454.7 259.2 481.7 240.2 488.1 205.6H456.3C451.3 223.2 439.3 233.4 421.9 233.4C398.3 233.4 387.7 218.2 387.9 195.4C388.1 163.6 403.3 137.2 431.5 137.2C449.1 137.2 457.5 146.6 459.7 163.8H491.9C490.3 129.2 466.7 111.8 432.5 111.8C384.7 111.8 354.1 148.2 354.1 196.4C354.1 236.4 380.3 259.2 421.5 259.2ZM653.905 175.8C653.905 137 625.905 112 585.705 112C539.505 112 505.905 147.8 505.905 196C505.905 234.8 535.105 259.2 573.705 259.2C620.305 259.2 653.905 224.6 653.905 175.8ZM620.105 176.6C620.105 207.4 603.705 233.6 575.505 233.6C553.105 233.6 539.505 218.4 539.505 195C539.505 164.6 556.105 137.4 584.905 137.6C608.705 137.8 620.105 155 620.105 176.6ZM693.797 257H730.997L801.197 114H769.797L718.397 223.8L701.797 114H668.597L693.797 257ZM798.688 257H895.088L899.088 231.8H834.888L840.688 196.2H889.288L892.888 172.6H844.288L849.488 139.2H909.888L913.888 114H821.288L798.688 257ZM920.219 257H952.419L961.019 201.8H975.419L1002.62 257H1036.02L1006.02 196.4C1026.42 192 1042.02 177.8 1042.02 153C1042.22 128.2 1024.02 114 992.619 114H942.819L920.219 257ZM964.619 179.8L971.219 138.8H988.819C1002.82 138.8 1010.42 144.2 1010.22 156.2C1010.22 172.4 1000.82 179.8 983.619 179.8H964.619Z" fill="#F16562"/>
<path d="M8.6 335H12.08V322.56H16.48L25 335H28.88L20.12 322.32C24.04 321.56 27.2 319.24 27.2 314.52V314.36C27.2 308.64 22.68 306.4 17.2 306.4H8.6V335ZM12.08 319.8V309.2H17.44C21.32 309.2 23.72 310.48 23.72 314.36V314.52C23.72 318.04 21.52 319.8 17.44 319.8H12.08ZM34.1172 335H51.5172V332.16H37.5972V321.8H48.2372V318.96H37.5972V309.24H50.7972V306.4H34.1172V335ZM66.4134 335.36C72.0934 335.36 76.2934 331.72 76.2934 326.92C76.2934 321.52 72.9334 319.6 66.5734 318.6C60.7334 317.72 59.6934 316.28 59.6934 313.48C59.6934 310.8 61.7334 308.84 65.6534 308.84C69.6134 308.84 71.6934 310.32 72.3734 313.92H75.4934C74.9334 308.84 71.3734 306.04 65.6534 306.04C60.2534 306.04 56.4534 309.4 56.4534 313.8C56.4534 318.88 60.0134 320.76 66.0134 321.68C71.4534 322.56 72.9334 323.92 72.9334 327.16C72.9334 330.4 70.0934 332.56 66.4134 332.56C60.6534 332.56 59.2934 329.68 58.8534 326.28H55.4934C56.0134 331.16 58.7734 335.36 66.4134 335.36ZM82.6516 335H100.052V332.16H86.1316V321.8H96.7716V318.96H86.1316V309.24H99.3316V306.4H82.6516V335ZM103.548 335H106.828L109.588 326.76H121.388L124.188 335H127.628L117.948 306.4H113.388L103.548 335ZM115.508 309.28L120.468 324H110.548L115.508 309.28ZM133.061 335H136.541V322.56H140.941L149.461 335H153.341L144.581 322.32C148.501 321.56 151.661 319.24 151.661 314.52V314.36C151.661 308.64 147.141 306.4 141.661 306.4H133.061V335ZM136.541 319.8V309.2H141.901C145.781 309.2 148.181 310.48 148.181 314.36V314.52C148.181 318.04 145.981 319.8 141.901 319.8H136.541ZM170.147 335.36C176.547 335.36 181.107 332.12 182.107 325.52H178.867C178.147 330.16 174.907 332.52 170.227 332.52C164.067 332.52 160.387 328.12 160.387 320.84V320.52C160.387 313.32 164.347 308.72 170.267 308.72C175.147 308.72 177.667 310.96 178.387 315.32H181.827C181.227 309.12 176.187 305.96 170.227 305.96C162.467 305.96 156.787 312.08 156.787 320.56V320.88C156.787 329.68 161.867 335.36 170.147 335.36ZM187.806 335H191.286V322.28H206.326V335H209.806V306.4H206.326V319.36H191.286V306.4H187.806V335ZM233.731 330.8H236.651V322.72H244.131V319.92H236.651V311.84H233.731V319.92H226.251V322.72H233.731V330.8ZM270.579 335.36C277.939 335.36 281.419 331.08 281.419 324.12V306.4H277.939V323.64C277.939 330.64 275.219 332.48 270.659 332.48C265.899 332.48 263.779 330.16 263.779 324.16V306.4H260.299V324.56C260.299 331.52 264.019 335.36 270.579 335.36ZM298.031 335.36C303.711 335.36 307.911 331.72 307.911 326.92C307.911 321.52 304.551 319.6 298.191 318.6C292.351 317.72 291.311 316.28 291.311 313.48C291.311 310.8 293.351 308.84 297.271 308.84C301.231 308.84 303.311 310.32 303.991 313.92H307.111C306.551 308.84 302.991 306.04 297.271 306.04C291.871 306.04 288.071 309.4 288.071 313.8C288.071 318.88 291.631 320.76 297.631 321.68C303.071 322.56 304.551 323.92 304.551 327.16C304.551 330.4 301.711 332.56 298.031 332.56C292.271 332.56 290.911 329.68 290.471 326.28H287.111C287.631 331.16 290.391 335.36 298.031 335.36ZM314.269 335H331.669V332.16H317.749V321.8H328.389V318.96H317.749V309.24H330.949V306.4H314.269V335ZM337.325 335H340.805V322.56H345.205L353.725 335H357.605L348.845 322.32C352.765 321.56 355.925 319.24 355.925 314.52V314.36C355.925 308.64 351.405 306.4 345.925 306.4H337.325V335ZM340.805 319.8V309.2H346.165C350.045 309.2 352.445 310.48 352.445 314.36V314.52C352.445 318.04 350.245 319.8 346.165 319.8H340.805ZM374.028 335H377.508V306.4H374.028V335ZM385.322 335H388.642V310.48L403.082 335H407.082V306.4H403.762V330.04L389.842 306.4H385.322V335ZM420.547 335H424.027V309.24H432.347V306.4H412.227V309.24H420.547V335ZM437.489 335H454.889V332.16H440.969V321.8H451.609V318.96H440.969V309.24H454.169V306.4H437.489V335ZM460.545 335H464.025V322.56H468.425L476.945 335H480.825L472.065 322.32C475.985 321.56 479.145 319.24 479.145 314.52V314.36C479.145 308.64 474.625 306.4 469.145 306.4H460.545V335ZM464.025 319.8V309.2H469.385C473.265 309.2 475.665 310.48 475.665 314.36V314.52C475.665 318.04 473.465 319.8 469.385 319.8H464.025ZM492.601 335H496.761L506.641 306.4H503.361L494.841 331.64L486.321 306.4H482.881L492.601 335ZM512.053 335H515.533V306.4H512.053V335ZM523.347 335H540.747V332.16H526.827V321.8H537.467V318.96H526.827V309.24H540.027V306.4H523.347V335ZM551.603 335H554.763L561.443 312.4L567.923 335H571.123L578.563 306.4H575.323L569.443 329.56L562.723 306.4H560.243L553.523 329.48L547.723 306.4H544.163L551.603 335ZM592.762 335.36C598.442 335.36 602.642 331.72 602.642 326.92C602.642 321.52 599.282 319.6 592.922 318.6C587.082 317.72 586.042 316.28 586.042 313.48C586.042 310.8 588.082 308.84 592.002 308.84C595.962 308.84 598.042 310.32 598.722 313.92H601.842C601.282 308.84 597.722 306.04 592.002 306.04C586.602 306.04 582.802 309.4 582.802 313.8C582.802 318.88 586.362 320.76 592.362 321.68C597.802 322.56 599.282 323.92 599.282 327.16C599.282 330.4 596.442 332.56 592.762 332.56C587.002 332.56 585.642 329.68 585.202 326.28H581.842C582.362 331.16 585.122 335.36 592.762 335.36ZM625.306 330.8H628.226V322.72H635.706V319.92H628.226V311.84H625.306V319.92H617.826V322.72H625.306V330.8ZM649.954 335H653.234L655.994 326.76H667.794L670.594 335H674.034L664.354 306.4H659.794L649.954 335ZM661.914 309.28L666.874 324H656.954L661.914 309.28ZM679.467 335H682.947V322.2H693.267V319.36H682.947V309.24H696.187V306.4H679.467V335ZM701.703 335H705.183V322.2H715.503V319.36H705.183V309.24H718.423V306.4H701.703V335ZM724.139 335H727.619V306.4H724.139V335ZM735.433 335H738.753V310.48L753.193 335H757.193V306.4H753.873V330.04L739.953 306.4H735.433V335ZM764.978 335H768.458V306.4H764.978V335ZM782.152 335H785.632V309.24H793.952V306.4H773.832V309.24H782.152V335ZM806.364 335H809.844V322.56L818.884 306.4H815.404L808.204 319.68L800.724 306.4H796.804L806.364 322.52V335ZM834.777 335H837.977V310.92L847.777 335H848.857L858.337 310.92V335H861.817V306.4H857.017L848.457 328.68L839.617 306.4H834.777V335ZM867.274 335H870.554L873.314 326.76H885.114L887.914 335H891.354L881.674 306.4H877.114L867.274 335ZM879.234 309.28L884.194 324H874.274L879.234 309.28ZM896.788 335H900.268V323.36H904.908C910.348 323.36 914.908 321 914.908 314.92V314.76C914.908 308.8 910.388 306.4 904.908 306.4H896.788V335ZM900.268 320.6V309.2H905.148C909.028 309.2 911.428 310.72 911.428 314.76V314.92C911.428 318.6 909.228 320.6 905.148 320.6H900.268Z" fill="#004A78"/>
</svg>
