<svg width="890" height="375" viewBox="0 0 890 375" fill="none" xmlns="http://www.w3.org/2000/svg">
<path d="M7 257L29.6 114H71.6C119.6 114 142 138.2 142.2 175C142.2 224.6 110.6 257 59.2 257H7ZM43.4 231.8H59C90.6 231.8 108.6 211.4 108.6 176C108.6 153.6 97.4 139 70.8 139H58L43.4 231.8ZM155.094 257L177.694 114H270.294L266.294 139.2H205.894L200.694 172.6H249.294L245.694 196.2H197.094L191.294 231.8H255.494L251.494 257H155.094ZM276.625 257L299.225 114H331.625L313.025 231.6H371.225L367.225 257H276.625ZM391.339 257L413.939 114H446.539L423.939 257H391.339ZM492.773 257L467.573 114H500.773L517.373 223.8L568.773 114H600.173L529.973 257H492.773ZM597.664 257L620.264 114H712.864L708.864 139.2H648.464L643.264 172.6H691.864L688.264 196.2H639.664L633.864 231.8H698.064L694.064 257H597.664ZM719.195 257L741.795 114H791.595C822.995 114 841.195 128.2 840.995 153C840.995 177.8 825.395 192 804.995 196.4L834.995 257H801.595L774.395 201.8H759.995L751.395 257H719.195ZM763.595 179.8H782.595C799.795 179.8 809.195 172.4 809.195 156.2C809.395 144.2 801.795 138.8 787.795 138.8H770.195L763.595 179.8Z" fill="#F16562"/>
<path d="M8.6 335H16.08C26.08 335 30.64 328.72 30.64 320.8V320.44C30.64 312.48 26 306.4 16.16 306.4H8.6V335ZM12.08 332.16V309.2H15.96C23.84 309.2 27.04 313.84 27.04 320.44V320.76C27.04 327.76 23.36 332.16 16 332.16H12.08ZM36.8516 335H54.2516V332.16H40.3316V321.8H50.9716V318.96H40.3316V309.24H53.5316V306.4H36.8516V335ZM69.1478 335.36C74.8278 335.36 79.0278 331.72 79.0278 326.92C79.0278 321.52 75.6678 319.6 69.3078 318.6C63.4678 317.72 62.4278 316.28 62.4278 313.48C62.4278 310.8 64.4678 308.84 68.3878 308.84C72.3478 308.84 74.4278 310.32 75.1078 313.92H78.2278C77.6678 308.84 74.1078 306.04 68.3878 306.04C62.9878 306.04 59.1878 309.4 59.1878 313.8C59.1878 318.88 62.7478 320.76 68.7478 321.68C74.1878 322.56 75.6678 323.92 75.6678 327.16C75.6678 330.4 72.8278 332.56 69.1478 332.56C63.3878 332.56 62.0278 329.68 61.5878 326.28H58.2278C58.7478 331.16 61.5078 335.36 69.1478 335.36ZM85.5859 335H89.0659V306.4H85.5859V335ZM109.32 335.36C116.64 335.36 121.72 330.96 121.72 322.68V320.56H109.96V323.44H118.32C118.2 328.52 115.52 332.56 109.32 332.56C102.6 332.56 99.0797 327.92 99.0797 320.84V320.52C99.0797 313.52 102.84 308.72 109.4 308.72C113.56 308.72 116.68 310.48 117.48 315.04H120.96C120.08 308.6 115 305.96 109.32 305.96C101.12 305.96 95.4797 312.2 95.4797 320.56V320.88C95.4797 329.24 100.52 335.36 109.32 335.36ZM127.944 335H131.264V310.48L145.704 335H149.704V306.4H146.384V330.04L132.464 306.4H127.944V335ZM168.275 335H184.835V332.16H171.755V306.4H168.275V335ZM187.921 335H191.201L193.961 326.76H205.761L208.561 335H212.001L202.321 306.4H197.761L187.921 335ZM199.881 309.28L204.841 324H194.921L199.881 309.28ZM217.434 335H220.754V310.48L235.194 335H239.194V306.4H235.874V330.04L221.954 306.4H217.434V335ZM259.22 335.36C266.54 335.36 271.62 330.96 271.62 322.68V320.56H259.86V323.44H268.22C268.1 328.52 265.42 332.56 259.22 332.56C252.5 332.56 248.98 327.92 248.98 320.84V320.52C248.98 313.52 252.74 308.72 259.3 308.72C263.46 308.72 266.58 310.48 267.38 315.04H270.86C269.98 308.6 264.9 305.96 259.22 305.96C251.02 305.96 245.38 312.2 245.38 320.56V320.88C245.38 329.24 250.42 335.36 259.22 335.36ZM287.884 335.36C295.244 335.36 298.724 331.08 298.724 324.12V306.4H295.244V323.64C295.244 330.64 292.524 332.48 287.964 332.48C283.204 332.48 281.084 330.16 281.084 324.16V306.4H277.604V324.56C277.604 331.52 281.324 335.36 287.884 335.36ZM302.92 335H306.2L308.96 326.76H320.76L323.56 335H327L317.32 306.4H312.76L302.92 335ZM314.88 309.28L319.84 324H309.92L314.88 309.28ZM343.271 335.36C350.591 335.36 355.671 330.96 355.671 322.68V320.56H343.911V323.44H352.271C352.151 328.52 349.471 332.56 343.271 332.56C336.551 332.56 333.031 327.92 333.031 320.84V320.52C333.031 313.52 336.791 308.72 343.351 308.72C347.511 308.72 350.631 310.48 351.431 315.04H354.911C354.031 308.6 348.951 305.96 343.271 305.96C335.071 305.96 329.431 312.2 329.431 320.56V320.88C329.431 329.24 334.471 335.36 343.271 335.36ZM361.895 335H379.295V332.16H365.375V321.8H376.015V318.96H365.375V309.24H378.575V306.4H361.895V335ZM401.257 330.8H404.177V322.72H411.657V319.92H404.177V311.84H401.257V319.92H393.777V322.72H401.257V330.8ZM428.066 335H431.546V322.2H441.866V319.36H431.546V309.24H444.786V306.4H428.066V335ZM450.502 335H453.982V306.4H450.502V335ZM461.795 335H465.115V310.48L479.555 335H483.555V306.4H480.235V330.04L466.315 306.4H461.795V335ZM488.981 335H492.261L495.021 326.76H506.821L509.621 335H513.061L503.381 306.4H498.821L488.981 335ZM500.941 309.28L505.901 324H495.981L500.941 309.28ZM518.494 335H535.054V332.16H521.974V306.4H518.494V335ZM551.286 335H554.766V323.36H559.406C564.846 323.36 569.406 321 569.406 314.92V314.76C569.406 308.8 564.886 306.4 559.406 306.4H551.286V335ZM554.766 320.6V309.2H559.646C563.526 309.2 565.926 310.72 565.926 314.76V314.92C565.926 318.6 563.726 320.6 559.646 320.6H554.766ZM574.928 335H578.408V322.56H582.808L591.328 335H595.208L586.448 322.32C590.368 321.56 593.528 319.24 593.528 314.52V314.36C593.528 308.64 589.008 306.4 583.528 306.4H574.928V335ZM578.408 319.8V309.2H583.768C587.648 309.2 590.048 310.48 590.048 314.36V314.52C590.048 318.04 587.848 319.8 583.768 319.8H578.408ZM612.815 335.36C621.135 335.36 626.695 328.88 626.695 320.8V320.48C626.695 312.44 621.135 306.04 612.735 306.04C604.335 306.04 598.655 312.44 598.655 320.56V320.88C598.655 328.88 604.375 335.36 612.815 335.36ZM612.815 332.48C606.855 332.48 602.255 327.76 602.255 320.84V320.52C602.255 313.72 606.095 308.84 612.735 308.84C619.335 308.84 623.095 314.04 623.095 320.44V320.76C623.095 327.68 619.175 332.48 612.815 332.48ZM637.35 335H640.83V309.24H649.15V306.4H629.03V309.24H637.35V335ZM665.646 335.36C673.966 335.36 679.526 328.88 679.526 320.8V320.48C679.526 312.44 673.966 306.04 665.566 306.04C657.166 306.04 651.486 312.44 651.486 320.56V320.88C651.486 328.88 657.206 335.36 665.646 335.36ZM665.646 332.48C659.686 332.48 655.086 327.76 655.086 320.84V320.52C655.086 313.72 658.926 308.84 665.566 308.84C672.166 308.84 675.926 314.04 675.926 320.44V320.76C675.926 327.68 672.006 332.48 665.646 332.48ZM690.182 335H693.662V309.24H701.982V306.4H681.862V309.24H690.182V335ZM714.394 335H717.874V322.56L726.914 306.4H723.434L716.234 319.68L708.754 306.4H704.834L714.394 322.52V335ZM731.82 335H735.3V323.36H739.94C745.38 323.36 749.94 321 749.94 314.92V314.76C749.94 308.8 745.42 306.4 739.94 306.4H731.82V335ZM735.3 320.6V309.2H740.18C744.06 309.2 746.46 310.72 746.46 314.76V314.92C746.46 318.6 744.26 320.6 740.18 320.6H735.3ZM755.462 335H772.862V332.16H758.942V321.8H769.582V318.96H758.942V309.24H772.142V306.4H755.462V335Z" fill="#004A78"/>
</svg>
