<svg width="801" height="822" viewBox="0 0 801 822" fill="none" xmlns="http://www.w3.org/2000/svg">
<rect width="801" height="822" rx="60" fill="#7BCEB2"/>
<path d="M106.28 124V113.04H78.44V106.88L102.28 66.8H122.04V101.76H129.4V113.04H122.04V124H106.28ZM93.88 101.76H106.68V79.12L93.88 101.76ZM156.579 124.96C141.379 124.96 134.499 116.72 134.099 106H148.979C149.539 110 151.139 112.64 156.419 112.64C161.139 112.64 163.299 109.12 163.299 104.56C163.299 99.44 160.499 96.4 155.539 96.4C150.899 96.4 148.019 98.24 146.099 100.48H136.339L137.539 66.8H176.099V78.8H149.379L149.059 91.44C151.219 88.32 155.299 85.36 162.419 85.36C172.899 85.36 179.779 92.4 179.779 104.8C179.779 116.96 171.059 124.96 156.579 124.96ZM188.807 124V66.8H210.168L221.128 97.28L232.087 66.8H253.048V124H236.728V88.4L222.728 124H217.287L203.447 88.4V124H188.807Z" fill="white"/>
<path d="M469.96 124L485.96 80.08H462.92V66.8H506.44V68.48L486.6 124H469.96ZM533.396 124.96C515.156 124.96 508.196 113.28 508.196 96.96V95.44C508.196 76.8 519.316 66 533.876 66C546.756 66 554.356 71.68 555.556 82.88H540.516C539.956 80.08 538.516 78.08 534.436 78.08C528.196 78.08 524.756 83.52 524.436 93.2C526.996 89.28 530.756 86.56 537.796 86.56C548.196 86.56 556.756 92.88 556.756 104.88C556.756 116.96 547.956 124.96 533.396 124.96ZM533.236 113.36C537.796 113.36 540.836 109.92 540.836 105.04C540.836 100.24 537.956 96.8 533.236 96.8C528.516 96.8 525.476 100.32 525.476 104.88C525.476 109.92 528.516 113.36 533.236 113.36ZM576.361 94.88C566.921 94.88 561.241 88.64 561.241 80.4C561.241 72.32 567.721 66.16 576.441 66.16C585.001 66.16 591.561 72 591.561 80.16C591.561 88.48 585.641 94.88 576.361 94.88ZM568.681 124L608.361 66.8H616.201L576.521 124H568.681ZM576.441 86.56C579.401 86.56 581.001 84.16 581.001 80.4C581.001 76.64 579.401 74.32 576.441 74.32C573.481 74.32 571.721 76.56 571.721 80.32C571.721 84.32 573.481 86.56 576.441 86.56ZM608.201 124.96C598.761 124.96 593.081 118.72 593.081 110.48C593.081 102.32 599.641 96.24 608.281 96.24C616.921 96.24 623.401 102 623.401 110.24C623.401 118.56 617.481 124.96 608.201 124.96ZM608.281 116.56C611.321 116.56 612.921 114.24 612.921 110.4C612.921 106.72 611.321 104.4 608.281 104.4C605.401 104.4 603.641 106.64 603.641 110.4C603.641 114.4 605.401 116.56 608.281 116.56Z" fill="white"/>
<path d="M472.96 372L488.96 328.08H465.92V314.8H509.44V316.48L489.6 372H472.96ZM534.907 372.96C519.707 372.96 512.827 364.72 512.427 354H527.307C527.867 358 529.467 360.64 534.747 360.64C539.467 360.64 541.627 357.12 541.627 352.56C541.627 347.44 538.827 344.4 533.867 344.4C529.227 344.4 526.347 346.24 524.427 348.48H514.667L515.867 314.8H554.427V326.8H527.707L527.387 339.44C529.547 336.32 533.627 333.36 540.747 333.36C551.227 333.36 558.107 340.4 558.107 352.8C558.107 364.96 549.387 372.96 534.907 372.96ZM576.314 342.88C566.874 342.88 561.194 336.64 561.194 328.4C561.194 320.32 567.674 314.16 576.394 314.16C584.954 314.16 591.514 320 591.514 328.16C591.514 336.48 585.594 342.88 576.314 342.88ZM568.634 372L608.314 314.8H616.154L576.474 372H568.634ZM576.394 334.56C579.354 334.56 580.954 332.16 580.954 328.4C580.954 324.64 579.354 322.32 576.394 322.32C573.434 322.32 571.674 324.56 571.674 328.32C571.674 332.32 573.434 334.56 576.394 334.56ZM608.154 372.96C598.714 372.96 593.034 366.72 593.034 358.48C593.034 350.32 599.594 344.24 608.234 344.24C616.874 344.24 623.354 350 623.354 358.24C623.354 366.56 617.434 372.96 608.154 372.96ZM608.234 364.56C611.274 364.56 612.874 362.24 612.874 358.4C612.874 354.72 611.274 352.4 608.234 352.4C605.354 352.4 603.594 354.64 603.594 358.4C603.594 362.4 605.354 364.56 608.234 364.56Z" fill="white"/>
<path d="M490.28 621V610.04H462.44V603.88L486.28 563.8H506.04V598.76H513.4V610.04H506.04V621H490.28ZM477.88 598.76H490.68V576.12L477.88 598.76ZM542.259 621.96C527.859 621.96 518.419 615.96 518.419 604.84C518.419 598.28 522.019 593.24 528.819 590.84C523.859 588.6 520.819 584.76 520.819 579C520.819 568.76 530.659 563 542.419 563C554.579 563 564.019 568.76 564.019 578.92C564.019 584.76 560.819 588.52 555.939 590.76C562.739 593.08 566.179 597.96 566.179 604.44C566.179 615.48 556.739 621.96 542.259 621.96ZM542.499 586.6C546.259 586.6 549.219 584.2 549.219 580.28C549.219 576.44 546.179 574.04 542.419 574.04C538.739 574.04 535.699 576.44 535.699 580.28C535.699 584.2 538.819 586.6 542.499 586.6ZM542.339 610.44C546.899 610.44 550.099 607.72 550.099 603.16C550.099 598.6 546.979 595.88 542.419 595.88C537.939 595.88 534.579 598.52 534.579 603.16C534.579 607.72 537.859 610.44 542.339 610.44ZM584.954 591.88C575.514 591.88 569.834 585.64 569.834 577.4C569.834 569.32 576.314 563.16 585.034 563.16C593.594 563.16 600.154 569 600.154 577.16C600.154 585.48 594.234 591.88 584.954 591.88ZM577.274 621L616.954 563.8H624.794L585.114 621H577.274ZM585.034 583.56C587.994 583.56 589.594 581.16 589.594 577.4C589.594 573.64 587.994 571.32 585.034 571.32C582.074 571.32 580.314 573.56 580.314 577.32C580.314 581.32 582.074 583.56 585.034 583.56ZM616.794 621.96C607.354 621.96 601.674 615.72 601.674 607.48C601.674 599.32 608.234 593.24 616.874 593.24C625.514 593.24 631.994 599 631.994 607.24C631.994 615.56 626.074 621.96 616.794 621.96ZM616.874 613.56C619.914 613.56 621.514 611.24 621.514 607.4C621.514 603.72 619.914 601.4 616.874 601.4C613.994 601.4 612.234 603.64 612.234 607.4C612.234 611.4 613.994 613.56 616.874 613.56Z" fill="white"/>
<path d="M101.56 621.96C86.36 621.96 79.48 613.72 79.08 603H93.96C94.52 607 96.12 609.64 101.4 609.64C106.12 609.64 108.28 606.12 108.28 601.56C108.28 596.44 105.48 593.4 100.52 593.4C95.88 593.4 93 595.24 91.08 597.48H81.32L82.52 563.8H121.08V575.8H94.36L94.04 588.44C96.2 585.32 100.28 582.36 107.4 582.36C117.88 582.36 124.76 589.4 124.76 601.8C124.76 613.96 116.04 621.96 101.56 621.96ZM154.352 621.96C139.952 621.96 130.512 615.96 130.512 604.84C130.512 598.28 134.112 593.24 140.913 590.84C135.952 588.6 132.912 584.76 132.912 579C132.912 568.76 142.753 563 154.513 563C166.673 563 176.113 568.76 176.113 578.92C176.113 584.76 172.912 588.52 168.033 590.76C174.833 593.08 178.273 597.96 178.273 604.44C178.273 615.48 168.832 621.96 154.352 621.96ZM154.593 586.6C158.353 586.6 161.313 584.2 161.313 580.28C161.313 576.44 158.272 574.04 154.513 574.04C150.832 574.04 147.792 576.44 147.792 580.28C147.792 584.2 150.913 586.6 154.593 586.6ZM154.433 610.44C158.992 610.44 162.193 607.72 162.193 603.16C162.193 598.6 159.073 595.88 154.513 595.88C150.033 595.88 146.672 598.52 146.672 603.16C146.672 607.72 149.952 610.44 154.433 610.44ZM197.048 591.88C187.608 591.88 181.928 585.64 181.928 577.4C181.928 569.32 188.408 563.16 197.128 563.16C205.688 563.16 212.248 569 212.248 577.16C212.248 585.48 206.328 591.88 197.048 591.88ZM189.368 621L229.048 563.8H236.888L197.208 621H189.368ZM197.128 583.56C200.088 583.56 201.688 581.16 201.688 577.4C201.688 573.64 200.088 571.32 197.128 571.32C194.168 571.32 192.408 573.56 192.408 577.32C192.408 581.32 194.168 583.56 197.128 583.56ZM228.888 621.96C219.448 621.96 213.768 615.72 213.768 607.48C213.768 599.32 220.328 593.24 228.968 593.24C237.608 593.24 244.088 599 244.088 607.24C244.088 615.56 238.168 621.96 228.888 621.96ZM228.968 613.56C232.008 613.56 233.608 611.24 233.608 607.4C233.608 603.72 232.008 601.4 228.968 601.4C226.088 601.4 224.328 603.64 224.328 607.4C224.328 611.4 226.088 613.56 228.968 613.56Z" fill="white"/>
<path d="M77.64 372V369.68L97.64 348.48C103.32 342.4 107.08 337.52 107.08 332.72C107.08 328.88 105.08 326.32 101 326.32C96.92 326.32 94.36 328.8 93.64 335.6H78.76C79.32 321.28 87.96 314 101.8 314C115.8 314 123.24 321.52 123.24 332.08C123.24 339.92 118.84 345.84 112.44 352L104.44 359.76H123.64V372H77.64ZM135.744 372L151.744 328.08H128.704V314.8H172.224V316.48L152.384 372H135.744ZM190.251 342.88C180.811 342.88 175.131 336.64 175.131 328.4C175.131 320.32 181.611 314.16 190.331 314.16C198.891 314.16 205.451 320 205.451 328.16C205.451 336.48 199.531 342.88 190.251 342.88ZM182.571 372L222.251 314.8H230.091L190.411 372H182.571ZM190.331 334.56C193.291 334.56 194.891 332.16 194.891 328.4C194.891 324.64 193.291 322.32 190.331 322.32C187.371 322.32 185.611 324.56 185.611 328.32C185.611 332.32 187.371 334.56 190.331 334.56ZM222.091 372.96C212.651 372.96 206.971 366.72 206.971 358.48C206.971 350.32 213.531 344.24 222.171 344.24C230.811 344.24 237.291 350 237.291 358.24C237.291 366.56 231.371 372.96 222.091 372.96ZM222.171 364.56C225.211 364.56 226.811 362.24 226.811 358.4C226.811 354.72 225.211 352.4 222.171 352.4C219.291 352.4 217.531 354.64 217.531 358.4C217.531 362.4 219.291 364.56 222.171 364.56Z" fill="white"/>
<path d="M89.768 177.352C82.28 177.352 78.28 172.744 78.28 165.704V165.448C78.28 158.504 83.144 153.768 89.64 153.768C95.144 153.768 99.24 156.456 99.784 162.088H94.472C94.088 159.336 92.552 157.864 89.672 157.864C86.056 157.864 83.752 160.68 83.752 165.416V165.672C83.752 170.408 85.928 173.16 89.704 173.16C92.552 173.16 94.536 171.72 94.952 168.776H100.04C99.464 174.44 95.4 177.352 89.768 177.352ZM108.005 177.352C104.965 177.352 102.405 175.88 102.405 172.36C102.405 168.456 105.989 166.984 111.109 166.984H112.997V166.312C112.997 164.328 112.389 163.24 110.277 163.24C108.453 163.24 107.621 164.168 107.429 165.608H103.045C103.333 161.64 106.469 159.88 110.565 159.88C114.661 159.88 117.573 161.544 117.573 166.088V177H113.061V174.984C112.101 176.328 110.629 177.352 108.005 177.352ZM109.381 174.12C111.429 174.12 112.997 173 112.997 171.144V169.736H111.205C108.517 169.736 106.949 170.312 106.949 172.104C106.949 173.32 107.685 174.12 109.381 174.12ZM121.875 177V160.264H126.515V163.464C127.571 161.224 129.203 160.04 131.924 160.008V164.328C128.5 164.296 126.515 165.416 126.515 168.616V177H121.875ZM142.72 177.352C137.664 177.352 133.984 174.184 133.984 168.84V168.584C133.984 163.304 137.728 159.88 142.592 159.88C146.912 159.88 150.752 162.408 150.752 168.392V169.672H138.688C138.816 172.456 140.32 174.056 142.848 174.056C144.992 174.056 146.048 173.128 146.336 171.72H150.72C150.176 175.336 147.296 177.352 142.72 177.352ZM138.752 166.824H146.24C146.08 164.296 144.8 163.08 142.592 163.08C140.512 163.08 139.104 164.456 138.752 166.824ZM161.533 183.176C156.125 183.176 153.661 180.808 153.213 177.352H157.821C158.109 178.824 159.165 179.784 161.533 179.784C164.349 179.784 165.757 178.312 165.757 175.688V173.16C164.829 174.792 162.845 176.264 160.381 176.264C156.317 176.264 153.085 173.224 153.085 168.264V168.04C153.085 163.24 156.285 159.88 160.445 159.88C163.165 159.88 164.797 161.064 165.757 162.76V160.264H170.365V175.688C170.333 180.648 167.037 183.176 161.533 183.176ZM161.757 172.776C164.189 172.776 165.885 171.048 165.885 168.2V167.976C165.885 165.128 164.381 163.4 161.853 163.4C159.261 163.4 157.821 165.256 157.821 168.008V168.264C157.821 171.048 159.453 172.776 161.757 172.776ZM177.173 157.992C175.701 157.992 174.549 156.904 174.549 155.464C174.549 154.024 175.701 152.936 177.173 152.936C178.677 152.936 179.829 154.024 179.829 155.464C179.829 156.904 178.677 157.992 177.173 157.992ZM174.901 177V160.264H179.509V177H174.901ZM188.605 177L182.493 160.264H187.453L191.453 172.232L195.421 160.264H199.901L193.821 177H188.605ZM209.687 177.352C204.631 177.352 200.951 174.184 200.951 168.84V168.584C200.951 163.304 204.695 159.88 209.559 159.88C213.879 159.88 217.719 162.408 217.719 168.392V169.672H205.655C205.783 172.456 207.287 174.056 209.815 174.056C211.959 174.056 213.015 173.128 213.303 171.72H217.687C217.143 175.336 214.263 177.352 209.687 177.352ZM205.719 166.824H213.207C213.047 164.296 211.767 163.08 209.559 163.08C207.479 163.08 206.071 164.456 205.719 166.824ZM221.077 177V160.264H225.717V163.464C226.773 161.224 228.405 160.04 231.125 160.008V164.328C227.701 164.296 225.717 165.416 225.717 168.616V177H221.077ZM240.539 177.352C236.027 177.352 233.403 175.368 233.243 171.752H237.563C237.755 173.256 238.491 174.12 240.507 174.12C242.299 174.12 243.131 173.448 243.131 172.296C243.131 171.144 242.139 170.664 239.739 170.312C235.291 169.64 233.563 168.36 233.563 165.096C233.563 161.608 236.763 159.88 240.187 159.88C243.899 159.88 246.683 161.224 247.099 165.064H242.843C242.587 163.688 241.819 163.048 240.219 163.048C238.715 163.048 237.851 163.752 237.851 164.776C237.851 165.832 238.651 166.248 241.083 166.6C245.275 167.208 247.579 168.264 247.579 171.848C247.579 175.464 244.955 177.352 240.539 177.352ZM259.024 177V163.56H256.816V160.264H259.024V158.344C259.024 154.44 261.296 152.488 265.008 152.488C266 152.488 266.672 152.584 267.408 152.808V156.296C266.96 156.136 266.384 156.008 265.712 156.008C264.24 156.008 263.632 156.936 263.632 158.216V160.264H267.28V163.56H263.632V177H259.024ZM277.539 177.352C272.547 177.352 268.739 174.024 268.739 168.808V168.552C268.739 163.304 272.547 159.88 277.571 159.88C282.595 159.88 286.371 163.24 286.371 168.456V168.712C286.371 173.992 282.563 177.352 277.539 177.352ZM277.571 173.832C280.163 173.832 281.667 171.912 281.667 168.744V168.52C281.667 165.32 280.163 163.4 277.571 163.4C275.011 163.4 273.475 165.256 273.475 168.456V168.712C273.475 171.912 274.947 173.832 277.571 173.832ZM289.802 177V160.264H294.442V163.464C295.498 161.224 297.13 160.04 299.85 160.008V164.328C296.426 164.296 294.442 165.416 294.442 168.616V177H289.802ZM83.56 218.352C80.52 218.352 77.96 216.88 77.96 213.36C77.96 209.456 81.544 207.984 86.664 207.984H88.552V207.312C88.552 205.328 87.944 204.24 85.832 204.24C84.008 204.24 83.176 205.168 82.984 206.608H78.6C78.888 202.64 82.024 200.88 86.12 200.88C90.216 200.88 93.128 202.544 93.128 207.088V218H88.616V215.984C87.656 217.328 86.184 218.352 83.56 218.352ZM84.936 215.12C86.984 215.12 88.552 214 88.552 212.144V210.736H86.76C84.072 210.736 82.504 211.312 82.504 213.104C82.504 214.32 83.24 215.12 84.936 215.12ZM103.703 218.352C99.6385 218.352 96.4385 215.44 96.4385 209.872V209.616C96.4385 204.112 99.6065 200.88 103.799 200.88C106.486 200.88 108.151 202.064 109.079 203.76V193.68H113.687V218H109.079V215.216C108.215 216.912 106.167 218.352 103.703 218.352ZM105.078 214.736C107.51 214.736 109.207 213.104 109.207 209.712V209.456C109.207 206.128 107.734 204.432 105.207 204.432C102.615 204.432 101.174 206.192 101.174 209.52V209.776C101.174 213.104 102.774 214.736 105.078 214.736ZM123.693 218.352C120.429 218.352 117.997 216.432 117.997 212.048V201.264H122.605V211.408C122.605 213.68 123.533 214.768 125.517 214.768C127.469 214.768 129.005 213.552 129.005 211.088V201.264H133.614V218H129.005V215.376C128.141 217.072 126.445 218.352 123.693 218.352ZM138.167 218V193.68H142.775V218H138.167ZM153.44 218.32C149.92 218.32 148.032 216.528 148.032 213.04V204.56H145.888V201.264H148.032V197.648H152.64V201.264H156.16V204.56H152.64V212.624C152.64 213.968 153.312 214.608 154.496 214.608C155.2 214.608 155.712 214.512 156.256 214.288V217.872C155.616 218.096 154.688 218.32 153.44 218.32ZM174.9 218.352C169.908 218.352 166.1 215.024 166.1 209.808V209.552C166.1 204.304 169.908 200.88 174.932 200.88C179.956 200.88 183.732 204.24 183.732 209.456V209.712C183.732 214.992 179.924 218.352 174.9 218.352ZM174.932 214.832C177.524 214.832 179.028 212.912 179.028 209.744V209.52C179.028 206.32 177.524 204.4 174.932 204.4C172.372 204.4 170.836 206.256 170.836 209.456V209.712C170.836 212.912 172.308 214.832 174.932 214.832ZM187.163 218V201.264H191.803V204.464C192.859 202.224 194.491 201.04 197.211 201.008V205.328C193.787 205.296 191.803 206.416 191.803 209.616V218H187.163ZM215.575 218.352C210.679 218.352 206.967 215.312 206.967 209.84V209.584C206.967 204.176 210.839 200.88 215.607 200.88C219.479 200.88 223.063 202.576 223.479 207.376H219.095C218.775 205.424 217.591 204.528 215.703 204.528C213.303 204.528 211.703 206.32 211.703 209.52V209.776C211.703 213.136 213.207 214.864 215.799 214.864C217.655 214.864 219.159 213.776 219.383 211.632H223.575C223.319 215.6 220.439 218.352 215.575 218.352ZM226.81 218V193.68H231.45V203.92C232.282 202.256 234.106 200.88 236.89 200.88C240.186 200.88 242.522 202.864 242.522 207.344V218H237.882V208.016C237.882 205.744 236.986 204.656 234.938 204.656C232.954 204.656 231.45 205.872 231.45 208.336V218H226.81ZM249.218 198.992C247.746 198.992 246.594 197.904 246.594 196.464C246.594 195.024 247.746 193.936 249.218 193.936C250.722 193.936 251.874 195.024 251.874 196.464C251.874 197.904 250.722 198.992 249.218 198.992ZM246.946 218V201.264H251.554V218H246.946ZM256.266 218V193.68H260.874V218H256.266ZM271.699 218.352C267.635 218.352 264.435 215.44 264.435 209.872V209.616C264.435 204.112 267.603 200.88 271.795 200.88C274.483 200.88 276.147 202.064 277.075 203.76V193.68H281.683V218H277.075V215.216C276.211 216.912 274.163 218.352 271.699 218.352ZM273.075 214.736C275.507 214.736 277.203 213.104 277.203 209.712V209.456C277.203 206.128 275.731 204.432 273.203 204.432C270.611 204.432 269.171 206.192 269.171 209.52V209.776C269.171 213.104 270.771 214.736 273.075 214.736ZM298.208 222.736C295.552 219.6 292.864 214.832 292.864 207.984C292.864 201.136 295.552 196.368 298.208 193.232H302.016C299.616 196.592 297.376 201.328 297.376 207.984C297.376 214.64 299.616 219.344 302.016 222.736H298.208ZM314.488 218.352C308.472 218.352 305.048 215.152 305.048 209.072V195.12H310.264V208.752C310.264 212.56 311.384 214.224 314.52 214.224C317.592 214.224 318.936 212.752 318.936 208.56V195.12H324.152V208.88C324.152 215.12 320.664 218.352 314.488 218.352ZM329.956 218.288C328.356 218.288 327.108 217.04 327.108 215.472C327.108 213.936 328.356 212.688 329.956 212.688C331.588 212.688 332.836 213.936 332.836 215.472C332.836 217.04 331.588 218.288 329.956 218.288ZM345.005 218.352C338.733 218.352 335.853 215.408 335.565 210.832H340.525C340.749 212.88 341.613 214.576 345.005 214.576C347.277 214.576 348.781 213.328 348.781 211.536C348.781 209.712 347.821 209.072 344.461 208.56C338.605 207.792 336.205 206.032 336.205 201.616C336.205 197.712 339.469 194.8 344.525 194.8C349.677 194.8 352.685 197.104 353.101 201.648H348.333C348.013 199.568 346.797 198.608 344.525 198.608C342.253 198.608 341.101 199.664 341.101 201.2C341.101 202.832 341.837 203.6 345.357 204.112C350.893 204.816 353.741 206.32 353.741 211.056C353.741 215.12 350.413 218.352 345.005 218.352ZM359.283 218.288C357.683 218.288 356.435 217.04 356.435 215.472C356.435 213.936 357.683 212.688 359.283 212.688C360.915 212.688 362.163 213.936 362.163 215.472C362.163 217.04 360.915 218.288 359.283 218.288ZM364.786 222.672C367.154 219.312 369.394 214.576 369.394 207.92C369.394 201.264 367.154 196.56 364.786 193.168H368.594C371.218 196.304 373.906 201.04 373.906 207.92C373.906 214.768 371.218 219.536 368.594 222.672H364.786Z" fill="white"/>
<path d="M86.824 426.352C81.832 426.352 78.024 423.024 78.024 417.808V417.552C78.024 412.304 81.832 408.88 86.856 408.88C91.88 408.88 95.656 412.24 95.656 417.456V417.712C95.656 422.992 91.848 426.352 86.824 426.352ZM86.856 422.832C89.448 422.832 90.952 420.912 90.952 417.744V417.52C90.952 414.32 89.448 412.4 86.856 412.4C84.296 412.4 82.76 414.256 82.76 417.456V417.712C82.76 420.912 84.232 422.832 86.856 422.832ZM99.8547 426V412.56H97.6467V409.264H99.8547V407.344C99.8547 403.44 102.127 401.488 105.839 401.488C106.831 401.488 107.503 401.584 108.239 401.808V405.296C107.791 405.136 107.215 405.008 106.543 405.008C105.071 405.008 104.463 405.936 104.463 407.216V409.264H108.111V412.56H104.463V426H99.8547ZM118.695 431.696V409.264H123.335V411.888C124.263 410.288 126.215 408.88 128.679 408.88C132.775 408.88 135.976 411.92 135.976 417.456V417.712C135.976 423.248 132.84 426.352 128.679 426.352C126.087 426.352 124.199 425.072 123.335 423.44V431.696H118.695ZM127.303 422.736C129.863 422.736 131.271 421.008 131.271 417.744V417.488C131.271 414.096 129.608 412.432 127.271 412.432C124.839 412.432 123.175 414.128 123.175 417.488V417.744C123.175 421.104 124.775 422.736 127.303 422.736ZM147.166 426.352C142.174 426.352 138.366 423.024 138.366 417.808V417.552C138.366 412.304 142.174 408.88 147.198 408.88C152.222 408.88 155.998 412.24 155.998 417.456V417.712C155.998 422.992 152.19 426.352 147.166 426.352ZM147.198 422.832C149.79 422.832 151.294 420.912 151.294 417.744V417.52C151.294 414.32 149.79 412.4 147.198 412.4C144.638 412.4 143.102 414.256 143.102 417.456V417.712C143.102 420.912 144.574 422.832 147.198 422.832ZM165.572 426.352C161.06 426.352 158.436 424.368 158.276 420.752H162.596C162.788 422.256 163.524 423.12 165.54 423.12C167.332 423.12 168.164 422.448 168.164 421.296C168.164 420.144 167.172 419.664 164.772 419.312C160.324 418.64 158.596 417.36 158.596 414.096C158.596 410.608 161.796 408.88 165.22 408.88C168.932 408.88 171.716 410.224 172.132 414.064H167.876C167.62 412.688 166.852 412.048 165.252 412.048C163.748 412.048 162.884 412.752 162.884 413.776C162.884 414.832 163.684 415.248 166.116 415.6C170.308 416.208 172.612 417.264 172.612 420.848C172.612 424.464 169.988 426.352 165.572 426.352ZM178.274 406.992C176.802 406.992 175.65 405.904 175.65 404.464C175.65 403.024 176.802 401.936 178.274 401.936C179.778 401.936 180.93 403.024 180.93 404.464C180.93 405.904 179.778 406.992 178.274 406.992ZM176.002 426V409.264H180.61V426H176.002ZM191.306 426.32C187.786 426.32 185.898 424.528 185.898 421.04V412.56H183.754V409.264H185.898V405.648H190.506V409.264H194.026V412.56H190.506V420.624C190.506 421.968 191.178 422.608 192.362 422.608C193.066 422.608 193.578 422.512 194.122 422.288V425.872C193.482 426.096 192.554 426.32 191.306 426.32ZM199.977 406.992C198.505 406.992 197.353 405.904 197.353 404.464C197.353 403.024 198.505 401.936 199.977 401.936C201.481 401.936 202.633 403.024 202.633 404.464C202.633 405.904 201.481 406.992 199.977 406.992ZM197.705 426V409.264H202.313V426H197.705ZM211.409 426L205.297 409.264H210.257L214.257 421.232L218.225 409.264H222.705L216.625 426H211.409ZM232.491 426.352C227.435 426.352 223.755 423.184 223.755 417.84V417.584C223.755 412.304 227.499 408.88 232.363 408.88C236.683 408.88 240.523 411.408 240.523 417.392V418.672H228.459C228.587 421.456 230.091 423.056 232.619 423.056C234.763 423.056 235.819 422.128 236.107 420.72H240.491C239.947 424.336 237.067 426.352 232.491 426.352ZM228.523 415.824H236.011C235.851 413.296 234.571 412.08 232.363 412.08C230.283 412.08 228.875 413.456 228.523 415.824ZM255.806 426.352C252.766 426.352 250.206 424.88 250.206 421.36C250.206 417.456 253.79 415.984 258.91 415.984H260.798V415.312C260.798 413.328 260.19 412.24 258.078 412.24C256.254 412.24 255.422 413.168 255.23 414.608H250.846C251.134 410.64 254.27 408.88 258.366 408.88C262.462 408.88 265.374 410.544 265.374 415.088V426H260.862V423.984C259.902 425.328 258.43 426.352 255.806 426.352ZM257.182 423.12C259.23 423.12 260.798 422 260.798 420.144V418.736H259.006C256.318 418.736 254.75 419.312 254.75 421.104C254.75 422.32 255.486 423.12 257.182 423.12ZM277.261 426.352C272.365 426.352 268.653 423.312 268.653 417.84V417.584C268.653 412.176 272.525 408.88 277.293 408.88C281.165 408.88 284.749 410.576 285.165 415.376H280.781C280.461 413.424 279.277 412.528 277.389 412.528C274.989 412.528 273.389 414.32 273.389 417.52V417.776C273.389 421.136 274.893 422.864 277.485 422.864C279.341 422.864 280.845 421.776 281.069 419.632H285.261C285.005 423.6 282.125 426.352 277.261 426.352ZM294.609 426.32C291.089 426.32 289.201 424.528 289.201 421.04V412.56H287.057V409.264H289.201V405.648H293.809V409.264H297.329V412.56H293.809V420.624C293.809 421.968 294.481 422.608 295.665 422.608C296.369 422.608 296.881 422.512 297.425 422.288V425.872C296.785 426.096 295.857 426.32 294.609 426.32ZM303.279 406.992C301.807 406.992 300.655 405.904 300.655 404.464C300.655 403.024 301.807 401.936 303.279 401.936C304.783 401.936 305.935 403.024 305.935 404.464C305.935 405.904 304.783 406.992 303.279 406.992ZM301.007 426V409.264H305.615V426H301.007ZM314.711 426L308.599 409.264H313.559L317.559 421.232L321.527 409.264H326.007L319.927 426H314.711ZM331.232 406.992C329.76 406.992 328.608 405.904 328.608 404.464C328.608 403.024 329.76 401.936 331.232 401.936C332.736 401.936 333.888 403.024 333.888 404.464C333.888 405.904 332.736 406.992 331.232 406.992ZM328.96 426V409.264H333.568V426H328.96ZM344.264 426.32C340.744 426.32 338.856 424.528 338.856 421.04V412.56H336.712V409.264H338.856V405.648H343.464V409.264H346.984V412.56H343.464V420.624C343.464 421.968 344.136 422.608 345.32 422.608C346.024 422.608 346.536 422.512 347.08 422.288V425.872C346.44 426.096 345.512 426.32 344.264 426.32ZM352.934 406.992C351.462 406.992 350.31 405.904 350.31 404.464C350.31 403.024 351.462 401.936 352.934 401.936C354.438 401.936 355.59 403.024 355.59 404.464C355.59 405.904 354.438 406.992 352.934 406.992ZM350.662 426V409.264H355.27V426H350.662ZM367.566 426.352C362.51 426.352 358.83 423.184 358.83 417.84V417.584C358.83 412.304 362.574 408.88 367.438 408.88C371.758 408.88 375.598 411.408 375.598 417.392V418.672H363.534C363.662 421.456 365.166 423.056 367.694 423.056C369.838 423.056 370.894 422.128 371.182 420.72H375.566C375.022 424.336 372.142 426.352 367.566 426.352ZM363.598 415.824H371.086C370.926 413.296 369.646 412.08 367.438 412.08C365.358 412.08 363.95 413.456 363.598 415.824ZM385.192 426.352C380.68 426.352 378.056 424.368 377.896 420.752H382.216C382.408 422.256 383.144 423.12 385.16 423.12C386.952 423.12 387.784 422.448 387.784 421.296C387.784 420.144 386.792 419.664 384.392 419.312C379.944 418.64 378.216 417.36 378.216 414.096C378.216 410.608 381.416 408.88 384.84 408.88C388.552 408.88 391.336 410.224 391.752 414.064H387.496C387.24 412.688 386.472 412.048 384.872 412.048C383.368 412.048 382.504 412.752 382.504 413.776C382.504 414.832 383.304 415.248 385.736 415.6C389.928 416.208 392.232 417.264 392.232 420.848C392.232 424.464 389.608 426.352 385.192 426.352ZM83.56 467.352C80.52 467.352 77.96 465.88 77.96 462.36C77.96 458.456 81.544 456.984 86.664 456.984H88.552V456.312C88.552 454.328 87.944 453.24 85.832 453.24C84.008 453.24 83.176 454.168 82.984 455.608H78.6C78.888 451.64 82.024 449.88 86.12 449.88C90.216 449.88 93.128 451.544 93.128 456.088V467H88.616V464.984C87.656 466.328 86.184 467.352 83.56 467.352ZM84.936 464.12C86.984 464.12 88.552 463 88.552 461.144V459.736H86.76C84.072 459.736 82.504 460.312 82.504 462.104C82.504 463.32 83.24 464.12 84.936 464.12ZM97.4305 467V450.264H102.07V453.464C103.127 451.224 104.759 450.04 107.479 450.008V454.328C104.055 454.296 102.07 455.416 102.07 458.616V467H97.4305ZM118.275 467.352C113.219 467.352 109.539 464.184 109.539 458.84V458.584C109.539 453.304 113.283 449.88 118.147 449.88C122.467 449.88 126.307 452.408 126.307 458.392V459.672H114.243C114.371 462.456 115.875 464.056 118.403 464.056C120.547 464.056 121.603 463.128 121.891 461.72H126.275C125.731 465.336 122.851 467.352 118.275 467.352ZM114.307 456.824H121.795C121.635 454.296 120.355 453.08 118.147 453.08C116.067 453.08 114.659 454.456 114.307 456.824ZM137.078 467V450.264H141.718V453.464C142.774 451.224 144.406 450.04 147.126 450.008V454.328C143.702 454.296 141.718 455.416 141.718 458.616V467H137.078ZM157.922 467.352C152.866 467.352 149.186 464.184 149.186 458.84V458.584C149.186 453.304 152.93 449.88 157.794 449.88C162.114 449.88 165.955 452.408 165.955 458.392V459.672H153.89C154.018 462.456 155.522 464.056 158.05 464.056C160.194 464.056 161.25 463.128 161.538 461.72H165.922C165.378 465.336 162.498 467.352 157.922 467.352ZM153.954 456.824H161.442C161.282 454.296 160.002 453.08 157.794 453.08C155.714 453.08 154.306 454.456 153.954 456.824ZM175.584 467.352C171.52 467.352 168.32 464.44 168.32 458.872V458.616C168.32 453.112 171.488 449.88 175.68 449.88C178.368 449.88 180.032 451.064 180.96 452.76V442.68H185.568V467H180.96V464.216C180.096 465.912 178.048 467.352 175.584 467.352ZM176.96 463.736C179.392 463.736 181.088 462.104 181.088 458.712V458.456C181.088 455.128 179.616 453.432 177.088 453.432C174.496 453.432 173.056 455.192 173.056 458.52V458.776C173.056 462.104 174.656 463.736 176.96 463.736ZM195.575 467.352C192.311 467.352 189.879 465.432 189.879 461.048V450.264H194.487V460.408C194.487 462.68 195.415 463.768 197.399 463.768C199.351 463.768 200.887 462.552 200.887 460.088V450.264H205.495V467H200.887V464.376C200.023 466.072 198.327 467.352 195.575 467.352ZM217.504 467.352C212.608 467.352 208.896 464.312 208.896 458.84V458.584C208.896 453.176 212.768 449.88 217.536 449.88C221.408 449.88 224.992 451.576 225.408 456.376H221.024C220.704 454.424 219.52 453.528 217.632 453.528C215.232 453.528 213.632 455.32 213.632 458.52V458.776C213.632 462.136 215.136 463.864 217.728 463.864C219.584 463.864 221.088 462.776 221.312 460.632H225.504C225.248 464.6 222.368 467.352 217.504 467.352ZM236.453 467.352C231.397 467.352 227.717 464.184 227.717 458.84V458.584C227.717 453.304 231.461 449.88 236.325 449.88C240.645 449.88 244.485 452.408 244.485 458.392V459.672H232.421C232.549 462.456 234.053 464.056 236.581 464.056C238.725 464.056 239.781 463.128 240.069 461.72H244.453C243.909 465.336 241.029 467.352 236.453 467.352ZM232.485 456.824H239.973C239.813 454.296 238.533 453.08 236.325 453.08C234.245 453.08 232.837 454.456 232.485 456.824ZM254.114 467.352C250.05 467.352 246.85 464.44 246.85 458.872V458.616C246.85 453.112 250.018 449.88 254.21 449.88C256.898 449.88 258.562 451.064 259.49 452.76V442.68H264.098V467H259.49V464.216C258.626 465.912 256.578 467.352 254.114 467.352ZM255.49 463.736C257.922 463.736 259.618 462.104 259.618 458.712V458.456C259.618 455.128 258.146 453.432 255.618 453.432C253.026 453.432 251.586 455.192 251.586 458.52V458.776C251.586 462.104 253.186 463.736 255.49 463.736Z" fill="white"/>
<path d="M464.464 177V154.12H471.952C479.984 154.12 483.952 158.472 483.952 165.32V165.576C483.952 172.424 479.952 177 471.92 177H464.464ZM469.648 172.968H471.76C476.368 172.968 478.544 170.376 478.544 165.64V165.384C478.544 160.68 476.528 158.152 471.696 158.152H469.648V172.968ZM495.299 177.352C490.243 177.352 486.563 174.184 486.563 168.84V168.584C486.563 163.304 490.307 159.88 495.171 159.88C499.491 159.88 503.331 162.408 503.331 168.392V169.672H491.267C491.395 172.456 492.899 174.056 495.427 174.056C497.571 174.056 498.627 173.128 498.915 171.72H503.299C502.755 175.336 499.875 177.352 495.299 177.352ZM491.331 166.824H498.819C498.659 164.296 497.379 163.08 495.171 163.08C493.091 163.08 491.683 164.456 491.331 166.824ZM512.924 177.352C508.412 177.352 505.788 175.368 505.628 171.752H509.948C510.14 173.256 510.876 174.12 512.892 174.12C514.684 174.12 515.516 173.448 515.516 172.296C515.516 171.144 514.524 170.664 512.124 170.312C507.676 169.64 505.948 168.36 505.948 165.096C505.948 161.608 509.148 159.88 512.572 159.88C516.284 159.88 519.068 161.224 519.484 165.064H515.228C514.972 163.688 514.204 163.048 512.604 163.048C511.1 163.048 510.236 163.752 510.236 164.776C510.236 165.832 511.036 166.248 513.468 166.6C517.66 167.208 519.964 168.264 519.964 171.848C519.964 175.464 517.34 177.352 512.924 177.352ZM525.627 157.992C524.155 157.992 523.003 156.904 523.003 155.464C523.003 154.024 524.155 152.936 525.627 152.936C527.131 152.936 528.283 154.024 528.283 155.464C528.283 156.904 527.131 157.992 525.627 157.992ZM523.355 177V160.264H527.963V177H523.355ZM532.547 177V160.264H537.187V163.464C538.243 161.224 539.875 160.04 542.595 160.008V164.328C539.171 164.296 537.187 165.416 537.187 168.616V177H532.547ZM553.391 177.352C548.335 177.352 544.655 174.184 544.655 168.84V168.584C544.655 163.304 548.399 159.88 553.263 159.88C557.583 159.88 561.423 162.408 561.423 168.392V169.672H549.359C549.487 172.456 550.991 174.056 553.519 174.056C555.663 174.056 556.719 173.128 557.007 171.72H561.391C560.847 175.336 557.967 177.352 553.391 177.352ZM549.423 166.824H556.911C556.751 164.296 555.471 163.08 553.263 163.08C551.183 163.08 549.775 164.456 549.423 166.824ZM572.61 177V154.12H577.794V163.464H586.978V154.12H592.162V177H586.978V167.56H577.794V177H572.61ZM604.539 177.352C599.483 177.352 595.803 174.184 595.803 168.84V168.584C595.803 163.304 599.547 159.88 604.411 159.88C608.731 159.88 612.571 162.408 612.571 168.392V169.672H600.507C600.635 172.456 602.139 174.056 604.667 174.056C606.811 174.056 607.867 173.128 608.155 171.72H612.539C611.995 175.336 609.115 177.352 604.539 177.352ZM600.571 166.824H608.059C607.899 164.296 606.619 163.08 604.411 163.08C602.331 163.08 600.923 164.456 600.571 166.824ZM620.596 177.352C617.556 177.352 614.996 175.88 614.996 172.36C614.996 168.456 618.58 166.984 623.7 166.984H625.588V166.312C625.588 164.328 624.98 163.24 622.868 163.24C621.044 163.24 620.212 164.168 620.02 165.608H615.636C615.924 161.64 619.06 159.88 623.156 159.88C627.252 159.88 630.164 161.544 630.164 166.088V177H625.652V174.984C624.692 176.328 623.22 177.352 620.596 177.352ZM621.972 174.12C624.02 174.12 625.588 173 625.588 171.144V169.736H623.796C621.108 169.736 619.54 170.312 619.54 172.104C619.54 173.32 620.276 174.12 621.972 174.12ZM634.595 177V152.68H639.203V177H634.595ZM649.868 177.32C646.348 177.32 644.46 175.528 644.46 172.04V163.56H642.316V160.264H644.46V156.648H649.068V160.264H652.588V163.56H649.068V171.624C649.068 172.968 649.74 173.608 650.924 173.608C651.628 173.608 652.14 173.512 652.684 173.288V176.872C652.044 177.096 651.116 177.32 649.868 177.32ZM656.138 177V152.68H660.778V162.92C661.61 161.256 663.434 159.88 666.218 159.88C669.514 159.88 671.85 161.864 671.85 166.344V177H667.21V167.016C667.21 164.744 666.314 163.656 664.266 163.656C662.282 163.656 660.778 164.872 660.778 167.336V177H656.138ZM683.975 177V154.12H691.463C699.495 154.12 703.463 158.472 703.463 165.32V165.576C703.463 172.424 699.463 177 691.431 177H683.975ZM689.159 172.968H691.271C695.879 172.968 698.055 170.376 698.055 165.64V165.384C698.055 160.68 696.039 158.152 691.207 158.152H689.159V172.968ZM711.548 177.352C708.508 177.352 705.948 175.88 705.948 172.36C705.948 168.456 709.532 166.984 714.652 166.984H716.54V166.312C716.54 164.328 715.932 163.24 713.82 163.24C711.996 163.24 711.164 164.168 710.972 165.608H706.588C706.876 161.64 710.012 159.88 714.108 159.88C718.204 159.88 721.116 161.544 721.116 166.088V177H716.604V174.984C715.644 176.328 714.172 177.352 711.548 177.352ZM712.924 174.12C714.972 174.12 716.54 173 716.54 171.144V169.736H714.748C712.06 169.736 710.492 170.312 710.492 172.104C710.492 173.32 711.228 174.12 712.924 174.12ZM731.467 177.32C727.947 177.32 726.059 175.528 726.059 172.04V163.56H723.915V160.264H726.059V156.648H730.667V160.264H734.187V163.56H730.667V171.624C730.667 172.968 731.339 173.608 732.523 173.608C733.227 173.608 733.739 173.512 734.283 173.288V176.872C733.643 177.096 732.715 177.32 731.467 177.32ZM742.344 177.352C739.304 177.352 736.744 175.88 736.744 172.36C736.744 168.456 740.328 166.984 745.448 166.984H747.336V166.312C747.336 164.328 746.728 163.24 744.616 163.24C742.792 163.24 741.96 164.168 741.768 165.608H737.384C737.672 161.64 740.808 159.88 744.904 159.88C749 159.88 751.912 161.544 751.912 166.088V177H747.4V174.984C746.44 176.328 744.968 177.352 742.344 177.352ZM743.72 174.12C745.768 174.12 747.336 173 747.336 171.144V169.736H745.544C742.856 169.736 741.288 170.312 741.288 172.104C741.288 173.32 742.024 174.12 743.72 174.12ZM468.944 218V199.152H462.768V195.12H480.336V199.152H474.16V218H468.944ZM483.462 218V193.68H488.102V203.92C488.934 202.256 490.758 200.88 493.542 200.88C496.838 200.88 499.174 202.864 499.174 207.344V218H494.534V208.016C494.534 205.744 493.638 204.656 491.59 204.656C489.606 204.656 488.102 205.872 488.102 208.336V218H483.462ZM503.469 218V201.264H508.109V204.464C509.165 202.224 510.797 201.04 513.517 201.008V205.328C510.093 205.296 508.109 206.416 508.109 209.616V218H503.469ZM524.378 218.352C519.386 218.352 515.578 215.024 515.578 209.808V209.552C515.578 204.304 519.386 200.88 524.41 200.88C529.434 200.88 533.21 204.24 533.21 209.456V209.712C533.21 214.992 529.402 218.352 524.378 218.352ZM524.41 214.832C527.002 214.832 528.506 212.912 528.506 209.744V209.52C528.506 206.32 527.002 204.4 524.41 204.4C521.85 204.4 520.314 206.256 520.314 209.456V209.712C520.314 212.912 521.786 214.832 524.41 214.832ZM542.208 218.352C538.944 218.352 536.512 216.432 536.512 212.048V201.264H541.12V211.408C541.12 213.68 542.048 214.768 544.032 214.768C545.984 214.768 547.52 213.552 547.52 211.088V201.264H552.128V218H547.52V215.376C546.656 217.072 544.96 218.352 542.208 218.352ZM563.978 224.176C558.57 224.176 556.106 221.808 555.658 218.352H560.266C560.554 219.824 561.61 220.784 563.978 220.784C566.794 220.784 568.202 219.312 568.202 216.688V214.16C567.274 215.792 565.29 217.264 562.826 217.264C558.762 217.264 555.53 214.224 555.53 209.264V209.04C555.53 204.24 558.73 200.88 562.89 200.88C565.61 200.88 567.242 202.064 568.202 203.76V201.264H572.81V216.688C572.778 221.648 569.482 224.176 563.978 224.176ZM564.202 213.776C566.634 213.776 568.33 212.048 568.33 209.2V208.976C568.33 206.128 566.826 204.4 564.298 204.4C561.706 204.4 560.266 206.256 560.266 209.008V209.264C560.266 212.048 561.898 213.776 564.202 213.776ZM577.218 218V193.68H581.858V203.92C582.69 202.256 584.514 200.88 587.298 200.88C590.594 200.88 592.93 202.864 592.93 207.344V218H588.29V208.016C588.29 205.744 587.394 204.656 585.346 204.656C583.362 204.656 581.858 205.872 581.858 208.336V218H577.218ZM603.263 218L610.783 195.12H617.535L624.959 218H619.551L617.983 212.912H609.695L608.127 218H603.263ZM613.855 199.344L610.815 209.232H616.863L613.855 199.344ZM627.991 223.696V201.264H632.631V203.888C633.559 202.288 635.511 200.88 637.975 200.88C642.071 200.88 645.271 203.92 645.271 209.456V209.712C645.271 215.248 642.135 218.352 637.975 218.352C635.383 218.352 633.495 217.072 632.631 215.44V223.696H627.991ZM636.599 214.736C639.159 214.736 640.567 213.008 640.567 209.744V209.488C640.567 206.096 638.903 204.432 636.567 204.432C634.135 204.432 632.471 206.128 632.471 209.488V209.744C632.471 213.104 634.071 214.736 636.599 214.736ZM648.685 223.696V201.264H653.325V203.888C654.253 202.288 656.205 200.88 658.669 200.88C662.765 200.88 665.965 203.92 665.965 209.456V209.712C665.965 215.248 662.829 218.352 658.669 218.352C656.077 218.352 654.189 217.072 653.325 215.44V223.696H648.685ZM657.293 214.736C659.853 214.736 661.261 213.008 661.261 209.744V209.488C661.261 206.096 659.597 204.432 657.261 204.432C654.829 204.432 653.165 206.128 653.165 209.488V209.744C653.165 213.104 654.765 214.736 657.293 214.736ZM675.523 218.352C671.011 218.352 668.387 216.368 668.227 212.752H672.547C672.739 214.256 673.475 215.12 675.491 215.12C677.283 215.12 678.115 214.448 678.115 213.296C678.115 212.144 677.123 211.664 674.723 211.312C670.275 210.64 668.547 209.36 668.547 206.096C668.547 202.608 671.747 200.88 675.171 200.88C678.883 200.88 681.667 202.224 682.083 206.064H677.827C677.571 204.688 676.803 204.048 675.203 204.048C673.699 204.048 672.835 204.752 672.835 205.776C672.835 206.832 673.635 207.248 676.067 207.6C680.259 208.208 682.563 209.264 682.563 212.848C682.563 216.464 679.939 218.352 675.523 218.352Z" fill="white"/>
<path d="M471.824 426.352C466.832 426.352 463.024 423.024 463.024 417.808V417.552C463.024 412.304 466.832 408.88 471.856 408.88C476.88 408.88 480.656 412.24 480.656 417.456V417.712C480.656 422.992 476.848 426.352 471.824 426.352ZM471.856 422.832C474.448 422.832 475.952 420.912 475.952 417.744V417.52C475.952 414.32 474.448 412.4 471.856 412.4C469.296 412.4 467.76 414.256 467.76 417.456V417.712C467.76 420.912 469.232 422.832 471.856 422.832ZM484.855 426V412.56H482.647V409.264H484.855V407.344C484.855 403.44 487.127 401.488 490.839 401.488C491.831 401.488 492.503 401.584 493.239 401.808V405.296C492.791 405.136 492.215 405.008 491.543 405.008C490.071 405.008 489.463 405.936 489.463 407.216V409.264H493.111V412.56H489.463V426H484.855ZM514.415 426.352C506.927 426.352 502.927 421.744 502.927 414.704V414.448C502.927 407.504 507.791 402.768 514.287 402.768C519.792 402.768 523.888 405.456 524.431 411.088H519.119C518.736 408.336 517.2 406.864 514.319 406.864C510.703 406.864 508.399 409.68 508.399 414.416V414.672C508.399 419.408 510.575 422.16 514.351 422.16C517.2 422.16 519.184 420.72 519.6 417.776H524.688C524.111 423.44 520.048 426.352 514.415 426.352ZM532.652 426.352C529.612 426.352 527.052 424.88 527.052 421.36C527.052 417.456 530.636 415.984 535.756 415.984H537.644V415.312C537.644 413.328 537.036 412.24 534.924 412.24C533.1 412.24 532.268 413.168 532.076 414.608H527.692C527.98 410.64 531.116 408.88 535.212 408.88C539.308 408.88 542.22 410.544 542.22 415.088V426H537.708V423.984C536.748 425.328 535.276 426.352 532.652 426.352ZM534.028 423.12C536.076 423.12 537.644 422 537.644 420.144V418.736H535.852C533.164 418.736 531.596 419.312 531.596 421.104C531.596 422.32 532.332 423.12 534.028 423.12ZM546.523 426V409.264H551.163V412.464C552.219 410.224 553.851 409.04 556.571 409.008V413.328C553.147 413.296 551.163 414.416 551.163 417.616V426H546.523ZM567.367 426.352C562.311 426.352 558.631 423.184 558.631 417.84V417.584C558.631 412.304 562.375 408.88 567.239 408.88C571.559 408.88 575.399 411.408 575.399 417.392V418.672H563.335C563.463 421.456 564.967 423.056 567.495 423.056C569.639 423.056 570.695 422.128 570.983 420.72H575.367C574.823 424.336 571.943 426.352 567.367 426.352ZM563.399 415.824H570.887C570.727 413.296 569.447 412.08 567.239 412.08C565.159 412.08 563.751 413.456 563.399 415.824ZM586.181 432.176C580.773 432.176 578.309 429.808 577.861 426.352H582.469C582.757 427.824 583.813 428.784 586.181 428.784C588.997 428.784 590.405 427.312 590.405 424.688V422.16C589.477 423.792 587.493 425.264 585.029 425.264C580.965 425.264 577.733 422.224 577.733 417.264V417.04C577.733 412.24 580.933 408.88 585.093 408.88C587.813 408.88 589.445 410.064 590.405 411.76V409.264H595.013V424.688C594.981 429.648 591.685 432.176 586.181 432.176ZM586.405 421.776C588.837 421.776 590.533 420.048 590.533 417.2V416.976C590.533 414.128 589.029 412.4 586.501 412.4C583.909 412.4 582.469 414.256 582.469 417.008V417.264C582.469 420.048 584.101 421.776 586.405 421.776ZM601.82 406.992C600.348 406.992 599.196 405.904 599.196 404.464C599.196 403.024 600.348 401.936 601.82 401.936C603.324 401.936 604.476 403.024 604.476 404.464C604.476 405.904 603.324 406.992 601.82 406.992ZM599.548 426V409.264H604.156V426H599.548ZM613.253 426L607.141 409.264H612.101L616.101 421.232L620.069 409.264H624.549L618.469 426H613.253ZM634.335 426.352C629.279 426.352 625.599 423.184 625.599 417.84V417.584C625.599 412.304 629.343 408.88 634.207 408.88C638.527 408.88 642.367 411.408 642.367 417.392V418.672H630.303C630.431 421.456 631.935 423.056 634.463 423.056C636.607 423.056 637.663 422.128 637.951 420.72H642.335C641.791 424.336 638.911 426.352 634.335 426.352ZM630.367 415.824H637.855C637.695 413.296 636.415 412.08 634.207 412.08C632.127 412.08 630.719 413.456 630.367 415.824ZM645.724 426V409.264H650.364V412.464C651.42 410.224 653.052 409.04 655.772 409.008V413.328C652.348 413.296 650.364 414.416 650.364 417.616V426H645.724ZM665.187 426.352C660.675 426.352 658.051 424.368 657.891 420.752H662.211C662.403 422.256 663.139 423.12 665.155 423.12C666.947 423.12 667.779 422.448 667.779 421.296C667.779 420.144 666.787 419.664 664.387 419.312C659.939 418.64 658.211 417.36 658.211 414.096C658.211 410.608 661.411 408.88 664.835 408.88C668.547 408.88 671.331 410.224 671.747 414.064H667.491C667.235 412.688 666.467 412.048 664.867 412.048C663.363 412.048 662.499 412.752 662.499 413.776C662.499 414.832 663.299 415.248 665.731 415.6C669.923 416.208 672.227 417.264 672.227 420.848C672.227 424.464 669.603 426.352 665.187 426.352ZM468.56 467.352C465.52 467.352 462.96 465.88 462.96 462.36C462.96 458.456 466.544 456.984 471.664 456.984H473.552V456.312C473.552 454.328 472.944 453.24 470.832 453.24C469.008 453.24 468.176 454.168 467.984 455.608H463.6C463.888 451.64 467.024 449.88 471.12 449.88C475.216 449.88 478.128 451.544 478.128 456.088V467H473.616V464.984C472.656 466.328 471.184 467.352 468.56 467.352ZM469.936 464.12C471.984 464.12 473.552 463 473.552 461.144V459.736H471.76C469.072 459.736 467.504 460.312 467.504 462.104C467.504 463.32 468.24 464.12 469.936 464.12ZM482.43 467V450.264H487.07V453.464C488.127 451.224 489.759 450.04 492.479 450.008V454.328C489.055 454.296 487.07 455.416 487.07 458.616V467H482.43ZM503.275 467.352C498.219 467.352 494.539 464.184 494.539 458.84V458.584C494.539 453.304 498.283 449.88 503.147 449.88C507.467 449.88 511.307 452.408 511.307 458.392V459.672H499.243C499.371 462.456 500.875 464.056 503.403 464.056C505.547 464.056 506.603 463.128 506.891 461.72H511.275C510.731 465.336 507.851 467.352 503.275 467.352ZM499.307 456.824H506.795C506.635 454.296 505.355 453.08 503.147 453.08C501.067 453.08 499.659 454.456 499.307 456.824ZM522.494 467V444.12H537.182V448.184H527.678V454.232H535.198V458.136H527.678V467H522.494ZM547.422 467.352C542.366 467.352 538.686 464.184 538.686 458.84V458.584C538.686 453.304 542.43 449.88 547.294 449.88C551.614 449.88 555.455 452.408 555.455 458.392V459.672H543.39C543.518 462.456 545.022 464.056 547.55 464.056C549.694 464.056 550.75 463.128 551.038 461.72H555.422C554.878 465.336 551.998 467.352 547.422 467.352ZM543.454 456.824H550.942C550.782 454.296 549.502 453.08 547.294 453.08C545.214 453.08 543.806 454.456 543.454 456.824ZM558.812 467V450.264H563.452V452.824C564.284 451.256 566.076 449.88 568.572 449.88C570.78 449.88 572.444 450.808 573.244 452.792C574.588 450.776 576.764 449.88 578.876 449.88C581.98 449.88 584.38 451.832 584.38 456.28V467H579.772V456.792C579.772 454.648 578.812 453.688 577.148 453.688C575.356 453.688 573.916 454.84 573.916 457.112V467H569.308V456.792C569.308 454.648 568.316 453.688 566.684 453.688C564.892 453.688 563.452 454.84 563.452 457.112V467H558.812ZM593.175 467.352C590.135 467.352 587.575 465.88 587.575 462.36C587.575 458.456 591.159 456.984 596.279 456.984H598.167V456.312C598.167 454.328 597.559 453.24 595.447 453.24C593.623 453.24 592.791 454.168 592.599 455.608H588.215C588.503 451.64 591.639 449.88 595.735 449.88C599.831 449.88 602.743 451.544 602.743 456.088V467H598.231V464.984C597.271 466.328 595.799 467.352 593.175 467.352ZM594.551 464.12C596.599 464.12 598.167 463 598.167 461.144V459.736H596.375C593.687 459.736 592.119 460.312 592.119 462.104C592.119 463.32 592.855 464.12 594.551 464.12ZM607.173 467V442.68H611.781V467H607.173ZM624.046 467.352C618.99 467.352 615.31 464.184 615.31 458.84V458.584C615.31 453.304 619.054 449.88 623.918 449.88C628.238 449.88 632.078 452.408 632.078 458.392V459.672H620.014C620.142 462.456 621.646 464.056 624.174 464.056C626.318 464.056 627.374 463.128 627.662 461.72H632.046C631.502 465.336 628.622 467.352 624.046 467.352ZM620.078 456.824H627.566C627.406 454.296 626.126 453.08 623.918 453.08C621.838 453.08 620.43 454.456 620.078 456.824Z" fill="white"/>
<path d="M82.592 674V651.12H87.808V674H82.592ZM92.7742 674V657.264H97.4142V659.92C98.2463 658.256 100.07 656.88 102.854 656.88C106.15 656.88 108.486 658.864 108.486 663.344V674H103.846V664.016C103.846 661.744 102.95 660.656 100.902 660.656C98.9183 660.656 97.4142 661.872 97.4142 664.336V674H92.7742ZM120.611 674V651.12H127.459L132.804 665.36L138.083 651.12H144.804V674H139.652V657.936L133.316 674H131.62L125.251 657.936V674H120.611ZM157.259 674.352C152.203 674.352 148.523 671.184 148.523 665.84V665.584C148.523 660.304 152.267 656.88 157.131 656.88C161.451 656.88 165.291 659.408 165.291 665.392V666.672H153.227C153.355 669.456 154.859 671.056 157.387 671.056C159.531 671.056 160.587 670.128 160.875 668.72H165.259C164.715 672.336 161.835 674.352 157.259 674.352ZM153.291 663.824H160.779C160.619 661.296 159.339 660.08 157.131 660.08C155.051 660.08 153.643 661.456 153.291 663.824ZM174.92 674.352C170.856 674.352 167.656 671.44 167.656 665.872V665.616C167.656 660.112 170.824 656.88 175.016 656.88C177.704 656.88 179.368 658.064 180.296 659.76V649.68H184.904V674H180.296V671.216C179.432 672.912 177.384 674.352 174.92 674.352ZM176.296 670.736C178.728 670.736 180.424 669.104 180.424 665.712V665.456C180.424 662.128 178.952 660.432 176.424 660.432C173.832 660.432 172.392 662.192 172.392 665.52V665.776C172.392 669.104 173.992 670.736 176.296 670.736ZM191.743 654.992C190.271 654.992 189.119 653.904 189.119 652.464C189.119 651.024 190.271 649.936 191.743 649.936C193.247 649.936 194.399 651.024 194.399 652.464C194.399 653.904 193.247 654.992 191.743 654.992ZM189.471 674V657.264H194.079V674H189.471ZM204.231 674.352C200.967 674.352 198.535 672.432 198.535 668.048V657.264H203.143V667.408C203.143 669.68 204.071 670.768 206.055 670.768C208.007 670.768 209.543 669.552 209.543 667.088V657.264H214.151V674H209.543V671.376C208.679 673.072 206.983 674.352 204.231 674.352ZM218.577 674V657.264H223.217V659.824C224.049 658.256 225.841 656.88 228.337 656.88C230.545 656.88 232.209 657.808 233.009 659.792C234.353 657.776 236.529 656.88 238.641 656.88C241.745 656.88 244.145 658.832 244.145 663.28V674H239.537V663.792C239.537 661.648 238.577 660.688 236.913 660.688C235.121 660.688 233.681 661.84 233.681 664.112V674H229.073V663.792C229.073 661.648 228.081 660.688 226.449 660.688C224.657 660.688 223.217 661.84 223.217 664.112V674H218.577ZM261.954 674.32C258.434 674.32 256.546 672.528 256.546 669.04V660.56H254.402V657.264H256.546V653.648H261.154V657.264H264.674V660.56H261.154V668.624C261.154 669.968 261.826 670.608 263.01 670.608C263.714 670.608 264.226 670.512 264.77 670.288V673.872C264.13 674.096 263.202 674.32 261.954 674.32ZM276 674.352C271.008 674.352 267.2 671.024 267.2 665.808V665.552C267.2 660.304 271.008 656.88 276.032 656.88C281.056 656.88 284.832 660.24 284.832 665.456V665.712C284.832 670.992 281.024 674.352 276 674.352ZM276.032 670.832C278.624 670.832 280.128 668.912 280.128 665.744V665.52C280.128 662.32 278.624 660.4 276.032 660.4C273.472 660.4 271.936 662.256 271.936 665.456V665.712C271.936 668.912 273.408 670.832 276.032 670.832ZM296.093 674V651.12H301.277V660.464H310.461V651.12H315.645V674H310.461V664.56H301.277V674H296.093ZM322.834 654.992C321.362 654.992 320.21 653.904 320.21 652.464C320.21 651.024 321.362 649.936 322.834 649.936C324.338 649.936 325.49 651.024 325.49 652.464C325.49 653.904 324.338 654.992 322.834 654.992ZM320.562 674V657.264H325.17V674H320.562ZM337.178 680.176C331.77 680.176 329.306 677.808 328.858 674.352H333.466C333.754 675.824 334.81 676.784 337.178 676.784C339.994 676.784 341.402 675.312 341.402 672.688V670.16C340.474 671.792 338.49 673.264 336.026 673.264C331.962 673.264 328.73 670.224 328.73 665.264V665.04C328.73 660.24 331.93 656.88 336.09 656.88C338.81 656.88 340.442 658.064 341.402 659.76V657.264H346.01V672.688C345.978 677.648 342.682 680.176 337.178 680.176ZM337.402 669.776C339.834 669.776 341.53 668.048 341.53 665.2V664.976C341.53 662.128 340.026 660.4 337.498 660.4C334.906 660.4 333.466 662.256 333.466 665.008V665.264C333.466 668.048 335.098 669.776 337.402 669.776ZM350.418 674V649.68H355.058V659.92C355.89 658.256 357.714 656.88 360.498 656.88C363.794 656.88 366.13 658.864 366.13 663.344V674H361.49V664.016C361.49 661.744 360.594 660.656 358.546 660.656C356.562 660.656 355.058 661.872 355.058 664.336V674H350.418ZM82.464 715V692.12H91.456C96.448 692.12 99.04 694.168 99.04 698.072V698.2C99.04 700.6 97.888 702.36 95.328 703.096C98.304 703.704 99.904 705.4 99.904 708.472V708.6C99.904 712.792 97.152 715 91.872 715H82.464ZM87.52 701.528H90.624C93.12 701.528 94.112 700.632 94.112 698.584V698.456C94.112 696.536 93.024 695.672 90.592 695.672H87.52V701.528ZM87.52 711.416H91.072C93.632 711.416 94.784 710.264 94.784 708.184V708.056C94.784 705.944 93.632 704.856 90.816 704.856H87.52V711.416ZM109.03 715.352C105.766 715.352 103.334 713.432 103.334 709.048V698.264H107.942V708.408C107.942 710.68 108.87 711.768 110.854 711.768C112.806 711.768 114.342 710.552 114.342 708.088V698.264H118.95V715H114.342V712.376C113.478 714.072 111.782 715.352 109.03 715.352ZM123.375 715V698.264H128.015V701.464C129.071 699.224 130.703 698.04 133.424 698.008V702.328C130 702.296 128.015 703.416 128.015 706.616V715H123.375ZM142.717 715.352C138.653 715.352 135.453 712.44 135.453 706.872V706.616C135.453 701.112 138.621 697.88 142.813 697.88C145.501 697.88 147.165 699.064 148.094 700.76V690.68H152.701V715H148.094V712.216C147.229 713.912 145.181 715.352 142.717 715.352ZM144.093 711.736C146.525 711.736 148.221 710.104 148.221 706.712V706.456C148.221 703.128 146.749 701.432 144.221 701.432C141.629 701.432 140.189 703.192 140.189 706.52V706.776C140.189 710.104 141.789 711.736 144.093 711.736ZM164.852 715.352C159.796 715.352 156.116 712.184 156.116 706.84V706.584C156.116 701.304 159.86 697.88 164.724 697.88C169.044 697.88 172.885 700.408 172.885 706.392V707.672H160.82C160.948 710.456 162.452 712.056 164.98 712.056C167.124 712.056 168.18 711.128 168.468 709.72H172.852C172.309 713.336 169.428 715.352 164.852 715.352ZM160.884 704.824H168.372C168.212 702.296 166.932 701.08 164.724 701.08C162.644 701.08 161.236 702.456 160.884 704.824ZM176.242 715V698.264H180.882V700.92C181.714 699.256 183.538 697.88 186.322 697.88C189.618 697.88 191.954 699.864 191.954 704.344V715H187.314V705.016C187.314 702.744 186.418 701.656 184.37 701.656C182.386 701.656 180.882 702.872 180.882 705.336V715H176.242ZM212.079 715.352C205.807 715.352 202.927 712.408 202.639 707.832H207.599C207.823 709.88 208.687 711.576 212.079 711.576C214.351 711.576 215.855 710.328 215.855 708.536C215.855 706.712 214.895 706.072 211.535 705.56C205.679 704.792 203.279 703.032 203.279 698.616C203.279 694.712 206.543 691.8 211.599 691.8C216.751 691.8 219.759 694.104 220.175 698.648H215.407C215.087 696.568 213.871 695.608 211.599 695.608C209.327 695.608 208.175 696.664 208.175 698.2C208.175 699.832 208.911 700.6 212.431 701.112C217.967 701.816 220.815 703.32 220.815 708.056C220.815 712.12 217.487 715.352 212.079 715.352ZM226.852 695.992C225.38 695.992 224.228 694.904 224.228 693.464C224.228 692.024 225.38 690.936 226.852 690.936C228.356 690.936 229.508 692.024 229.508 693.464C229.508 694.904 228.356 695.992 226.852 695.992ZM224.58 715V698.264H229.188V715H224.58ZM239.884 715.32C236.364 715.32 234.476 713.528 234.476 710.04V701.56H232.332V698.264H234.476V694.648H239.084V698.264H242.604V701.56H239.084V709.624C239.084 710.968 239.756 711.608 240.94 711.608C241.644 711.608 242.156 711.512 242.7 711.288V714.872C242.06 715.096 241.132 715.32 239.884 715.32ZM251.722 715.352C248.458 715.352 246.026 713.432 246.026 709.048V698.264H250.634V708.408C250.634 710.68 251.562 711.768 253.546 711.768C255.498 711.768 257.034 710.552 257.034 708.088V698.264H261.642V715H257.034V712.376C256.17 714.072 254.474 715.352 251.722 715.352ZM270.58 715.352C267.54 715.352 264.98 713.88 264.98 710.36C264.98 706.456 268.564 704.984 273.684 704.984H275.572V704.312C275.572 702.328 274.964 701.24 272.852 701.24C271.028 701.24 270.196 702.168 270.004 703.608H265.62C265.908 699.64 269.044 697.88 273.14 697.88C277.236 697.88 280.148 699.544 280.148 704.088V715H275.636V712.984C274.676 714.328 273.204 715.352 270.58 715.352ZM271.956 712.12C274.004 712.12 275.572 711 275.572 709.144V707.736H273.78C271.092 707.736 269.524 708.312 269.524 710.104C269.524 711.32 270.26 712.12 271.956 712.12ZM290.5 715.32C286.98 715.32 285.092 713.528 285.092 710.04V701.56H282.948V698.264H285.092V694.648H289.7V698.264H293.22V701.56H289.7V709.624C289.7 710.968 290.372 711.608 291.556 711.608C292.26 711.608 292.772 711.512 293.316 711.288V714.872C292.676 715.096 291.748 715.32 290.5 715.32ZM299.171 695.992C297.699 695.992 296.547 694.904 296.547 693.464C296.547 692.024 297.699 690.936 299.171 690.936C300.675 690.936 301.827 692.024 301.827 693.464C301.827 694.904 300.675 695.992 299.171 695.992ZM296.899 715V698.264H301.507V715H296.899ZM313.866 715.352C308.874 715.352 305.066 712.024 305.066 706.808V706.552C305.066 701.304 308.874 697.88 313.898 697.88C318.922 697.88 322.698 701.24 322.698 706.456V706.712C322.698 711.992 318.89 715.352 313.866 715.352ZM313.898 711.832C316.49 711.832 317.994 709.912 317.994 706.744V706.52C317.994 703.32 316.49 701.4 313.898 701.4C311.338 701.4 309.802 703.256 309.802 706.456V706.712C309.802 709.912 311.274 711.832 313.898 711.832ZM326.129 715V698.264H330.769V700.92C331.601 699.256 333.425 697.88 336.209 697.88C339.505 697.88 341.841 699.864 341.841 704.344V715H337.201V705.016C337.201 702.744 336.305 701.656 334.257 701.656C332.273 701.656 330.769 702.872 330.769 705.336V715H326.129ZM352.217 715.352C347.705 715.352 345.081 713.368 344.921 709.752H349.241C349.433 711.256 350.169 712.12 352.185 712.12C353.977 712.12 354.809 711.448 354.809 710.296C354.809 709.144 353.817 708.664 351.417 708.312C346.969 707.64 345.241 706.36 345.241 703.096C345.241 699.608 348.441 697.88 351.865 697.88C355.577 697.88 358.361 699.224 358.777 703.064H354.521C354.265 701.688 353.497 701.048 351.897 701.048C350.393 701.048 349.529 701.752 349.529 702.776C349.529 703.832 350.329 704.248 352.761 704.6C356.953 705.208 359.257 706.264 359.257 709.848C359.257 713.464 356.633 715.352 352.217 715.352Z" fill="white"/>
<path d="M473.824 675.352C468.832 675.352 465.024 672.024 465.024 666.808V666.552C465.024 661.304 468.832 657.88 473.856 657.88C478.88 657.88 482.656 661.24 482.656 666.456V666.712C482.656 671.992 478.848 675.352 473.824 675.352ZM473.856 671.832C476.448 671.832 477.952 669.912 477.952 666.744V666.52C477.952 663.32 476.448 661.4 473.856 661.4C471.296 661.4 469.76 663.256 469.76 666.456V666.712C469.76 669.912 471.232 671.832 473.856 671.832ZM486.855 675V661.56H484.647V658.264H486.855V656.344C486.855 652.44 489.127 650.488 492.839 650.488C493.831 650.488 494.503 650.584 495.239 650.808V654.296C494.791 654.136 494.215 654.008 493.543 654.008C492.071 654.008 491.463 654.936 491.463 656.216V658.264H495.111V661.56H491.463V675H486.855ZM516.415 675.352C508.927 675.352 504.927 670.744 504.927 663.704V663.448C504.927 656.504 509.791 651.768 516.287 651.768C521.792 651.768 525.888 654.456 526.431 660.088H521.119C520.736 657.336 519.2 655.864 516.319 655.864C512.703 655.864 510.399 658.68 510.399 663.416V663.672C510.399 668.408 512.575 671.16 516.351 671.16C519.2 671.16 521.184 669.72 521.6 666.776H526.688C526.111 672.44 522.048 675.352 516.415 675.352ZM534.652 675.352C531.612 675.352 529.052 673.88 529.052 670.36C529.052 666.456 532.636 664.984 537.756 664.984H539.644V664.312C539.644 662.328 539.036 661.24 536.924 661.24C535.1 661.24 534.268 662.168 534.076 663.608H529.692C529.98 659.64 533.116 657.88 537.212 657.88C541.308 657.88 544.22 659.544 544.22 664.088V675H539.708V672.984C538.748 674.328 537.276 675.352 534.652 675.352ZM536.028 672.12C538.076 672.12 539.644 671 539.644 669.144V667.736H537.852C535.164 667.736 533.596 668.312 533.596 670.104C533.596 671.32 534.332 672.12 536.028 672.12ZM548.523 675V658.264H553.163V661.464C554.219 659.224 555.851 658.04 558.571 658.008V662.328C555.147 662.296 553.163 663.416 553.163 666.616V675H548.523ZM569.367 675.352C564.311 675.352 560.631 672.184 560.631 666.84V666.584C560.631 661.304 564.375 657.88 569.239 657.88C573.559 657.88 577.399 660.408 577.399 666.392V667.672H565.335C565.463 670.456 566.967 672.056 569.495 672.056C571.639 672.056 572.695 671.128 572.983 669.72H577.367C576.823 673.336 573.943 675.352 569.367 675.352ZM565.399 664.824H572.887C572.727 662.296 571.447 661.08 569.239 661.08C567.159 661.08 565.751 662.456 565.399 664.824ZM588.181 681.176C582.773 681.176 580.309 678.808 579.861 675.352H584.469C584.757 676.824 585.813 677.784 588.181 677.784C590.997 677.784 592.405 676.312 592.405 673.688V671.16C591.477 672.792 589.493 674.264 587.029 674.264C582.965 674.264 579.733 671.224 579.733 666.264V666.04C579.733 661.24 582.933 657.88 587.093 657.88C589.813 657.88 591.445 659.064 592.405 660.76V658.264H597.013V673.688C596.981 678.648 593.685 681.176 588.181 681.176ZM588.405 670.776C590.837 670.776 592.533 669.048 592.533 666.2V665.976C592.533 663.128 591.029 661.4 588.501 661.4C585.909 661.4 584.469 663.256 584.469 666.008V666.264C584.469 669.048 586.101 670.776 588.405 670.776ZM603.82 655.992C602.348 655.992 601.196 654.904 601.196 653.464C601.196 652.024 602.348 650.936 603.82 650.936C605.324 650.936 606.476 652.024 606.476 653.464C606.476 654.904 605.324 655.992 603.82 655.992ZM601.548 675V658.264H606.156V675H601.548ZM615.253 675L609.141 658.264H614.101L618.101 670.232L622.069 658.264H626.549L620.469 675H615.253ZM636.335 675.352C631.279 675.352 627.599 672.184 627.599 666.84V666.584C627.599 661.304 631.343 657.88 636.207 657.88C640.527 657.88 644.367 660.408 644.367 666.392V667.672H632.303C632.431 670.456 633.935 672.056 636.463 672.056C638.607 672.056 639.663 671.128 639.951 669.72H644.335C643.791 673.336 640.911 675.352 636.335 675.352ZM632.367 664.824H639.855C639.695 662.296 638.415 661.08 636.207 661.08C634.127 661.08 632.719 662.456 632.367 664.824ZM647.724 675V658.264H652.364V661.464C653.42 659.224 655.052 658.04 657.772 658.008V662.328C654.348 662.296 652.364 663.416 652.364 666.616V675H647.724ZM667.187 675.352C662.675 675.352 660.051 673.368 659.891 669.752H664.211C664.403 671.256 665.139 672.12 667.155 672.12C668.947 672.12 669.779 671.448 669.779 670.296C669.779 669.144 668.787 668.664 666.387 668.312C661.939 667.64 660.211 666.36 660.211 663.096C660.211 659.608 663.411 657.88 666.835 657.88C670.547 657.88 673.331 659.224 673.747 663.064H669.491C669.235 661.688 668.467 661.048 666.867 661.048C665.363 661.048 664.499 661.752 664.499 662.776C664.499 663.832 665.299 664.248 667.731 664.6C671.923 665.208 674.227 666.264 674.227 669.848C674.227 673.464 671.603 675.352 667.187 675.352ZM470.56 716.352C467.52 716.352 464.96 714.88 464.96 711.36C464.96 707.456 468.544 705.984 473.664 705.984H475.552V705.312C475.552 703.328 474.944 702.24 472.832 702.24C471.008 702.24 470.176 703.168 469.984 704.608H465.6C465.888 700.64 469.024 698.88 473.12 698.88C477.216 698.88 480.128 700.544 480.128 705.088V716H475.616V713.984C474.656 715.328 473.184 716.352 470.56 716.352ZM471.936 713.12C473.984 713.12 475.552 712 475.552 710.144V708.736H473.76C471.072 708.736 469.504 709.312 469.504 711.104C469.504 712.32 470.24 713.12 471.936 713.12ZM484.43 716V699.264H489.07V702.464C490.127 700.224 491.759 699.04 494.479 699.008V703.328C491.055 703.296 489.07 704.416 489.07 707.616V716H484.43ZM505.275 716.352C500.219 716.352 496.539 713.184 496.539 707.84V707.584C496.539 702.304 500.283 698.88 505.147 698.88C509.467 698.88 513.307 701.408 513.307 707.392V708.672H501.243C501.371 711.456 502.875 713.056 505.403 713.056C507.547 713.056 508.603 712.128 508.891 710.72H513.275C512.731 714.336 509.851 716.352 505.275 716.352ZM501.307 705.824H508.795C508.635 703.296 507.355 702.08 505.147 702.08C503.067 702.08 501.659 703.456 501.307 705.824ZM527.694 716V698.24L523.054 701.28V696.864L528.334 693.12H532.878V716H527.694ZM546.371 716.352C541.315 716.352 537.411 714.016 537.411 709.536C537.411 706.752 539.011 704.736 541.635 703.808C539.555 702.944 538.307 701.344 538.307 699.04C538.307 695.072 542.115 692.8 546.403 692.8C550.787 692.8 554.435 695.104 554.435 699.008C554.435 701.312 553.123 702.88 551.107 703.776C553.795 704.704 555.299 706.688 555.299 709.408C555.299 713.888 551.459 716.352 546.371 716.352ZM546.435 702.368C548.291 702.368 549.635 701.248 549.635 699.36C549.635 697.6 548.227 696.416 546.403 696.416C544.579 696.416 543.139 697.536 543.139 699.392C543.139 701.248 544.643 702.368 546.435 702.368ZM546.371 712.576C548.547 712.576 550.179 711.296 550.179 709.024C550.179 706.784 548.547 705.536 546.403 705.536C544.291 705.536 542.563 706.784 542.563 709.056C542.563 711.328 544.259 712.576 546.371 712.576ZM558.554 708.832V705.152H566.746V708.832H558.554ZM580.398 716V711.456H569.166V709.568L579.054 693.12H585.422V707.744H588.43V711.456H585.422V716H580.398ZM574.35 707.744H580.494V697.024L574.35 707.744ZM599.574 716.32C594.614 716.32 591.67 713.952 591.158 709.824H595.99C596.31 711.392 597.238 712.384 599.414 712.384C602.454 712.384 603.958 709.984 604.054 705.312C602.998 706.976 601.334 708.096 598.582 708.096C594.166 708.096 590.934 705.344 590.934 700.704C590.934 695.968 594.326 692.768 599.798 692.768C606.102 692.768 609.142 697.024 609.142 703.616V704.64C609.142 712.128 605.718 716.32 599.574 716.32ZM599.734 704.64C602.07 704.64 603.638 703.04 603.638 700.8C603.638 698.144 602.07 696.512 599.734 696.512C597.462 696.512 595.958 698.176 595.958 700.576C595.958 702.976 597.43 704.64 599.734 704.64ZM622.516 721.696L625.46 714.304L618.804 699.264H623.796L627.86 709.312L631.604 699.264H636.052L626.996 721.696H622.516ZM645.907 716.352C640.915 716.352 637.107 713.024 637.107 707.808V707.552C637.107 702.304 640.915 698.88 645.939 698.88C650.963 698.88 654.739 702.24 654.739 707.456V707.712C654.739 712.992 650.931 716.352 645.907 716.352ZM645.939 712.832C648.531 712.832 650.035 710.912 650.035 707.744V707.52C650.035 704.32 648.531 702.4 645.939 702.4C643.379 702.4 641.843 704.256 641.843 707.456V707.712C641.843 710.912 643.315 712.832 645.939 712.832Z" fill="white"/>
</svg>
