<svg width="879" height="304" viewBox="0 0 879 304" fill="none" xmlns="http://www.w3.org/2000/svg">
<circle cx="374.5" cy="73.5" r="73.5" fill="#F2B867"/>
<rect y="182" width="173" height="114" rx="15" fill="#00629E"/>
<rect x="559" y="212.705" width="131.104" height="128.693" rx="15" transform="rotate(-45 559 212.705)" fill="#7ED2B6"/>
<path d="M64.48 257.07H71.55L73.16 246.08H80.16V238.03H74.35L75.33 231.31H81.91V223.54H76.45L77.92 213.95H70.85L69.38 223.54H64.13L65.53 213.95H58.46L56.99 223.54H50.27V231.31H55.87L54.89 238.03H48.52V246.08H53.7L52.09 257.07H59.23L60.84 246.08H66.09L64.48 257.07ZM63.01 231.31H68.26L67.28 238.03H62.03L63.01 231.31ZM97.6283 264H108.968V213.95H99.0283L87.4783 222.14V231.8L97.6283 225.15V264Z" fill="white" fill-opacity="0.75"/>
<path d="M350.48 90.07H357.55L359.16 79.08H366.16V71.03H360.35L361.33 64.31H367.91V56.54H362.45L363.92 46.95H356.85L355.38 56.54H350.13L351.53 46.95H344.46L342.99 56.54H336.27V64.31H341.87L340.89 71.03H334.52V79.08H339.7L338.09 90.07H345.23L346.84 79.08H352.09L350.48 90.07ZM349.01 64.31H354.26L353.28 71.03H348.03L349.01 64.31ZM372.078 97H409.878V88.39H390.418L399.868 79.15C405.678 73.55 409.528 68.09 409.528 61.44C409.528 52.41 403.228 46.25 392.168 46.25C380.968 46.25 373.968 52.55 373.408 64.1H383.698C384.468 57.52 387.268 54.93 391.678 54.93C396.018 54.93 398.328 57.59 398.328 61.72C398.328 66.27 395.248 70.68 390.418 75.79L372.078 95.18V97Z" fill="white" fill-opacity="0.75"/>
<path d="M626.48 232.07H633.55L635.16 221.08H642.16V213.03H636.35L637.33 206.31H643.91V198.54H638.45L639.92 188.95H632.85L631.38 198.54H626.13L627.53 188.95H620.46L618.99 198.54H612.27V206.31H617.87L616.89 213.03H610.52V221.08H615.7L614.09 232.07H621.23L622.84 221.08H628.09L626.48 232.07ZM625.01 206.31H630.26L629.28 213.03H624.03L625.01 206.31ZM667.918 239.77C680.098 239.77 687.308 233.82 687.308 224.44C687.308 218.07 683.388 213.94 677.578 212.68C682.548 210.93 685.838 207.43 685.838 201.83C685.838 193.99 679.398 188.25 668.408 188.25C656.998 188.25 650.488 194.97 649.928 204.14H659.938C660.498 199.45 663.438 196.58 668.198 196.58C672.818 196.58 675.128 199.24 675.128 202.81C675.128 207.08 672.748 209.46 667.498 209.46H663.858V217.02H667.778C673.168 217.02 675.828 219.47 675.828 224.23C675.828 228.71 673.168 231.44 667.498 231.44C661.478 231.44 658.888 227.94 658.468 223.11H648.248C648.668 233.26 655.178 239.77 667.918 239.77Z" fill="white" fill-opacity="0.75"/>
<path d="M188.123 206.659C186.831 207.696 186.623 209.584 187.659 210.877C188.696 212.169 190.584 212.377 191.877 211.341L188.123 206.659ZM301 120L266.76 125.253L288.429 152.28L301 120ZM191.877 211.341L281.812 139.23L278.058 134.549L188.123 206.659L191.877 211.341Z" fill="#004A78"/>
<path d="M465.579 88.4492C464.17 87.5771 462.321 88.0122 461.449 89.4209C460.577 90.8297 461.012 92.6787 462.421 93.5508L465.579 88.4492ZM590 169L573.609 138.482L555.375 167.936L590 169ZM462.421 93.5508L565.464 157.339L568.622 152.238L465.579 88.4492L462.421 93.5508Z" fill="#004A78"/>
<path d="M710.221 155.584C708.887 156.567 708.602 158.445 709.584 159.779C710.567 161.113 712.445 161.398 713.779 160.416L710.221 155.584ZM879 35L844.573 38.845L865.116 66.7371L879 35ZM713.779 160.416L859.039 53.4275L855.481 48.5964L710.221 155.584L713.779 160.416Z" fill="#004A78"/>
</svg>
