<svg width="1036" height="149" viewBox="0 0 1036 149" fill="none" xmlns="http://www.w3.org/2000/svg">
<path d="M2.98023e-08 146H52.2C103.6 146 135.2 113.6 135.2 64C135 27.2 112.6 2.99999 64.6 2.99999H22.6L2.98023e-08 146ZM36.4 120.8L51 28H63.8C90.4 28 101.6 42.6 101.6 65C101.6 100.4 83.6 120.8 52 120.8H36.4ZM148.894 146H181.494L204.094 2.99999H171.494L148.894 146ZM270.128 148.2C306.528 148 327.128 128.2 327.128 100.4C327.128 77 312.128 66.8 281.328 59.2C262.328 54.4 257.128 50.4 257.128 42.2C257.128 32 263.928 24.8 278.528 24.8C291.928 24.8 300.528 30 301.528 43.8H331.128C331.128 15 311.528 0.999995 279.928 0.999995C246.128 0.999995 225.928 20.8 225.928 45.6C225.928 68.8 239.328 79.2 271.328 86.6C289.728 91.2 295.328 95.8 295.328 105C295.328 117.2 286.728 124.8 271.128 124.6C251.128 124.6 243.728 113.4 243.328 101.2H212.528C212.328 128.8 232.328 148.2 270.128 148.2ZM414.5 148.2C447.7 148.2 474.7 129.2 481.1 94.6H449.3C444.3 112.2 432.3 122.4 414.9 122.4C391.3 122.4 380.7 107.2 380.9 84.4C381.1 52.6 396.3 26.2 424.5 26.2C442.1 26.2 450.5 35.6 452.7 52.8H484.9C483.3 18.2 459.7 0.799998 425.5 0.799998C377.7 0.799998 347.1 37.2 347.1 85.4C347.1 125.4 373.3 148.2 414.5 148.2ZM646.905 64.8C646.905 26 618.905 0.999995 578.705 0.999995C532.505 0.999995 498.905 36.8 498.905 85C498.905 123.8 528.105 148.2 566.705 148.2C613.305 148.2 646.905 113.6 646.905 64.8ZM613.105 65.6C613.105 96.4 596.705 122.6 568.505 122.6C546.105 122.6 532.505 107.4 532.505 84C532.505 53.6 549.105 26.4 577.905 26.6C601.705 26.8 613.105 44 613.105 65.6ZM686.797 146H723.997L794.197 2.99999H762.797L711.397 112.8L694.797 2.99999H661.597L686.797 146ZM791.688 146H888.088L892.088 120.8H827.888L833.688 85.2H882.288L885.888 61.6H837.288L842.488 28.2H902.888L906.888 2.99999H814.288L791.688 146ZM913.219 146H945.419L954.019 90.8H968.419L995.619 146H1029.02L999.019 85.4C1019.42 81 1035.02 66.8 1035.02 42C1035.22 17.2 1017.02 2.99999 985.619 2.99999H935.819L913.219 146ZM957.619 68.8L964.219 27.8H981.819C995.819 27.8 1003.42 33.2 1003.22 45.2C1003.22 61.4 993.819 68.8 976.619 68.8H957.619Z" fill="#F16562"/>
</svg>
