<svg width="713" height="143" viewBox="0 0 713 143" fill="none" xmlns="http://www.w3.org/2000/svg">
<path d="M2.98023e-08 143L22.6 -6.67572e-06H64.6C112.6 -6.67572e-06 135 24.2 135.2 61C135.2 110.6 103.6 143 52.2 143H2.98023e-08ZM36.4 117.8H52C83.6 117.8 101.6 97.4 101.6 62C101.6 39.6 90.4 25 63.8 25H51L36.4 117.8ZM146.094 143L168.694 -6.67572e-06H261.294L257.294 25.2H196.894L191.694 58.6H240.294L236.694 82.2H188.094L182.294 117.8H246.494L242.494 143H146.094ZM265.625 143L288.225 -6.67572e-06H380.025L375.825 25.4H316.425L310.625 63.2H357.625L353.625 87.6H306.625L298.025 143H265.625ZM381.073 143L403.673 -6.67572e-06H436.273L413.673 143H381.073ZM445.508 143L468.108 -6.67572e-06H505.908L544.708 94.2L559.708 -6.67572e-06H588.908L566.308 143H533.708L490.708 41.2L474.708 143H445.508ZM597.07 143L619.67 -6.67572e-06H712.27L708.27 25.2H647.87L642.67 58.6H691.27L687.67 82.2H639.07L633.27 117.8H697.47L693.47 143H597.07Z" fill="#F16562"/>
</svg>
