<svg width="1920" height="517" viewBox="0 0 1920 517" fill="none" xmlns="http://www.w3.org/2000/svg">
<rect width="1920" height="461" fill="#CFE5FF"/>
<path d="M38.8 416H71.4L94 273H61.4L38.8 416ZM133.234 416H165.834L184.234 298.2H222.834L227.034 273H117.234L113.034 298.2H151.634L133.234 416ZM252.352 326L281.752 280L256.552 270.6L236.152 319.2L252.352 326ZM336.105 418.2C372.505 418 393.105 398.2 393.105 370.4C393.105 347 378.105 336.8 347.305 329.2C328.305 324.4 323.105 320.4 323.105 312.2C323.105 302 329.905 294.8 344.505 294.8C357.905 294.8 366.505 300 367.505 313.8H397.105C397.105 285 377.505 271 345.905 271C312.105 271 291.905 290.8 291.905 315.6C291.905 338.8 305.305 349.2 337.305 356.6C355.705 361.2 361.305 365.8 361.305 375C361.305 387.2 352.705 394.8 337.105 394.6C317.105 394.6 309.705 383.4 309.305 371.2H278.505C278.305 398.8 298.305 418.2 336.105 418.2ZM547.37 416H580.57L556.77 273H514.57L444.97 416H476.17L490.77 384.2H542.57L547.37 416ZM530.17 299.4L539.17 361.2H501.57L530.17 299.4ZM647.117 416H679.517L687.717 364H708.517C741.517 364 766.517 347.8 766.517 312.6C766.517 287.4 748.117 273 716.917 273H669.717L647.117 416ZM691.117 341.4L698.117 297.4H713.317C728.117 297.4 735.517 303.4 735.517 315.4C735.517 332.2 725.917 341.4 707.917 341.4H691.117ZM774.313 416H806.513L815.113 360.8H829.513L856.713 416H890.113L860.113 355.4C880.513 351 896.113 336.8 896.113 312C896.313 287.2 878.113 273 846.713 273H796.913L774.313 416ZM818.712 338.8L825.313 297.8H842.913C856.913 297.8 864.513 303.2 864.313 315.2C864.313 331.4 854.913 338.8 837.713 338.8H818.712ZM1060.33 334.8C1060.33 296 1032.33 271 992.134 271C945.934 271 912.334 306.8 912.334 355C912.334 393.8 941.534 418.2 980.134 418.2C1026.73 418.2 1060.33 383.6 1060.33 334.8ZM1026.53 335.6C1026.53 366.4 1010.13 392.6 981.934 392.6C959.534 392.6 945.934 377.4 945.934 354C945.934 323.6 962.534 296.4 991.334 296.6C1015.13 296.8 1026.53 314 1026.53 335.6ZM1145.02 418.2C1178.22 418.2 1205.22 399.2 1211.62 364.6H1179.82C1174.82 382.2 1162.82 392.4 1145.42 392.4C1121.82 392.4 1111.22 377.2 1111.42 354.4C1111.62 322.6 1126.82 296.2 1155.02 296.2C1172.62 296.2 1181.02 305.6 1183.22 322.8H1215.42C1213.82 288.2 1190.22 270.8 1156.02 270.8C1108.22 270.8 1077.62 307.2 1077.62 355.4C1077.62 395.4 1103.82 418.2 1145.02 418.2ZM1225.82 416H1322.22L1326.22 390.8H1262.02L1267.82 355.2H1316.42L1320.02 331.6H1271.42L1276.62 298.2H1337.02L1341.02 273H1248.42L1225.82 416ZM1402.93 418.2C1439.33 418 1459.93 398.2 1459.93 370.4C1459.93 347 1444.93 336.8 1414.13 329.2C1395.13 324.4 1389.93 320.4 1389.93 312.2C1389.93 302 1396.73 294.8 1411.33 294.8C1424.73 294.8 1433.33 300 1434.33 313.8H1463.93C1463.93 285 1444.33 271 1412.73 271C1378.93 271 1358.73 290.8 1358.73 315.6C1358.73 338.8 1372.13 349.2 1404.13 356.6C1422.53 361.2 1428.13 365.8 1428.13 375C1428.13 387.2 1419.53 394.8 1403.93 394.6C1383.93 394.6 1376.53 383.4 1376.13 371.2H1345.33C1345.13 398.8 1365.13 418.2 1402.93 418.2ZM1531.5 418.2C1567.9 418 1588.5 398.2 1588.5 370.4C1588.5 347 1573.5 336.8 1542.7 329.2C1523.7 324.4 1518.5 320.4 1518.5 312.2C1518.5 302 1525.3 294.8 1539.9 294.8C1553.3 294.8 1561.9 300 1562.9 313.8H1592.5C1592.5 285 1572.9 271 1541.3 271C1507.5 271 1487.3 290.8 1487.3 315.6C1487.3 338.8 1500.7 349.2 1532.7 356.6C1551.1 361.2 1556.7 365.8 1556.7 375C1556.7 387.2 1548.1 394.8 1532.5 394.6C1512.5 394.6 1505.1 383.4 1504.7 371.2H1473.9C1473.7 398.8 1493.7 418.2 1531.5 418.2Z" fill="#EFF6FF" fill-opacity="0.7"/>
<ellipse cx="1194" cy="192.5" rx="136" ry="137.5" stroke="#004A78" stroke-width="6" stroke-linecap="round" stroke-dasharray="18 20"/>
<rect x="1250.25" y="51.4365" width="71.1258" height="31" transform="rotate(29.4828 1250.25 51.4365)" fill="#CFE5FF"/>
<circle cx="256" cy="193" r="106" fill="#F16562"/>
<circle cx="725" cy="193" r="106" fill="#F16562"/>
<circle cx="1194" cy="193" r="106" fill="#F16562"/>
<circle cx="1663" cy="193" r="106" fill="#F16562"/>
<path d="M413 190C411.343 190 410 191.343 410 193C410 194.657 411.343 196 413 196V190ZM567 193L537 175.679V210.321L567 193ZM413 196H540V190H413V196Z" fill="#004A78"/>
<path d="M882 190C880.343 190 879 191.343 879 193C879 194.657 880.343 196 882 196V190ZM1018 193L988 175.679V210.321L1018 193ZM882 196H991V190H882V196Z" fill="#004A78"/>
<path d="M1380 227C1378.34 227 1377 228.343 1377 230C1377 231.657 1378.34 233 1380 233V227ZM1515 230L1485 212.679V247.321L1515 230ZM1380 233L1488 233V227L1380 227V233Z" fill="#004A78"/>
<path d="M1515 158C1516.66 158 1518 156.657 1518 155C1518 153.343 1516.66 152 1515 152L1515 158ZM1380 155L1410 172.321L1410 137.68L1380 155ZM1515 152L1407 152L1407 158L1515 158L1515 152Z" fill="#004A78"/>
<path d="M181.445 184H187.895C195.425 184 199.055 179.56 199.055 173.32V173.05C199.055 166.81 195.425 162.55 187.955 162.55H181.445V184ZM185.435 180.85V165.7H187.745C192.785 165.7 194.885 168.49 194.885 173.11V173.35C194.885 178.09 192.575 180.85 187.775 180.85H185.435ZM203.281 184H207.301V162.55H203.281V184ZM219.95 184.3C224.69 184.3 227.84 181.39 227.84 177.67C227.84 173.38 225.23 171.94 220.19 171.25C216.47 170.71 215.75 169.84 215.75 168.1C215.75 166.45 217.01 165.28 219.44 165.28C221.9 165.28 223.19 166.24 223.58 168.49H227.24C226.82 164.38 224.06 162.28 219.44 162.28C214.97 162.28 211.97 164.92 211.97 168.43C211.97 172.45 214.4 174.01 219.53 174.7C223.01 175.27 224 176.02 224 178C224 179.98 222.32 181.3 219.95 181.3C216.32 181.3 215.45 179.5 215.18 177.34H211.34C211.64 181.39 214.1 184.3 219.95 184.3ZM241.276 184.3C246.376 184.3 250.036 181.69 250.666 176.53H246.766C246.346 179.56 244.246 181.06 241.276 181.06C237.316 181.06 235.006 178.21 235.006 173.38V173.14C235.006 168.34 237.466 165.4 241.246 165.4C244.336 165.4 245.926 166.87 246.376 169.72H250.426C249.946 164.68 246.136 162.22 241.216 162.22C235.246 162.22 230.806 166.72 230.806 173.17V173.41C230.806 180.01 234.556 184.3 241.276 184.3ZM264.202 184.3C270.712 184.3 275.002 179.59 275.002 173.32V173.08C275.002 166.78 270.592 162.25 264.202 162.25C257.842 162.25 253.342 166.9 253.342 173.17V173.41C253.342 179.59 257.632 184.3 264.202 184.3ZM264.262 181.09C260.362 181.09 257.512 178.06 257.512 173.38V173.14C257.512 168.52 260.002 165.43 264.202 165.43C268.402 165.43 270.862 168.7 270.862 173.11V173.35C270.862 178 268.312 181.09 264.262 181.09ZM283.679 184H288.299L295.559 162.55H291.809L286.199 179.95L280.619 162.55H276.449L283.679 184ZM298.997 184H312.917V180.85H302.987V174.58H310.547V171.58H302.987V165.7H312.407V162.55H298.997V184ZM316.817 184H320.807V175.33H323.357L328.967 184H333.287L327.257 174.73C329.927 174.04 332.027 172.33 332.027 168.97V168.85C332.027 164.47 328.727 162.55 324.017 162.55H316.817V184ZM320.807 172.48V165.64H324.017C326.567 165.64 328.097 166.48 328.097 168.94V169.06C328.097 171.34 326.687 172.48 324.017 172.48H320.807Z" fill="white"/>
<path d="M196.373 224H198.863L200.153 215.84C200.783 211.85 202.973 210.53 206.123 210.38L206.483 208.04C203.393 208.1 202.013 209.45 200.693 211.52C200.813 210.32 200.873 209.18 200.873 208.31H198.533C198.503 209.63 198.443 210.86 198.113 212.99L196.373 224ZM210.177 217.67C210.177 217.31 210.177 216.98 210.207 216.65H221.817L221.907 216.08C222.747 210.71 220.077 208.07 215.817 208.07C211.197 208.07 207.627 212 207.627 217.55C207.627 221.48 210.147 224.27 214.407 224.27C217.587 224.27 220.347 222.71 221.307 219.47H218.817C218.217 221.27 216.687 222.2 214.497 222.2C211.497 222.2 210.177 220.52 210.177 217.67ZM215.667 210.11C218.517 210.11 219.837 211.49 219.597 214.64H210.507C211.287 211.43 213.447 210.11 215.667 210.11ZM230.386 224.27C233.896 224.27 236.116 222.38 236.116 219.5C236.116 216.62 234.376 215.63 231.256 214.85C228.796 214.25 228.076 213.65 228.076 212.45C228.076 210.98 229.186 210.11 231.136 210.11C233.086 210.11 234.316 211.07 234.406 212.57H236.746C236.566 209.39 234.256 208.04 231.196 208.04C228.376 208.04 225.736 209.6 225.736 212.6C225.736 214.97 226.996 216.2 230.506 217.07C232.876 217.67 233.686 218.27 233.686 219.62C233.686 221.24 232.666 222.2 230.476 222.2C227.686 222.2 226.816 220.85 226.696 219.17H224.266C224.326 221.87 226.216 224.27 230.386 224.27ZM241.92 217.67C241.92 217.31 241.92 216.98 241.95 216.65H253.56L253.65 216.08C254.49 210.71 251.82 208.07 247.56 208.07C242.94 208.07 239.37 212 239.37 217.55C239.37 221.48 241.89 224.27 246.15 224.27C249.33 224.27 252.09 222.71 253.05 219.47H250.56C249.96 221.27 248.43 222.2 246.24 222.2C243.24 222.2 241.92 220.52 241.92 217.67ZM247.41 210.11C250.26 210.11 251.58 211.49 251.34 214.64H242.25C243.03 211.43 245.19 210.11 247.41 210.11ZM261.315 224.24C263.205 224.24 264.915 223.31 266.025 221.51C265.965 222.2 265.965 223.16 266.055 224H268.395C268.245 222.68 268.335 221.36 268.665 219.32L269.535 213.86C270.195 209.63 267.735 208.04 264.225 208.04C261.705 208.04 258.615 209.18 257.895 212.93H260.385C260.805 210.98 262.095 210.11 264.135 210.11C266.655 210.11 267.465 211.25 267.075 213.65L266.895 214.79H263.865C259.755 214.79 256.245 215.93 256.245 219.8C256.245 222.47 258.105 224.24 261.315 224.24ZM261.645 222.29C259.635 222.29 258.705 221.18 258.705 219.8C258.705 217.4 260.415 216.56 263.925 216.56H266.595L266.325 218.27C265.905 221 263.985 222.29 261.645 222.29ZM273.107 224H275.597L276.887 215.84C277.517 211.85 279.707 210.53 282.857 210.38L283.217 208.04C280.127 208.1 278.747 209.45 277.427 211.52C277.547 210.32 277.607 209.18 277.607 208.31H275.267C275.237 209.63 275.177 210.86 274.847 212.99L273.107 224ZM291.712 224.24C295.192 224.24 297.982 222.14 298.642 218.42H296.302C295.882 220.85 293.962 222.2 291.772 222.2C288.562 222.2 286.942 220.4 286.942 217.1C286.942 212.57 289.282 210.14 292.402 210.14C294.592 210.14 296.212 210.89 296.512 213.59H298.882C298.672 209.78 295.972 208.07 292.522 208.07C288.262 208.07 284.392 211.31 284.392 217.1C284.392 221.3 287.002 224.24 291.712 224.24ZM301.393 224H303.883L305.323 214.88C305.803 211.91 308.053 210.17 310.663 210.17C312.823 210.17 313.783 211.43 313.363 214.04L311.773 224H314.263L315.763 214.61C316.513 209.87 314.473 208.04 311.203 208.04C308.653 208.04 306.853 209.57 305.923 211.1L307.543 200.81H305.053L301.393 224Z" fill="white"/>
<path d="M673.827 184H680.277C687.807 184 691.437 179.56 691.437 173.32V173.05C691.437 166.81 687.807 162.55 680.337 162.55H673.827V184ZM677.817 180.85V165.7H680.127C685.167 165.7 687.267 168.49 687.267 173.11V173.35C687.267 178.09 684.957 180.85 680.157 180.85H677.817ZM695.543 184H709.463V180.85H699.533V174.58H707.093V171.58H699.533V165.7H708.953V162.55H695.543V184ZM713.363 184H717.353V175.21H724.673V172.12H717.353V165.73H726.653V162.55H713.363V184ZM730.541 184H734.561V162.55H730.541V184ZM739.92 184H743.55V167.56L753.21 184H757.35V162.55H753.72V178.06L744.69 162.55H739.92V184ZM762.573 184H776.493V180.85H766.563V174.58H774.123V171.58H766.563V165.7H775.983V162.55H762.573V184Z" fill="white"/>
<path d="M687.3 210.41H689.55L687.39 224H689.88L692.04 210.41H695.88L696.21 208.31H692.37L692.85 205.31C693.12 203.72 693.96 202.79 695.58 202.79C696.27 202.79 696.81 202.91 697.23 203.09L697.53 201.11C697.05 200.87 696.51 200.72 695.46 200.72C692.82 200.72 690.84 202.25 690.36 205.25L689.88 208.31H687.63L687.3 210.41ZM704.132 224.24C709.052 224.24 712.502 220.31 712.502 214.97C712.502 210.92 709.832 208.07 705.482 208.07C700.772 208.07 697.142 212.03 697.142 217.28C697.142 221.27 699.782 224.24 704.132 224.24ZM704.252 222.2C701.192 222.2 699.722 220.25 699.722 217.28C699.722 213.2 701.972 210.11 705.332 210.11C708.332 210.11 709.892 212.06 709.892 215.03C709.892 219.11 707.792 222.2 704.252 222.2ZM722.458 224.24C725.938 224.24 728.728 222.14 729.388 218.42H727.048C726.628 220.85 724.708 222.2 722.518 222.2C719.308 222.2 717.688 220.4 717.688 217.1C717.688 212.57 720.028 210.14 723.148 210.14C725.338 210.14 726.958 210.89 727.258 213.59H729.628C729.418 209.78 726.718 208.07 723.268 208.07C719.008 208.07 715.138 211.31 715.138 217.1C715.138 221.3 717.748 224.24 722.458 224.24ZM747.229 208.31H744.739L743.299 217.43C742.819 220.4 740.629 222.14 738.019 222.14C735.859 222.14 734.989 220.73 735.379 218.27L736.969 208.31H734.479L732.979 217.7C732.259 222.26 734.209 224.27 737.479 224.27C740.029 224.27 741.829 222.77 742.939 220.88C742.789 221.93 742.729 223.1 742.789 224H745.159C745.099 222.71 745.159 221.45 745.489 219.32L747.229 208.31ZM755.686 224.27C759.196 224.27 761.416 222.38 761.416 219.5C761.416 216.62 759.676 215.63 756.556 214.85C754.096 214.25 753.376 213.65 753.376 212.45C753.376 210.98 754.486 210.11 756.436 210.11C758.386 210.11 759.616 211.07 759.706 212.57H762.046C761.866 209.39 759.556 208.04 756.496 208.04C753.676 208.04 751.036 209.6 751.036 212.6C751.036 214.97 752.296 216.2 755.806 217.07C758.176 217.67 758.986 218.27 758.986 219.62C758.986 221.24 757.966 222.2 755.776 222.2C752.986 222.2 752.116 220.85 751.996 219.17H749.566C749.626 221.87 751.516 224.27 755.686 224.27Z" fill="white"/>
<path d="M1128.38 184H1134.83C1142.36 184 1145.99 179.56 1145.99 173.32V173.05C1145.99 166.81 1142.36 162.55 1134.89 162.55H1128.38V184ZM1132.37 180.85V165.7H1134.68C1139.72 165.7 1141.82 168.49 1141.82 173.11V173.35C1141.82 178.09 1139.51 180.85 1134.71 180.85H1132.37ZM1150.1 184H1164.02V180.85H1154.09V174.58H1161.65V171.58H1154.09V165.7H1163.51V162.55H1150.1V184ZM1173.38 184H1178L1185.26 162.55H1181.51L1175.9 179.95L1170.32 162.55H1166.15L1173.38 184ZM1188.7 184H1202.62V180.85H1192.69V174.58H1200.25V171.58H1192.69V165.7H1202.11V162.55H1188.7V184ZM1206.52 184H1219.66V180.82H1210.51V162.55H1206.52V184ZM1232.3 184.3C1238.81 184.3 1243.1 179.59 1243.1 173.32V173.08C1243.1 166.78 1238.69 162.25 1232.3 162.25C1225.94 162.25 1221.44 166.9 1221.44 173.17V173.41C1221.44 179.59 1225.73 184.3 1232.3 184.3ZM1232.36 181.09C1228.46 181.09 1225.61 178.06 1225.61 173.38V173.14C1225.61 168.52 1228.1 165.43 1232.3 165.43C1236.5 165.43 1238.96 168.7 1238.96 173.11V173.35C1238.96 178 1236.41 181.09 1232.36 181.09ZM1247.25 184H1251.24V175.84H1254.24C1258.83 175.84 1262.1 173.83 1262.1 169.3V169.18C1262.1 164.68 1258.95 162.55 1254.15 162.55H1247.25V184ZM1251.24 172.96V165.64H1254.15C1256.7 165.64 1258.2 166.63 1258.2 169.18V169.3C1258.2 171.67 1256.79 172.96 1254.15 172.96H1251.24Z" fill="white"/>
<path d="M1155.28 205.04C1156.18 205.04 1156.93 204.26 1156.93 203.36C1156.93 202.46 1156.21 201.74 1155.31 201.74C1154.41 201.74 1153.63 202.52 1153.63 203.42C1153.63 204.32 1154.38 205.04 1155.28 205.04ZM1150.84 224H1153.33L1155.82 208.31H1153.33L1150.84 224ZM1163.59 224.21C1164.31 224.21 1164.97 224.09 1165.51 223.85L1165.84 221.78C1165.27 221.99 1164.58 222.11 1163.98 222.11C1162.57 222.11 1161.97 221.51 1162.24 219.8L1163.74 210.41H1167.31L1167.64 208.31H1164.07L1164.64 204.74H1162.15L1161.58 208.31H1159.33L1159 210.41H1161.25L1159.78 219.71C1159.39 222.26 1160.5 224.21 1163.59 224.21ZM1171.6 217.67C1171.6 217.31 1171.6 216.98 1171.63 216.65H1183.24L1183.33 216.08C1184.17 210.71 1181.5 208.07 1177.24 208.07C1172.62 208.07 1169.05 212 1169.05 217.55C1169.05 221.48 1171.57 224.27 1175.83 224.27C1179.01 224.27 1181.77 222.71 1182.73 219.47H1180.24C1179.64 221.27 1178.11 222.2 1175.92 222.2C1172.92 222.2 1171.6 220.52 1171.6 217.67ZM1177.09 210.11C1179.94 210.11 1181.26 211.49 1181.02 214.64H1171.93C1172.71 211.43 1174.87 210.11 1177.09 210.11ZM1186.05 224H1188.54L1189.83 215.84C1190.46 211.85 1192.65 210.53 1195.8 210.38L1196.16 208.04C1193.07 208.1 1191.69 209.45 1190.37 211.52C1190.49 210.32 1190.55 209.18 1190.55 208.31H1188.21C1188.18 209.63 1188.12 210.86 1187.79 212.99L1186.05 224ZM1202.22 224.24C1204.11 224.24 1205.82 223.31 1206.93 221.51C1206.87 222.2 1206.87 223.16 1206.96 224H1209.3C1209.15 222.68 1209.24 221.36 1209.57 219.32L1210.44 213.86C1211.1 209.63 1208.64 208.04 1205.13 208.04C1202.61 208.04 1199.52 209.18 1198.8 212.93H1201.29C1201.71 210.98 1203 210.11 1205.04 210.11C1207.56 210.11 1208.37 211.25 1207.98 213.65L1207.8 214.79H1204.77C1200.66 214.79 1197.15 215.93 1197.15 219.8C1197.15 222.47 1199.01 224.24 1202.22 224.24ZM1202.55 222.29C1200.54 222.29 1199.61 221.18 1199.61 219.8C1199.61 217.4 1201.32 216.56 1204.83 216.56H1207.5L1207.23 218.27C1206.81 221 1204.89 222.29 1202.55 222.29ZM1218.58 224.21C1219.3 224.21 1219.96 224.09 1220.5 223.85L1220.83 221.78C1220.26 221.99 1219.57 222.11 1218.97 222.11C1217.56 222.11 1216.96 221.51 1217.23 219.8L1218.73 210.41H1222.3L1222.63 208.31H1219.06L1219.63 204.74H1217.14L1216.57 208.31H1214.32L1213.99 210.41H1216.24L1214.77 219.71C1214.38 222.26 1215.49 224.21 1218.58 224.21ZM1226.59 217.67C1226.59 217.31 1226.59 216.98 1226.62 216.65H1238.23L1238.32 216.08C1239.16 210.71 1236.49 208.07 1232.23 208.07C1227.61 208.07 1224.04 212 1224.04 217.55C1224.04 221.48 1226.56 224.27 1230.82 224.27C1234 224.27 1236.76 222.71 1237.72 219.47H1235.23C1234.63 221.27 1233.1 222.2 1230.91 222.2C1227.91 222.2 1226.59 220.52 1226.59 217.67ZM1232.08 210.11C1234.93 210.11 1236.25 211.49 1236.01 214.64H1226.92C1227.7 211.43 1229.86 210.11 1232.08 210.11Z" fill="white"/>
<path d="M1604.9 184H1611.35C1618.88 184 1622.51 179.56 1622.51 173.32V173.05C1622.51 166.81 1618.88 162.55 1611.41 162.55H1604.9V184ZM1608.89 180.85V165.7H1611.2C1616.24 165.7 1618.34 168.49 1618.34 173.11V173.35C1618.34 178.09 1616.03 180.85 1611.23 180.85H1608.89ZM1626.62 184H1640.54V180.85H1630.61V174.58H1638.17V171.58H1630.61V165.7H1640.03V162.55H1626.62V184ZM1644.44 184H1657.58V180.82H1648.43V162.55H1644.44V184ZM1661.38 184H1665.4V162.55H1661.38V184ZM1676.22 184H1680.84L1688.1 162.55H1684.35L1678.74 179.95L1673.16 162.55H1668.99L1676.22 184ZM1691.54 184H1705.46V180.85H1695.53V174.58H1703.09V171.58H1695.53V165.7H1704.95V162.55H1691.54V184ZM1709.36 184H1713.35V175.33H1715.9L1721.51 184H1725.83L1719.8 174.73C1722.47 174.04 1724.57 172.33 1724.57 168.97V168.85C1724.57 164.47 1721.27 162.55 1716.56 162.55H1709.36V184ZM1713.35 172.48V165.64H1716.56C1719.11 165.64 1720.64 166.48 1720.64 168.94V169.06C1720.64 171.34 1719.23 172.48 1716.56 172.48H1713.35Z" fill="white"/>
<path d="M1644.39 224.21C1645.11 224.21 1645.77 224.09 1646.31 223.85L1646.64 221.78C1646.07 221.99 1645.38 222.11 1644.78 222.11C1643.37 222.11 1642.77 221.51 1643.04 219.8L1644.54 210.41H1648.11L1648.44 208.31H1644.87L1645.44 204.74H1642.95L1642.38 208.31H1640.13L1639.8 210.41H1642.05L1640.58 219.71C1640.19 222.26 1641.3 224.21 1644.39 224.21ZM1652.4 217.67C1652.4 217.31 1652.4 216.98 1652.43 216.65H1664.04L1664.13 216.08C1664.97 210.71 1662.3 208.07 1658.04 208.07C1653.42 208.07 1649.85 212 1649.85 217.55C1649.85 221.48 1652.37 224.27 1656.63 224.27C1659.81 224.27 1662.57 222.71 1663.53 219.47H1661.04C1660.44 221.27 1658.91 222.2 1656.72 222.2C1653.72 222.2 1652.4 220.52 1652.4 217.67ZM1657.89 210.11C1660.74 210.11 1662.06 211.49 1661.82 214.64H1652.73C1653.51 211.43 1655.67 210.11 1657.89 210.11ZM1672.6 224.27C1676.11 224.27 1678.33 222.38 1678.33 219.5C1678.33 216.62 1676.59 215.63 1673.47 214.85C1671.01 214.25 1670.29 213.65 1670.29 212.45C1670.29 210.98 1671.4 210.11 1673.35 210.11C1675.3 210.11 1676.53 211.07 1676.62 212.57H1678.96C1678.78 209.39 1676.47 208.04 1673.41 208.04C1670.59 208.04 1667.95 209.6 1667.95 212.6C1667.95 214.97 1669.21 216.2 1672.72 217.07C1675.09 217.67 1675.9 218.27 1675.9 219.62C1675.9 221.24 1674.88 222.2 1672.69 222.2C1669.9 222.2 1669.03 220.85 1668.91 219.17H1666.48C1666.54 221.87 1668.43 224.27 1672.6 224.27ZM1686.57 224.21C1687.29 224.21 1687.95 224.09 1688.49 223.85L1688.82 221.78C1688.25 221.99 1687.56 222.11 1686.96 222.11C1685.55 222.11 1684.95 221.51 1685.22 219.8L1686.72 210.41H1690.29L1690.62 208.31H1687.05L1687.62 204.74H1685.13L1684.56 208.31H1682.31L1681.98 210.41H1684.23L1682.76 219.71C1682.37 222.26 1683.48 224.21 1686.57 224.21Z" fill="white"/>
<path d="M1299.8 99.5014L1324.89 118.017L1296.31 130.482L1299.8 99.5014Z" fill="#004A78"/>
<path d="M0 464C0 436.386 22.3858 414 50 414H1870C1897.61 414 1920 436.386 1920 464V517H0V464Z" fill="white"/>
</svg>
