<svg width="1030" height="822" viewBox="0 0 1030 822" fill="none" xmlns="http://www.w3.org/2000/svg">
<rect width="1030" height="822" rx="60" fill="#7BCEB2"/>
<path d="M144.28 124V113.04H116.44V106.88L140.28 66.8H160.04V101.76H167.4V113.04H160.04V124H144.28ZM131.88 101.76H144.68V79.12L131.88 101.76ZM194.579 124.96C179.379 124.96 172.499 116.72 172.099 106H186.979C187.539 110 189.139 112.64 194.419 112.64C199.139 112.64 201.299 109.12 201.299 104.56C201.299 99.44 198.499 96.4 193.539 96.4C188.899 96.4 186.019 98.24 184.099 100.48H174.339L175.539 66.8H214.099V78.8H187.379L187.059 91.44C189.219 88.32 193.299 85.36 200.419 85.36C210.899 85.36 217.779 92.4 217.779 104.8C217.779 116.96 209.059 124.96 194.579 124.96ZM226.807 124V66.8H248.168L259.128 97.28L270.087 66.8H291.048V124H274.728V88.4L260.728 124H255.287L241.447 88.4V124H226.807Z" fill="white"/>
<path d="M649.96 124L665.96 80.08H642.92V66.8H686.44V68.48L666.6 124H649.96ZM713.396 124.96C695.156 124.96 688.196 113.28 688.196 96.96V95.44C688.196 76.8 699.316 66 713.876 66C726.756 66 734.356 71.68 735.556 82.88H720.516C719.956 80.08 718.516 78.08 714.436 78.08C708.196 78.08 704.756 83.52 704.436 93.2C706.996 89.28 710.756 86.56 717.796 86.56C728.196 86.56 736.756 92.88 736.756 104.88C736.756 116.96 727.956 124.96 713.396 124.96ZM713.236 113.36C717.796 113.36 720.836 109.92 720.836 105.04C720.836 100.24 717.956 96.8 713.236 96.8C708.516 96.8 705.476 100.32 705.476 104.88C705.476 109.92 708.516 113.36 713.236 113.36ZM756.361 94.88C746.921 94.88 741.241 88.64 741.241 80.4C741.241 72.32 747.721 66.16 756.441 66.16C765.001 66.16 771.561 72 771.561 80.16C771.561 88.48 765.641 94.88 756.361 94.88ZM748.681 124L788.361 66.8H796.201L756.521 124H748.681ZM756.441 86.56C759.401 86.56 761.001 84.16 761.001 80.4C761.001 76.64 759.401 74.32 756.441 74.32C753.481 74.32 751.721 76.56 751.721 80.32C751.721 84.32 753.481 86.56 756.441 86.56ZM788.201 124.96C778.761 124.96 773.081 118.72 773.081 110.48C773.081 102.32 779.641 96.24 788.281 96.24C796.921 96.24 803.401 102 803.401 110.24C803.401 118.56 797.481 124.96 788.201 124.96ZM788.281 116.56C791.321 116.56 792.921 114.24 792.921 110.4C792.921 106.72 791.321 104.4 788.281 104.4C785.401 104.4 783.641 106.64 783.641 110.4C783.641 114.4 785.401 116.56 788.281 116.56Z" fill="white"/>
<path d="M652.96 372L668.96 328.08H645.92V314.8H689.44V316.48L669.6 372H652.96ZM714.907 372.96C699.707 372.96 692.827 364.72 692.427 354H707.307C707.867 358 709.467 360.64 714.747 360.64C719.467 360.64 721.627 357.12 721.627 352.56C721.627 347.44 718.827 344.4 713.867 344.4C709.227 344.4 706.347 346.24 704.427 348.48H694.667L695.867 314.8H734.427V326.8H707.707L707.387 339.44C709.547 336.32 713.627 333.36 720.747 333.36C731.227 333.36 738.107 340.4 738.107 352.8C738.107 364.96 729.387 372.96 714.907 372.96ZM756.314 342.88C746.874 342.88 741.194 336.64 741.194 328.4C741.194 320.32 747.674 314.16 756.394 314.16C764.954 314.16 771.514 320 771.514 328.16C771.514 336.48 765.594 342.88 756.314 342.88ZM748.634 372L788.314 314.8H796.154L756.474 372H748.634ZM756.394 334.56C759.354 334.56 760.954 332.16 760.954 328.4C760.954 324.64 759.354 322.32 756.394 322.32C753.434 322.32 751.674 324.56 751.674 328.32C751.674 332.32 753.434 334.56 756.394 334.56ZM788.154 372.96C778.714 372.96 773.034 366.72 773.034 358.48C773.034 350.32 779.594 344.24 788.234 344.24C796.874 344.24 803.354 350 803.354 358.24C803.354 366.56 797.434 372.96 788.154 372.96ZM788.234 364.56C791.274 364.56 792.874 362.24 792.874 358.4C792.874 354.72 791.274 352.4 788.234 352.4C785.354 352.4 783.594 354.64 783.594 358.4C783.594 362.4 785.354 364.56 788.234 364.56Z" fill="white"/>
<path d="M670.28 621V610.04H642.44V603.88L666.28 563.8H686.04V598.76H693.4V610.04H686.04V621H670.28ZM657.88 598.76H670.68V576.12L657.88 598.76ZM722.259 621.96C707.859 621.96 698.419 615.96 698.419 604.84C698.419 598.28 702.019 593.24 708.819 590.84C703.859 588.6 700.819 584.76 700.819 579C700.819 568.76 710.659 563 722.419 563C734.579 563 744.019 568.76 744.019 578.92C744.019 584.76 740.819 588.52 735.939 590.76C742.739 593.08 746.179 597.96 746.179 604.44C746.179 615.48 736.739 621.96 722.259 621.96ZM722.499 586.6C726.259 586.6 729.219 584.2 729.219 580.28C729.219 576.44 726.179 574.04 722.419 574.04C718.739 574.04 715.699 576.44 715.699 580.28C715.699 584.2 718.819 586.6 722.499 586.6ZM722.339 610.44C726.899 610.44 730.099 607.72 730.099 603.16C730.099 598.6 726.979 595.88 722.419 595.88C717.939 595.88 714.579 598.52 714.579 603.16C714.579 607.72 717.859 610.44 722.339 610.44ZM764.954 591.88C755.514 591.88 749.834 585.64 749.834 577.4C749.834 569.32 756.314 563.16 765.034 563.16C773.594 563.16 780.154 569 780.154 577.16C780.154 585.48 774.234 591.88 764.954 591.88ZM757.274 621L796.954 563.8H804.794L765.114 621H757.274ZM765.034 583.56C767.994 583.56 769.594 581.16 769.594 577.4C769.594 573.64 767.994 571.32 765.034 571.32C762.074 571.32 760.314 573.56 760.314 577.32C760.314 581.32 762.074 583.56 765.034 583.56ZM796.794 621.96C787.354 621.96 781.674 615.72 781.674 607.48C781.674 599.32 788.234 593.24 796.874 593.24C805.514 593.24 811.994 599 811.994 607.24C811.994 615.56 806.074 621.96 796.794 621.96ZM796.874 613.56C799.914 613.56 801.514 611.24 801.514 607.4C801.514 603.72 799.914 601.4 796.874 601.4C793.994 601.4 792.234 603.64 792.234 607.4C792.234 611.4 793.994 613.56 796.874 613.56Z" fill="white"/>
<path d="M139.56 621.96C124.36 621.96 117.48 613.72 117.08 603H131.96C132.52 607 134.12 609.64 139.4 609.64C144.12 609.64 146.28 606.12 146.28 601.56C146.28 596.44 143.48 593.4 138.52 593.4C133.88 593.4 131 595.24 129.08 597.48H119.32L120.52 563.8H159.08V575.8H132.36L132.04 588.44C134.2 585.32 138.28 582.36 145.4 582.36C155.88 582.36 162.76 589.4 162.76 601.8C162.76 613.96 154.04 621.96 139.56 621.96ZM192.352 621.96C177.952 621.96 168.512 615.96 168.512 604.84C168.512 598.28 172.112 593.24 178.913 590.84C173.952 588.6 170.912 584.76 170.912 579C170.912 568.76 180.753 563 192.513 563C204.673 563 214.113 568.76 214.113 578.92C214.113 584.76 210.912 588.52 206.033 590.76C212.833 593.08 216.273 597.96 216.273 604.44C216.273 615.48 206.832 621.96 192.352 621.96ZM192.593 586.6C196.353 586.6 199.313 584.2 199.313 580.28C199.313 576.44 196.272 574.04 192.513 574.04C188.832 574.04 185.792 576.44 185.792 580.28C185.792 584.2 188.913 586.6 192.593 586.6ZM192.433 610.44C196.992 610.44 200.193 607.72 200.193 603.16C200.193 598.6 197.073 595.88 192.513 595.88C188.033 595.88 184.672 598.52 184.672 603.16C184.672 607.72 187.952 610.44 192.433 610.44ZM235.048 591.88C225.608 591.88 219.928 585.64 219.928 577.4C219.928 569.32 226.408 563.16 235.128 563.16C243.688 563.16 250.248 569 250.248 577.16C250.248 585.48 244.328 591.88 235.048 591.88ZM227.368 621L267.048 563.8H274.888L235.208 621H227.368ZM235.128 583.56C238.088 583.56 239.688 581.16 239.688 577.4C239.688 573.64 238.088 571.32 235.128 571.32C232.168 571.32 230.408 573.56 230.408 577.32C230.408 581.32 232.168 583.56 235.128 583.56ZM266.888 621.96C257.448 621.96 251.768 615.72 251.768 607.48C251.768 599.32 258.328 593.24 266.968 593.24C275.608 593.24 282.088 599 282.088 607.24C282.088 615.56 276.168 621.96 266.888 621.96ZM266.968 613.56C270.008 613.56 271.608 611.24 271.608 607.4C271.608 603.72 270.008 601.4 266.968 601.4C264.088 601.4 262.328 603.64 262.328 607.4C262.328 611.4 264.088 613.56 266.968 613.56Z" fill="white"/>
<path d="M115.64 372V369.68L135.64 348.48C141.32 342.4 145.08 337.52 145.08 332.72C145.08 328.88 143.08 326.32 139 326.32C134.92 326.32 132.36 328.8 131.64 335.6H116.76C117.32 321.28 125.96 314 139.8 314C153.8 314 161.24 321.52 161.24 332.08C161.24 339.92 156.84 345.84 150.44 352L142.44 359.76H161.64V372H115.64ZM173.744 372L189.744 328.08H166.704V314.8H210.224V316.48L190.384 372H173.744ZM228.251 342.88C218.811 342.88 213.131 336.64 213.131 328.4C213.131 320.32 219.611 314.16 228.331 314.16C236.891 314.16 243.451 320 243.451 328.16C243.451 336.48 237.531 342.88 228.251 342.88ZM220.571 372L260.251 314.8H268.091L228.411 372H220.571ZM228.331 334.56C231.291 334.56 232.891 332.16 232.891 328.4C232.891 324.64 231.291 322.32 228.331 322.32C225.371 322.32 223.611 324.56 223.611 328.32C223.611 332.32 225.371 334.56 228.331 334.56ZM260.091 372.96C250.651 372.96 244.971 366.72 244.971 358.48C244.971 350.32 251.531 344.24 260.171 344.24C268.811 344.24 275.291 350 275.291 358.24C275.291 366.56 269.371 372.96 260.091 372.96ZM260.171 364.56C263.211 364.56 264.811 362.24 264.811 358.4C264.811 354.72 263.211 352.4 260.171 352.4C257.291 352.4 255.531 354.64 255.531 358.4C255.531 362.4 257.291 364.56 260.171 364.56Z" fill="white"/>
<path d="M127.768 177.352C120.28 177.352 116.28 172.744 116.28 165.704V165.448C116.28 158.504 121.144 153.768 127.64 153.768C133.144 153.768 137.24 156.456 137.784 162.088H132.472C132.088 159.336 130.552 157.864 127.672 157.864C124.056 157.864 121.752 160.68 121.752 165.416V165.672C121.752 170.408 123.928 173.16 127.704 173.16C130.552 173.16 132.536 171.72 132.952 168.776H138.04C137.464 174.44 133.4 177.352 127.768 177.352ZM146.005 177.352C142.965 177.352 140.405 175.88 140.405 172.36C140.405 168.456 143.989 166.984 149.109 166.984H150.997V166.312C150.997 164.328 150.389 163.24 148.277 163.24C146.453 163.24 145.621 164.168 145.429 165.608H141.045C141.333 161.64 144.469 159.88 148.565 159.88C152.661 159.88 155.573 161.544 155.573 166.088V177H151.061V174.984C150.101 176.328 148.629 177.352 146.005 177.352ZM147.381 174.12C149.429 174.12 150.997 173 150.997 171.144V169.736H149.205C146.517 169.736 144.949 170.312 144.949 172.104C144.949 173.32 145.685 174.12 147.381 174.12ZM159.875 177V160.264H164.515V163.464C165.571 161.224 167.203 160.04 169.924 160.008V164.328C166.5 164.296 164.515 165.416 164.515 168.616V177H159.875ZM180.72 177.352C175.664 177.352 171.984 174.184 171.984 168.84V168.584C171.984 163.304 175.728 159.88 180.592 159.88C184.912 159.88 188.752 162.408 188.752 168.392V169.672H176.688C176.816 172.456 178.32 174.056 180.848 174.056C182.992 174.056 184.048 173.128 184.336 171.72H188.72C188.176 175.336 185.296 177.352 180.72 177.352ZM176.752 166.824H184.24C184.08 164.296 182.8 163.08 180.592 163.08C178.512 163.08 177.104 164.456 176.752 166.824ZM199.533 183.176C194.125 183.176 191.661 180.808 191.213 177.352H195.821C196.109 178.824 197.165 179.784 199.533 179.784C202.349 179.784 203.757 178.312 203.757 175.688V173.16C202.829 174.792 200.845 176.264 198.381 176.264C194.317 176.264 191.085 173.224 191.085 168.264V168.04C191.085 163.24 194.285 159.88 198.445 159.88C201.165 159.88 202.797 161.064 203.757 162.76V160.264H208.365V175.688C208.333 180.648 205.037 183.176 199.533 183.176ZM199.757 172.776C202.189 172.776 203.885 171.048 203.885 168.2V167.976C203.885 165.128 202.381 163.4 199.853 163.4C197.261 163.4 195.821 165.256 195.821 168.008V168.264C195.821 171.048 197.453 172.776 199.757 172.776ZM215.173 157.992C213.701 157.992 212.549 156.904 212.549 155.464C212.549 154.024 213.701 152.936 215.173 152.936C216.677 152.936 217.829 154.024 217.829 155.464C217.829 156.904 216.677 157.992 215.173 157.992ZM212.901 177V160.264H217.509V177H212.901ZM226.605 177L220.493 160.264H225.453L229.453 172.232L233.421 160.264H237.901L231.821 177H226.605ZM247.687 177.352C242.631 177.352 238.951 174.184 238.951 168.84V168.584C238.951 163.304 242.695 159.88 247.559 159.88C251.879 159.88 255.719 162.408 255.719 168.392V169.672H243.655C243.783 172.456 245.287 174.056 247.815 174.056C249.959 174.056 251.015 173.128 251.303 171.72H255.687C255.143 175.336 252.263 177.352 247.687 177.352ZM243.719 166.824H251.207C251.047 164.296 249.767 163.08 247.559 163.08C245.479 163.08 244.071 164.456 243.719 166.824ZM259.077 177V160.264H263.717V163.464C264.773 161.224 266.405 160.04 269.125 160.008V164.328C265.701 164.296 263.717 165.416 263.717 168.616V177H259.077ZM278.539 177.352C274.027 177.352 271.403 175.368 271.243 171.752H275.563C275.755 173.256 276.491 174.12 278.507 174.12C280.299 174.12 281.131 173.448 281.131 172.296C281.131 171.144 280.139 170.664 277.739 170.312C273.291 169.64 271.563 168.36 271.563 165.096C271.563 161.608 274.763 159.88 278.187 159.88C281.899 159.88 284.683 161.224 285.099 165.064H280.843C280.587 163.688 279.819 163.048 278.219 163.048C276.715 163.048 275.851 163.752 275.851 164.776C275.851 165.832 276.651 166.248 279.083 166.6C283.275 167.208 285.579 168.264 285.579 171.848C285.579 175.464 282.955 177.352 278.539 177.352ZM297.024 177V163.56H294.816V160.264H297.024V158.344C297.024 154.44 299.296 152.488 303.008 152.488C304 152.488 304.672 152.584 305.408 152.808V156.296C304.96 156.136 304.384 156.008 303.712 156.008C302.24 156.008 301.632 156.936 301.632 158.216V160.264H305.28V163.56H301.632V177H297.024ZM315.539 177.352C310.547 177.352 306.739 174.024 306.739 168.808V168.552C306.739 163.304 310.547 159.88 315.571 159.88C320.595 159.88 324.371 163.24 324.371 168.456V168.712C324.371 173.992 320.563 177.352 315.539 177.352ZM315.571 173.832C318.163 173.832 319.667 171.912 319.667 168.744V168.52C319.667 165.32 318.163 163.4 315.571 163.4C313.011 163.4 311.475 165.256 311.475 168.456V168.712C311.475 171.912 312.947 173.832 315.571 173.832ZM327.802 177V160.264H332.442V163.464C333.498 161.224 335.13 160.04 337.85 160.008V164.328C334.426 164.296 332.442 165.416 332.442 168.616V177H327.802ZM121.56 218.352C118.52 218.352 115.96 216.88 115.96 213.36C115.96 209.456 119.544 207.984 124.664 207.984H126.552V207.312C126.552 205.328 125.944 204.24 123.832 204.24C122.008 204.24 121.176 205.168 120.984 206.608H116.6C116.888 202.64 120.024 200.88 124.12 200.88C128.216 200.88 131.128 202.544 131.128 207.088V218H126.616V215.984C125.656 217.328 124.184 218.352 121.56 218.352ZM122.936 215.12C124.984 215.12 126.552 214 126.552 212.144V210.736H124.76C122.072 210.736 120.504 211.312 120.504 213.104C120.504 214.32 121.24 215.12 122.936 215.12ZM141.703 218.352C137.638 218.352 134.438 215.44 134.438 209.872V209.616C134.438 204.112 137.606 200.88 141.799 200.88C144.486 200.88 146.151 202.064 147.079 203.76V193.68H151.687V218H147.079V215.216C146.215 216.912 144.167 218.352 141.703 218.352ZM143.078 214.736C145.51 214.736 147.207 213.104 147.207 209.712V209.456C147.207 206.128 145.734 204.432 143.207 204.432C140.615 204.432 139.174 206.192 139.174 209.52V209.776C139.174 213.104 140.774 214.736 143.078 214.736ZM161.693 218.352C158.429 218.352 155.997 216.432 155.997 212.048V201.264H160.605V211.408C160.605 213.68 161.533 214.768 163.517 214.768C165.469 214.768 167.005 213.552 167.005 211.088V201.264H171.614V218H167.005V215.376C166.141 217.072 164.445 218.352 161.693 218.352ZM176.167 218V193.68H180.775V218H176.167ZM191.44 218.32C187.92 218.32 186.032 216.528 186.032 213.04V204.56H183.888V201.264H186.032V197.648H190.64V201.264H194.16V204.56H190.64V212.624C190.64 213.968 191.312 214.608 192.496 214.608C193.2 214.608 193.712 214.512 194.256 214.288V217.872C193.616 218.096 192.688 218.32 191.44 218.32ZM212.9 218.352C207.908 218.352 204.1 215.024 204.1 209.808V209.552C204.1 204.304 207.908 200.88 212.932 200.88C217.956 200.88 221.732 204.24 221.732 209.456V209.712C221.732 214.992 217.924 218.352 212.9 218.352ZM212.932 214.832C215.524 214.832 217.028 212.912 217.028 209.744V209.52C217.028 206.32 215.524 204.4 212.932 204.4C210.372 204.4 208.836 206.256 208.836 209.456V209.712C208.836 212.912 210.308 214.832 212.932 214.832ZM225.163 218V201.264H229.803V204.464C230.859 202.224 232.491 201.04 235.211 201.008V205.328C231.787 205.296 229.803 206.416 229.803 209.616V218H225.163ZM253.575 218.352C248.679 218.352 244.967 215.312 244.967 209.84V209.584C244.967 204.176 248.839 200.88 253.607 200.88C257.479 200.88 261.063 202.576 261.479 207.376H257.095C256.775 205.424 255.591 204.528 253.703 204.528C251.303 204.528 249.703 206.32 249.703 209.52V209.776C249.703 213.136 251.207 214.864 253.799 214.864C255.655 214.864 257.159 213.776 257.383 211.632H261.575C261.319 215.6 258.439 218.352 253.575 218.352ZM264.81 218V193.68H269.45V203.92C270.282 202.256 272.106 200.88 274.89 200.88C278.186 200.88 280.522 202.864 280.522 207.344V218H275.882V208.016C275.882 205.744 274.986 204.656 272.938 204.656C270.954 204.656 269.45 205.872 269.45 208.336V218H264.81ZM287.218 198.992C285.746 198.992 284.594 197.904 284.594 196.464C284.594 195.024 285.746 193.936 287.218 193.936C288.722 193.936 289.874 195.024 289.874 196.464C289.874 197.904 288.722 198.992 287.218 198.992ZM284.946 218V201.264H289.554V218H284.946ZM294.266 218V193.68H298.874V218H294.266ZM309.699 218.352C305.635 218.352 302.435 215.44 302.435 209.872V209.616C302.435 204.112 305.603 200.88 309.795 200.88C312.483 200.88 314.147 202.064 315.075 203.76V193.68H319.683V218H315.075V215.216C314.211 216.912 312.163 218.352 309.699 218.352ZM311.075 214.736C313.507 214.736 315.203 213.104 315.203 209.712V209.456C315.203 206.128 313.731 204.432 311.203 204.432C308.611 204.432 307.171 206.192 307.171 209.52V209.776C307.171 213.104 308.771 214.736 311.075 214.736ZM336.208 222.736C333.552 219.6 330.864 214.832 330.864 207.984C330.864 201.136 333.552 196.368 336.208 193.232H340.016C337.616 196.592 335.376 201.328 335.376 207.984C335.376 214.64 337.616 219.344 340.016 222.736H336.208ZM352.488 218.352C346.472 218.352 343.048 215.152 343.048 209.072V195.12H348.264V208.752C348.264 212.56 349.384 214.224 352.52 214.224C355.592 214.224 356.936 212.752 356.936 208.56V195.12H362.152V208.88C362.152 215.12 358.664 218.352 352.488 218.352ZM367.956 218.288C366.356 218.288 365.108 217.04 365.108 215.472C365.108 213.936 366.356 212.688 367.956 212.688C369.588 212.688 370.836 213.936 370.836 215.472C370.836 217.04 369.588 218.288 367.956 218.288ZM383.005 218.352C376.733 218.352 373.853 215.408 373.565 210.832H378.525C378.749 212.88 379.613 214.576 383.005 214.576C385.277 214.576 386.781 213.328 386.781 211.536C386.781 209.712 385.821 209.072 382.461 208.56C376.605 207.792 374.205 206.032 374.205 201.616C374.205 197.712 377.469 194.8 382.525 194.8C387.677 194.8 390.685 197.104 391.101 201.648H386.333C386.013 199.568 384.797 198.608 382.525 198.608C380.253 198.608 379.101 199.664 379.101 201.2C379.101 202.832 379.837 203.6 383.357 204.112C388.893 204.816 391.741 206.32 391.741 211.056C391.741 215.12 388.413 218.352 383.005 218.352ZM397.283 218.288C395.683 218.288 394.435 217.04 394.435 215.472C394.435 213.936 395.683 212.688 397.283 212.688C398.915 212.688 400.163 213.936 400.163 215.472C400.163 217.04 398.915 218.288 397.283 218.288ZM402.786 222.672C405.154 219.312 407.394 214.576 407.394 207.92C407.394 201.264 405.154 196.56 402.786 193.168H406.594C409.218 196.304 411.906 201.04 411.906 207.92C411.906 214.768 409.218 219.536 406.594 222.672H402.786Z" fill="white"/>
<path d="M124.824 426.352C119.832 426.352 116.024 423.024 116.024 417.808V417.552C116.024 412.304 119.832 408.88 124.856 408.88C129.88 408.88 133.656 412.24 133.656 417.456V417.712C133.656 422.992 129.848 426.352 124.824 426.352ZM124.856 422.832C127.448 422.832 128.952 420.912 128.952 417.744V417.52C128.952 414.32 127.448 412.4 124.856 412.4C122.296 412.4 120.76 414.256 120.76 417.456V417.712C120.76 420.912 122.232 422.832 124.856 422.832ZM137.855 426V412.56H135.647V409.264H137.855V407.344C137.855 403.44 140.127 401.488 143.839 401.488C144.831 401.488 145.503 401.584 146.239 401.808V405.296C145.791 405.136 145.215 405.008 144.543 405.008C143.071 405.008 142.463 405.936 142.463 407.216V409.264H146.111V412.56H142.463V426H137.855ZM156.695 431.696V409.264H161.335V411.888C162.263 410.288 164.215 408.88 166.679 408.88C170.775 408.88 173.976 411.92 173.976 417.456V417.712C173.976 423.248 170.84 426.352 166.679 426.352C164.087 426.352 162.199 425.072 161.335 423.44V431.696H156.695ZM165.303 422.736C167.863 422.736 169.271 421.008 169.271 417.744V417.488C169.271 414.096 167.608 412.432 165.271 412.432C162.839 412.432 161.175 414.128 161.175 417.488V417.744C161.175 421.104 162.775 422.736 165.303 422.736ZM185.166 426.352C180.174 426.352 176.366 423.024 176.366 417.808V417.552C176.366 412.304 180.174 408.88 185.198 408.88C190.222 408.88 193.998 412.24 193.998 417.456V417.712C193.998 422.992 190.19 426.352 185.166 426.352ZM185.198 422.832C187.79 422.832 189.294 420.912 189.294 417.744V417.52C189.294 414.32 187.79 412.4 185.198 412.4C182.638 412.4 181.102 414.256 181.102 417.456V417.712C181.102 420.912 182.574 422.832 185.198 422.832ZM203.572 426.352C199.06 426.352 196.436 424.368 196.276 420.752H200.596C200.788 422.256 201.524 423.12 203.54 423.12C205.332 423.12 206.164 422.448 206.164 421.296C206.164 420.144 205.172 419.664 202.772 419.312C198.324 418.64 196.596 417.36 196.596 414.096C196.596 410.608 199.796 408.88 203.22 408.88C206.932 408.88 209.716 410.224 210.132 414.064H205.876C205.62 412.688 204.852 412.048 203.252 412.048C201.748 412.048 200.884 412.752 200.884 413.776C200.884 414.832 201.684 415.248 204.116 415.6C208.308 416.208 210.612 417.264 210.612 420.848C210.612 424.464 207.988 426.352 203.572 426.352ZM216.274 406.992C214.802 406.992 213.65 405.904 213.65 404.464C213.65 403.024 214.802 401.936 216.274 401.936C217.778 401.936 218.93 403.024 218.93 404.464C218.93 405.904 217.778 406.992 216.274 406.992ZM214.002 426V409.264H218.61V426H214.002ZM229.306 426.32C225.786 426.32 223.898 424.528 223.898 421.04V412.56H221.754V409.264H223.898V405.648H228.506V409.264H232.026V412.56H228.506V420.624C228.506 421.968 229.178 422.608 230.362 422.608C231.066 422.608 231.578 422.512 232.122 422.288V425.872C231.482 426.096 230.554 426.32 229.306 426.32ZM237.977 406.992C236.505 406.992 235.353 405.904 235.353 404.464C235.353 403.024 236.505 401.936 237.977 401.936C239.481 401.936 240.633 403.024 240.633 404.464C240.633 405.904 239.481 406.992 237.977 406.992ZM235.705 426V409.264H240.313V426H235.705ZM249.409 426L243.297 409.264H248.257L252.257 421.232L256.225 409.264H260.705L254.625 426H249.409ZM270.491 426.352C265.435 426.352 261.755 423.184 261.755 417.84V417.584C261.755 412.304 265.499 408.88 270.363 408.88C274.683 408.88 278.523 411.408 278.523 417.392V418.672H266.459C266.587 421.456 268.091 423.056 270.619 423.056C272.763 423.056 273.819 422.128 274.107 420.72H278.491C277.947 424.336 275.067 426.352 270.491 426.352ZM266.523 415.824H274.011C273.851 413.296 272.571 412.08 270.363 412.08C268.283 412.08 266.875 413.456 266.523 415.824ZM293.806 426.352C290.766 426.352 288.206 424.88 288.206 421.36C288.206 417.456 291.79 415.984 296.91 415.984H298.798V415.312C298.798 413.328 298.19 412.24 296.078 412.24C294.254 412.24 293.422 413.168 293.23 414.608H288.846C289.134 410.64 292.27 408.88 296.366 408.88C300.462 408.88 303.374 410.544 303.374 415.088V426H298.862V423.984C297.902 425.328 296.43 426.352 293.806 426.352ZM295.182 423.12C297.23 423.12 298.798 422 298.798 420.144V418.736H297.006C294.318 418.736 292.75 419.312 292.75 421.104C292.75 422.32 293.486 423.12 295.182 423.12ZM315.261 426.352C310.365 426.352 306.653 423.312 306.653 417.84V417.584C306.653 412.176 310.525 408.88 315.293 408.88C319.165 408.88 322.749 410.576 323.165 415.376H318.781C318.461 413.424 317.277 412.528 315.389 412.528C312.989 412.528 311.389 414.32 311.389 417.52V417.776C311.389 421.136 312.893 422.864 315.485 422.864C317.341 422.864 318.845 421.776 319.069 419.632H323.261C323.005 423.6 320.125 426.352 315.261 426.352ZM332.609 426.32C329.089 426.32 327.201 424.528 327.201 421.04V412.56H325.057V409.264H327.201V405.648H331.809V409.264H335.329V412.56H331.809V420.624C331.809 421.968 332.481 422.608 333.665 422.608C334.369 422.608 334.881 422.512 335.425 422.288V425.872C334.785 426.096 333.857 426.32 332.609 426.32ZM341.279 406.992C339.807 406.992 338.655 405.904 338.655 404.464C338.655 403.024 339.807 401.936 341.279 401.936C342.783 401.936 343.935 403.024 343.935 404.464C343.935 405.904 342.783 406.992 341.279 406.992ZM339.007 426V409.264H343.615V426H339.007ZM352.711 426L346.599 409.264H351.559L355.559 421.232L359.527 409.264H364.007L357.927 426H352.711ZM369.232 406.992C367.76 406.992 366.608 405.904 366.608 404.464C366.608 403.024 367.76 401.936 369.232 401.936C370.736 401.936 371.888 403.024 371.888 404.464C371.888 405.904 370.736 406.992 369.232 406.992ZM366.96 426V409.264H371.568V426H366.96ZM382.264 426.32C378.744 426.32 376.856 424.528 376.856 421.04V412.56H374.712V409.264H376.856V405.648H381.464V409.264H384.984V412.56H381.464V420.624C381.464 421.968 382.136 422.608 383.32 422.608C384.024 422.608 384.536 422.512 385.08 422.288V425.872C384.44 426.096 383.512 426.32 382.264 426.32ZM390.934 406.992C389.462 406.992 388.31 405.904 388.31 404.464C388.31 403.024 389.462 401.936 390.934 401.936C392.438 401.936 393.59 403.024 393.59 404.464C393.59 405.904 392.438 406.992 390.934 406.992ZM388.662 426V409.264H393.27V426H388.662ZM405.566 426.352C400.51 426.352 396.83 423.184 396.83 417.84V417.584C396.83 412.304 400.574 408.88 405.438 408.88C409.758 408.88 413.598 411.408 413.598 417.392V418.672H401.534C401.662 421.456 403.166 423.056 405.694 423.056C407.838 423.056 408.894 422.128 409.182 420.72H413.566C413.022 424.336 410.142 426.352 405.566 426.352ZM401.598 415.824H409.086C408.926 413.296 407.646 412.08 405.438 412.08C403.358 412.08 401.95 413.456 401.598 415.824ZM423.192 426.352C418.68 426.352 416.056 424.368 415.896 420.752H420.216C420.408 422.256 421.144 423.12 423.16 423.12C424.952 423.12 425.784 422.448 425.784 421.296C425.784 420.144 424.792 419.664 422.392 419.312C417.944 418.64 416.216 417.36 416.216 414.096C416.216 410.608 419.416 408.88 422.84 408.88C426.552 408.88 429.336 410.224 429.752 414.064H425.496C425.24 412.688 424.472 412.048 422.872 412.048C421.368 412.048 420.504 412.752 420.504 413.776C420.504 414.832 421.304 415.248 423.736 415.6C427.928 416.208 430.232 417.264 430.232 420.848C430.232 424.464 427.608 426.352 423.192 426.352ZM121.56 467.352C118.52 467.352 115.96 465.88 115.96 462.36C115.96 458.456 119.544 456.984 124.664 456.984H126.552V456.312C126.552 454.328 125.944 453.24 123.832 453.24C122.008 453.24 121.176 454.168 120.984 455.608H116.6C116.888 451.64 120.024 449.88 124.12 449.88C128.216 449.88 131.128 451.544 131.128 456.088V467H126.616V464.984C125.656 466.328 124.184 467.352 121.56 467.352ZM122.936 464.12C124.984 464.12 126.552 463 126.552 461.144V459.736H124.76C122.072 459.736 120.504 460.312 120.504 462.104C120.504 463.32 121.24 464.12 122.936 464.12ZM135.43 467V450.264H140.07V453.464C141.127 451.224 142.759 450.04 145.479 450.008V454.328C142.055 454.296 140.07 455.416 140.07 458.616V467H135.43ZM156.275 467.352C151.219 467.352 147.539 464.184 147.539 458.84V458.584C147.539 453.304 151.283 449.88 156.147 449.88C160.467 449.88 164.307 452.408 164.307 458.392V459.672H152.243C152.371 462.456 153.875 464.056 156.403 464.056C158.547 464.056 159.603 463.128 159.891 461.72H164.275C163.731 465.336 160.851 467.352 156.275 467.352ZM152.307 456.824H159.795C159.635 454.296 158.355 453.08 156.147 453.08C154.067 453.08 152.659 454.456 152.307 456.824ZM175.078 467V450.264H179.718V453.464C180.774 451.224 182.406 450.04 185.126 450.008V454.328C181.702 454.296 179.718 455.416 179.718 458.616V467H175.078ZM195.922 467.352C190.866 467.352 187.186 464.184 187.186 458.84V458.584C187.186 453.304 190.93 449.88 195.794 449.88C200.114 449.88 203.955 452.408 203.955 458.392V459.672H191.89C192.018 462.456 193.522 464.056 196.05 464.056C198.194 464.056 199.25 463.128 199.538 461.72H203.922C203.378 465.336 200.498 467.352 195.922 467.352ZM191.954 456.824H199.442C199.282 454.296 198.002 453.08 195.794 453.08C193.714 453.08 192.306 454.456 191.954 456.824ZM213.584 467.352C209.52 467.352 206.32 464.44 206.32 458.872V458.616C206.32 453.112 209.488 449.88 213.68 449.88C216.368 449.88 218.032 451.064 218.96 452.76V442.68H223.568V467H218.96V464.216C218.096 465.912 216.048 467.352 213.584 467.352ZM214.96 463.736C217.392 463.736 219.088 462.104 219.088 458.712V458.456C219.088 455.128 217.616 453.432 215.088 453.432C212.496 453.432 211.056 455.192 211.056 458.52V458.776C211.056 462.104 212.656 463.736 214.96 463.736ZM233.575 467.352C230.311 467.352 227.879 465.432 227.879 461.048V450.264H232.487V460.408C232.487 462.68 233.415 463.768 235.399 463.768C237.351 463.768 238.887 462.552 238.887 460.088V450.264H243.495V467H238.887V464.376C238.023 466.072 236.327 467.352 233.575 467.352ZM255.504 467.352C250.608 467.352 246.896 464.312 246.896 458.84V458.584C246.896 453.176 250.768 449.88 255.536 449.88C259.408 449.88 262.992 451.576 263.408 456.376H259.024C258.704 454.424 257.52 453.528 255.632 453.528C253.232 453.528 251.632 455.32 251.632 458.52V458.776C251.632 462.136 253.136 463.864 255.728 463.864C257.584 463.864 259.088 462.776 259.312 460.632H263.504C263.248 464.6 260.368 467.352 255.504 467.352ZM274.453 467.352C269.397 467.352 265.717 464.184 265.717 458.84V458.584C265.717 453.304 269.461 449.88 274.325 449.88C278.645 449.88 282.485 452.408 282.485 458.392V459.672H270.421C270.549 462.456 272.053 464.056 274.581 464.056C276.725 464.056 277.781 463.128 278.069 461.72H282.453C281.909 465.336 279.029 467.352 274.453 467.352ZM270.485 456.824H277.973C277.813 454.296 276.533 453.08 274.325 453.08C272.245 453.08 270.837 454.456 270.485 456.824ZM292.114 467.352C288.05 467.352 284.85 464.44 284.85 458.872V458.616C284.85 453.112 288.018 449.88 292.21 449.88C294.898 449.88 296.562 451.064 297.49 452.76V442.68H302.098V467H297.49V464.216C296.626 465.912 294.578 467.352 292.114 467.352ZM293.49 463.736C295.922 463.736 297.618 462.104 297.618 458.712V458.456C297.618 455.128 296.146 453.432 293.618 453.432C291.026 453.432 289.586 455.192 289.586 458.52V458.776C289.586 462.104 291.186 463.736 293.49 463.736Z" fill="white"/>
<path d="M644.464 177V154.12H651.952C659.984 154.12 663.952 158.472 663.952 165.32V165.576C663.952 172.424 659.952 177 651.92 177H644.464ZM649.648 172.968H651.76C656.368 172.968 658.544 170.376 658.544 165.64V165.384C658.544 160.68 656.528 158.152 651.696 158.152H649.648V172.968ZM675.299 177.352C670.243 177.352 666.563 174.184 666.563 168.84V168.584C666.563 163.304 670.307 159.88 675.171 159.88C679.491 159.88 683.331 162.408 683.331 168.392V169.672H671.267C671.395 172.456 672.899 174.056 675.427 174.056C677.571 174.056 678.627 173.128 678.915 171.72H683.299C682.755 175.336 679.875 177.352 675.299 177.352ZM671.331 166.824H678.819C678.659 164.296 677.379 163.08 675.171 163.08C673.091 163.08 671.683 164.456 671.331 166.824ZM692.924 177.352C688.412 177.352 685.788 175.368 685.628 171.752H689.948C690.14 173.256 690.876 174.12 692.892 174.12C694.684 174.12 695.516 173.448 695.516 172.296C695.516 171.144 694.524 170.664 692.124 170.312C687.676 169.64 685.948 168.36 685.948 165.096C685.948 161.608 689.148 159.88 692.572 159.88C696.284 159.88 699.068 161.224 699.484 165.064H695.228C694.972 163.688 694.204 163.048 692.604 163.048C691.1 163.048 690.236 163.752 690.236 164.776C690.236 165.832 691.036 166.248 693.468 166.6C697.66 167.208 699.964 168.264 699.964 171.848C699.964 175.464 697.34 177.352 692.924 177.352ZM705.627 157.992C704.155 157.992 703.003 156.904 703.003 155.464C703.003 154.024 704.155 152.936 705.627 152.936C707.131 152.936 708.283 154.024 708.283 155.464C708.283 156.904 707.131 157.992 705.627 157.992ZM703.355 177V160.264H707.963V177H703.355ZM712.547 177V160.264H717.187V163.464C718.243 161.224 719.875 160.04 722.595 160.008V164.328C719.171 164.296 717.187 165.416 717.187 168.616V177H712.547ZM733.391 177.352C728.335 177.352 724.655 174.184 724.655 168.84V168.584C724.655 163.304 728.399 159.88 733.263 159.88C737.583 159.88 741.423 162.408 741.423 168.392V169.672H729.359C729.487 172.456 730.991 174.056 733.519 174.056C735.663 174.056 736.719 173.128 737.007 171.72H741.391C740.847 175.336 737.967 177.352 733.391 177.352ZM729.423 166.824H736.911C736.751 164.296 735.471 163.08 733.263 163.08C731.183 163.08 729.775 164.456 729.423 166.824ZM752.61 177V154.12H757.794V163.464H766.978V154.12H772.162V177H766.978V167.56H757.794V177H752.61ZM784.539 177.352C779.483 177.352 775.803 174.184 775.803 168.84V168.584C775.803 163.304 779.547 159.88 784.411 159.88C788.731 159.88 792.571 162.408 792.571 168.392V169.672H780.507C780.635 172.456 782.139 174.056 784.667 174.056C786.811 174.056 787.867 173.128 788.155 171.72H792.539C791.995 175.336 789.115 177.352 784.539 177.352ZM780.571 166.824H788.059C787.899 164.296 786.619 163.08 784.411 163.08C782.331 163.08 780.923 164.456 780.571 166.824ZM800.596 177.352C797.556 177.352 794.996 175.88 794.996 172.36C794.996 168.456 798.58 166.984 803.7 166.984H805.588V166.312C805.588 164.328 804.98 163.24 802.868 163.24C801.044 163.24 800.212 164.168 800.02 165.608H795.636C795.924 161.64 799.06 159.88 803.156 159.88C807.252 159.88 810.164 161.544 810.164 166.088V177H805.652V174.984C804.692 176.328 803.22 177.352 800.596 177.352ZM801.972 174.12C804.02 174.12 805.588 173 805.588 171.144V169.736H803.796C801.108 169.736 799.54 170.312 799.54 172.104C799.54 173.32 800.276 174.12 801.972 174.12ZM814.595 177V152.68H819.203V177H814.595ZM829.868 177.32C826.348 177.32 824.46 175.528 824.46 172.04V163.56H822.316V160.264H824.46V156.648H829.068V160.264H832.588V163.56H829.068V171.624C829.068 172.968 829.74 173.608 830.924 173.608C831.628 173.608 832.14 173.512 832.684 173.288V176.872C832.044 177.096 831.116 177.32 829.868 177.32ZM836.138 177V152.68H840.778V162.92C841.61 161.256 843.434 159.88 846.218 159.88C849.514 159.88 851.85 161.864 851.85 166.344V177H847.21V167.016C847.21 164.744 846.314 163.656 844.266 163.656C842.282 163.656 840.778 164.872 840.778 167.336V177H836.138ZM863.975 177V154.12H871.463C879.495 154.12 883.463 158.472 883.463 165.32V165.576C883.463 172.424 879.463 177 871.431 177H863.975ZM869.159 172.968H871.271C875.879 172.968 878.055 170.376 878.055 165.64V165.384C878.055 160.68 876.039 158.152 871.207 158.152H869.159V172.968ZM891.548 177.352C888.508 177.352 885.948 175.88 885.948 172.36C885.948 168.456 889.532 166.984 894.652 166.984H896.54V166.312C896.54 164.328 895.932 163.24 893.82 163.24C891.996 163.24 891.164 164.168 890.972 165.608H886.588C886.876 161.64 890.012 159.88 894.108 159.88C898.204 159.88 901.116 161.544 901.116 166.088V177H896.604V174.984C895.644 176.328 894.172 177.352 891.548 177.352ZM892.924 174.12C894.972 174.12 896.54 173 896.54 171.144V169.736H894.748C892.06 169.736 890.492 170.312 890.492 172.104C890.492 173.32 891.228 174.12 892.924 174.12ZM911.467 177.32C907.947 177.32 906.059 175.528 906.059 172.04V163.56H903.915V160.264H906.059V156.648H910.667V160.264H914.187V163.56H910.667V171.624C910.667 172.968 911.339 173.608 912.523 173.608C913.227 173.608 913.739 173.512 914.283 173.288V176.872C913.643 177.096 912.715 177.32 911.467 177.32ZM922.344 177.352C919.304 177.352 916.744 175.88 916.744 172.36C916.744 168.456 920.328 166.984 925.448 166.984H927.336V166.312C927.336 164.328 926.728 163.24 924.616 163.24C922.792 163.24 921.96 164.168 921.768 165.608H917.384C917.672 161.64 920.808 159.88 924.904 159.88C929 159.88 931.912 161.544 931.912 166.088V177H927.4V174.984C926.44 176.328 924.968 177.352 922.344 177.352ZM923.72 174.12C925.768 174.12 927.336 173 927.336 171.144V169.736H925.544C922.856 169.736 921.288 170.312 921.288 172.104C921.288 173.32 922.024 174.12 923.72 174.12ZM648.944 218V199.152H642.768V195.12H660.336V199.152H654.16V218H648.944ZM663.462 218V193.68H668.102V203.92C668.934 202.256 670.758 200.88 673.542 200.88C676.838 200.88 679.174 202.864 679.174 207.344V218H674.534V208.016C674.534 205.744 673.638 204.656 671.59 204.656C669.606 204.656 668.102 205.872 668.102 208.336V218H663.462ZM683.469 218V201.264H688.109V204.464C689.165 202.224 690.797 201.04 693.517 201.008V205.328C690.093 205.296 688.109 206.416 688.109 209.616V218H683.469ZM704.378 218.352C699.386 218.352 695.578 215.024 695.578 209.808V209.552C695.578 204.304 699.386 200.88 704.41 200.88C709.434 200.88 713.21 204.24 713.21 209.456V209.712C713.21 214.992 709.402 218.352 704.378 218.352ZM704.41 214.832C707.002 214.832 708.506 212.912 708.506 209.744V209.52C708.506 206.32 707.002 204.4 704.41 204.4C701.85 204.4 700.314 206.256 700.314 209.456V209.712C700.314 212.912 701.786 214.832 704.41 214.832ZM722.208 218.352C718.944 218.352 716.512 216.432 716.512 212.048V201.264H721.12V211.408C721.12 213.68 722.048 214.768 724.032 214.768C725.984 214.768 727.52 213.552 727.52 211.088V201.264H732.128V218H727.52V215.376C726.656 217.072 724.96 218.352 722.208 218.352ZM743.978 224.176C738.57 224.176 736.106 221.808 735.658 218.352H740.266C740.554 219.824 741.61 220.784 743.978 220.784C746.794 220.784 748.202 219.312 748.202 216.688V214.16C747.274 215.792 745.29 217.264 742.826 217.264C738.762 217.264 735.53 214.224 735.53 209.264V209.04C735.53 204.24 738.73 200.88 742.89 200.88C745.61 200.88 747.242 202.064 748.202 203.76V201.264H752.81V216.688C752.778 221.648 749.482 224.176 743.978 224.176ZM744.202 213.776C746.634 213.776 748.33 212.048 748.33 209.2V208.976C748.33 206.128 746.826 204.4 744.298 204.4C741.706 204.4 740.266 206.256 740.266 209.008V209.264C740.266 212.048 741.898 213.776 744.202 213.776ZM757.218 218V193.68H761.858V203.92C762.69 202.256 764.514 200.88 767.298 200.88C770.594 200.88 772.93 202.864 772.93 207.344V218H768.29V208.016C768.29 205.744 767.394 204.656 765.346 204.656C763.362 204.656 761.858 205.872 761.858 208.336V218H757.218ZM783.263 218L790.783 195.12H797.535L804.959 218H799.551L797.983 212.912H789.695L788.127 218H783.263ZM793.855 199.344L790.815 209.232H796.863L793.855 199.344ZM807.991 223.696V201.264H812.631V203.888C813.559 202.288 815.511 200.88 817.975 200.88C822.071 200.88 825.271 203.92 825.271 209.456V209.712C825.271 215.248 822.135 218.352 817.975 218.352C815.383 218.352 813.495 217.072 812.631 215.44V223.696H807.991ZM816.599 214.736C819.159 214.736 820.567 213.008 820.567 209.744V209.488C820.567 206.096 818.903 204.432 816.567 204.432C814.135 204.432 812.471 206.128 812.471 209.488V209.744C812.471 213.104 814.071 214.736 816.599 214.736ZM828.685 223.696V201.264H833.325V203.888C834.253 202.288 836.205 200.88 838.669 200.88C842.765 200.88 845.965 203.92 845.965 209.456V209.712C845.965 215.248 842.829 218.352 838.669 218.352C836.077 218.352 834.189 217.072 833.325 215.44V223.696H828.685ZM837.293 214.736C839.853 214.736 841.261 213.008 841.261 209.744V209.488C841.261 206.096 839.597 204.432 837.261 204.432C834.829 204.432 833.165 206.128 833.165 209.488V209.744C833.165 213.104 834.765 214.736 837.293 214.736ZM855.523 218.352C851.011 218.352 848.387 216.368 848.227 212.752H852.547C852.739 214.256 853.475 215.12 855.491 215.12C857.283 215.12 858.115 214.448 858.115 213.296C858.115 212.144 857.123 211.664 854.723 211.312C850.275 210.64 848.547 209.36 848.547 206.096C848.547 202.608 851.747 200.88 855.171 200.88C858.883 200.88 861.667 202.224 862.083 206.064H857.827C857.571 204.688 856.803 204.048 855.203 204.048C853.699 204.048 852.835 204.752 852.835 205.776C852.835 206.832 853.635 207.248 856.067 207.6C860.259 208.208 862.563 209.264 862.563 212.848C862.563 216.464 859.939 218.352 855.523 218.352Z" fill="white"/>
<path d="M651.824 426.352C646.832 426.352 643.024 423.024 643.024 417.808V417.552C643.024 412.304 646.832 408.88 651.856 408.88C656.88 408.88 660.656 412.24 660.656 417.456V417.712C660.656 422.992 656.848 426.352 651.824 426.352ZM651.856 422.832C654.448 422.832 655.952 420.912 655.952 417.744V417.52C655.952 414.32 654.448 412.4 651.856 412.4C649.296 412.4 647.76 414.256 647.76 417.456V417.712C647.76 420.912 649.232 422.832 651.856 422.832ZM664.855 426V412.56H662.647V409.264H664.855V407.344C664.855 403.44 667.127 401.488 670.839 401.488C671.831 401.488 672.503 401.584 673.239 401.808V405.296C672.791 405.136 672.215 405.008 671.543 405.008C670.071 405.008 669.463 405.936 669.463 407.216V409.264H673.111V412.56H669.463V426H664.855ZM694.415 426.352C686.927 426.352 682.927 421.744 682.927 414.704V414.448C682.927 407.504 687.791 402.768 694.287 402.768C699.792 402.768 703.888 405.456 704.431 411.088H699.119C698.736 408.336 697.2 406.864 694.319 406.864C690.703 406.864 688.399 409.68 688.399 414.416V414.672C688.399 419.408 690.575 422.16 694.351 422.16C697.2 422.16 699.184 420.72 699.6 417.776H704.688C704.111 423.44 700.048 426.352 694.415 426.352ZM712.652 426.352C709.612 426.352 707.052 424.88 707.052 421.36C707.052 417.456 710.636 415.984 715.756 415.984H717.644V415.312C717.644 413.328 717.036 412.24 714.924 412.24C713.1 412.24 712.268 413.168 712.076 414.608H707.692C707.98 410.64 711.116 408.88 715.212 408.88C719.308 408.88 722.22 410.544 722.22 415.088V426H717.708V423.984C716.748 425.328 715.276 426.352 712.652 426.352ZM714.028 423.12C716.076 423.12 717.644 422 717.644 420.144V418.736H715.852C713.164 418.736 711.596 419.312 711.596 421.104C711.596 422.32 712.332 423.12 714.028 423.12ZM726.523 426V409.264H731.163V412.464C732.219 410.224 733.851 409.04 736.571 409.008V413.328C733.147 413.296 731.163 414.416 731.163 417.616V426H726.523ZM747.367 426.352C742.311 426.352 738.631 423.184 738.631 417.84V417.584C738.631 412.304 742.375 408.88 747.239 408.88C751.559 408.88 755.399 411.408 755.399 417.392V418.672H743.335C743.463 421.456 744.967 423.056 747.495 423.056C749.639 423.056 750.695 422.128 750.983 420.72H755.367C754.823 424.336 751.943 426.352 747.367 426.352ZM743.399 415.824H750.887C750.727 413.296 749.447 412.08 747.239 412.08C745.159 412.08 743.751 413.456 743.399 415.824ZM766.181 432.176C760.773 432.176 758.309 429.808 757.861 426.352H762.469C762.757 427.824 763.813 428.784 766.181 428.784C768.997 428.784 770.405 427.312 770.405 424.688V422.16C769.477 423.792 767.493 425.264 765.029 425.264C760.965 425.264 757.733 422.224 757.733 417.264V417.04C757.733 412.24 760.933 408.88 765.093 408.88C767.813 408.88 769.445 410.064 770.405 411.76V409.264H775.013V424.688C774.981 429.648 771.685 432.176 766.181 432.176ZM766.405 421.776C768.837 421.776 770.533 420.048 770.533 417.2V416.976C770.533 414.128 769.029 412.4 766.501 412.4C763.909 412.4 762.469 414.256 762.469 417.008V417.264C762.469 420.048 764.101 421.776 766.405 421.776ZM781.82 406.992C780.348 406.992 779.196 405.904 779.196 404.464C779.196 403.024 780.348 401.936 781.82 401.936C783.324 401.936 784.476 403.024 784.476 404.464C784.476 405.904 783.324 406.992 781.82 406.992ZM779.548 426V409.264H784.156V426H779.548ZM793.253 426L787.141 409.264H792.101L796.101 421.232L800.069 409.264H804.549L798.469 426H793.253ZM814.335 426.352C809.279 426.352 805.599 423.184 805.599 417.84V417.584C805.599 412.304 809.343 408.88 814.207 408.88C818.527 408.88 822.367 411.408 822.367 417.392V418.672H810.303C810.431 421.456 811.935 423.056 814.463 423.056C816.607 423.056 817.663 422.128 817.951 420.72H822.335C821.791 424.336 818.911 426.352 814.335 426.352ZM810.367 415.824H817.855C817.695 413.296 816.415 412.08 814.207 412.08C812.127 412.08 810.719 413.456 810.367 415.824ZM825.724 426V409.264H830.364V412.464C831.42 410.224 833.052 409.04 835.772 409.008V413.328C832.348 413.296 830.364 414.416 830.364 417.616V426H825.724ZM845.187 426.352C840.675 426.352 838.051 424.368 837.891 420.752H842.211C842.403 422.256 843.139 423.12 845.155 423.12C846.947 423.12 847.779 422.448 847.779 421.296C847.779 420.144 846.787 419.664 844.387 419.312C839.939 418.64 838.211 417.36 838.211 414.096C838.211 410.608 841.411 408.88 844.835 408.88C848.547 408.88 851.331 410.224 851.747 414.064H847.491C847.235 412.688 846.467 412.048 844.867 412.048C843.363 412.048 842.499 412.752 842.499 413.776C842.499 414.832 843.299 415.248 845.731 415.6C849.923 416.208 852.227 417.264 852.227 420.848C852.227 424.464 849.603 426.352 845.187 426.352ZM648.56 467.352C645.52 467.352 642.96 465.88 642.96 462.36C642.96 458.456 646.544 456.984 651.664 456.984H653.552V456.312C653.552 454.328 652.944 453.24 650.832 453.24C649.008 453.24 648.176 454.168 647.984 455.608H643.6C643.888 451.64 647.024 449.88 651.12 449.88C655.216 449.88 658.128 451.544 658.128 456.088V467H653.616V464.984C652.656 466.328 651.184 467.352 648.56 467.352ZM649.936 464.12C651.984 464.12 653.552 463 653.552 461.144V459.736H651.76C649.072 459.736 647.504 460.312 647.504 462.104C647.504 463.32 648.24 464.12 649.936 464.12ZM662.43 467V450.264H667.07V453.464C668.127 451.224 669.759 450.04 672.479 450.008V454.328C669.055 454.296 667.07 455.416 667.07 458.616V467H662.43ZM683.275 467.352C678.219 467.352 674.539 464.184 674.539 458.84V458.584C674.539 453.304 678.283 449.88 683.147 449.88C687.467 449.88 691.307 452.408 691.307 458.392V459.672H679.243C679.371 462.456 680.875 464.056 683.403 464.056C685.547 464.056 686.603 463.128 686.891 461.72H691.275C690.731 465.336 687.851 467.352 683.275 467.352ZM679.307 456.824H686.795C686.635 454.296 685.355 453.08 683.147 453.08C681.067 453.08 679.659 454.456 679.307 456.824ZM702.494 467V444.12H717.182V448.184H707.678V454.232H715.198V458.136H707.678V467H702.494ZM727.422 467.352C722.366 467.352 718.686 464.184 718.686 458.84V458.584C718.686 453.304 722.43 449.88 727.294 449.88C731.614 449.88 735.455 452.408 735.455 458.392V459.672H723.39C723.518 462.456 725.022 464.056 727.55 464.056C729.694 464.056 730.75 463.128 731.038 461.72H735.422C734.878 465.336 731.998 467.352 727.422 467.352ZM723.454 456.824H730.942C730.782 454.296 729.502 453.08 727.294 453.08C725.214 453.08 723.806 454.456 723.454 456.824ZM738.812 467V450.264H743.452V452.824C744.284 451.256 746.076 449.88 748.572 449.88C750.78 449.88 752.444 450.808 753.244 452.792C754.588 450.776 756.764 449.88 758.876 449.88C761.98 449.88 764.38 451.832 764.38 456.28V467H759.772V456.792C759.772 454.648 758.812 453.688 757.148 453.688C755.356 453.688 753.916 454.84 753.916 457.112V467H749.308V456.792C749.308 454.648 748.316 453.688 746.684 453.688C744.892 453.688 743.452 454.84 743.452 457.112V467H738.812ZM773.175 467.352C770.135 467.352 767.575 465.88 767.575 462.36C767.575 458.456 771.159 456.984 776.279 456.984H778.167V456.312C778.167 454.328 777.559 453.24 775.447 453.24C773.623 453.24 772.791 454.168 772.599 455.608H768.215C768.503 451.64 771.639 449.88 775.735 449.88C779.831 449.88 782.743 451.544 782.743 456.088V467H778.231V464.984C777.271 466.328 775.799 467.352 773.175 467.352ZM774.551 464.12C776.599 464.12 778.167 463 778.167 461.144V459.736H776.375C773.687 459.736 772.119 460.312 772.119 462.104C772.119 463.32 772.855 464.12 774.551 464.12ZM787.173 467V442.68H791.781V467H787.173ZM804.046 467.352C798.99 467.352 795.31 464.184 795.31 458.84V458.584C795.31 453.304 799.054 449.88 803.918 449.88C808.238 449.88 812.078 452.408 812.078 458.392V459.672H800.014C800.142 462.456 801.646 464.056 804.174 464.056C806.318 464.056 807.374 463.128 807.662 461.72H812.046C811.502 465.336 808.622 467.352 804.046 467.352ZM800.078 456.824H807.566C807.406 454.296 806.126 453.08 803.918 453.08C801.838 453.08 800.43 454.456 800.078 456.824Z" fill="white"/>
<path d="M120.592 674V651.12H125.808V674H120.592ZM130.774 674V657.264H135.414V659.92C136.246 658.256 138.07 656.88 140.854 656.88C144.15 656.88 146.486 658.864 146.486 663.344V674H141.846V664.016C141.846 661.744 140.95 660.656 138.902 660.656C136.918 660.656 135.414 661.872 135.414 664.336V674H130.774ZM158.611 674V651.12H165.459L170.804 665.36L176.083 651.12H182.804V674H177.652V657.936L171.316 674H169.62L163.251 657.936V674H158.611ZM195.259 674.352C190.203 674.352 186.523 671.184 186.523 665.84V665.584C186.523 660.304 190.267 656.88 195.131 656.88C199.451 656.88 203.291 659.408 203.291 665.392V666.672H191.227C191.355 669.456 192.859 671.056 195.387 671.056C197.531 671.056 198.587 670.128 198.875 668.72H203.259C202.715 672.336 199.835 674.352 195.259 674.352ZM191.291 663.824H198.779C198.619 661.296 197.339 660.08 195.131 660.08C193.051 660.08 191.643 661.456 191.291 663.824ZM212.92 674.352C208.856 674.352 205.656 671.44 205.656 665.872V665.616C205.656 660.112 208.824 656.88 213.016 656.88C215.704 656.88 217.368 658.064 218.296 659.76V649.68H222.904V674H218.296V671.216C217.432 672.912 215.384 674.352 212.92 674.352ZM214.296 670.736C216.728 670.736 218.424 669.104 218.424 665.712V665.456C218.424 662.128 216.952 660.432 214.424 660.432C211.832 660.432 210.392 662.192 210.392 665.52V665.776C210.392 669.104 211.992 670.736 214.296 670.736ZM229.743 654.992C228.271 654.992 227.119 653.904 227.119 652.464C227.119 651.024 228.271 649.936 229.743 649.936C231.247 649.936 232.399 651.024 232.399 652.464C232.399 653.904 231.247 654.992 229.743 654.992ZM227.471 674V657.264H232.079V674H227.471ZM242.231 674.352C238.967 674.352 236.535 672.432 236.535 668.048V657.264H241.143V667.408C241.143 669.68 242.071 670.768 244.055 670.768C246.007 670.768 247.543 669.552 247.543 667.088V657.264H252.151V674H247.543V671.376C246.679 673.072 244.983 674.352 242.231 674.352ZM256.577 674V657.264H261.217V659.824C262.049 658.256 263.841 656.88 266.337 656.88C268.545 656.88 270.209 657.808 271.009 659.792C272.353 657.776 274.529 656.88 276.641 656.88C279.745 656.88 282.145 658.832 282.145 663.28V674H277.537V663.792C277.537 661.648 276.577 660.688 274.913 660.688C273.121 660.688 271.681 661.84 271.681 664.112V674H267.073V663.792C267.073 661.648 266.081 660.688 264.449 660.688C262.657 660.688 261.217 661.84 261.217 664.112V674H256.577ZM299.954 674.32C296.434 674.32 294.546 672.528 294.546 669.04V660.56H292.402V657.264H294.546V653.648H299.154V657.264H302.674V660.56H299.154V668.624C299.154 669.968 299.826 670.608 301.01 670.608C301.714 670.608 302.226 670.512 302.77 670.288V673.872C302.13 674.096 301.202 674.32 299.954 674.32ZM314 674.352C309.008 674.352 305.2 671.024 305.2 665.808V665.552C305.2 660.304 309.008 656.88 314.032 656.88C319.056 656.88 322.832 660.24 322.832 665.456V665.712C322.832 670.992 319.024 674.352 314 674.352ZM314.032 670.832C316.624 670.832 318.128 668.912 318.128 665.744V665.52C318.128 662.32 316.624 660.4 314.032 660.4C311.472 660.4 309.936 662.256 309.936 665.456V665.712C309.936 668.912 311.408 670.832 314.032 670.832ZM334.093 674V651.12H339.277V660.464H348.461V651.12H353.645V674H348.461V664.56H339.277V674H334.093ZM360.834 654.992C359.362 654.992 358.21 653.904 358.21 652.464C358.21 651.024 359.362 649.936 360.834 649.936C362.338 649.936 363.49 651.024 363.49 652.464C363.49 653.904 362.338 654.992 360.834 654.992ZM358.562 674V657.264H363.17V674H358.562ZM375.178 680.176C369.77 680.176 367.306 677.808 366.858 674.352H371.466C371.754 675.824 372.81 676.784 375.178 676.784C377.994 676.784 379.402 675.312 379.402 672.688V670.16C378.474 671.792 376.49 673.264 374.026 673.264C369.962 673.264 366.73 670.224 366.73 665.264V665.04C366.73 660.24 369.93 656.88 374.09 656.88C376.81 656.88 378.442 658.064 379.402 659.76V657.264H384.01V672.688C383.978 677.648 380.682 680.176 375.178 680.176ZM375.402 669.776C377.834 669.776 379.53 668.048 379.53 665.2V664.976C379.53 662.128 378.026 660.4 375.498 660.4C372.906 660.4 371.466 662.256 371.466 665.008V665.264C371.466 668.048 373.098 669.776 375.402 669.776ZM388.418 674V649.68H393.058V659.92C393.89 658.256 395.714 656.88 398.498 656.88C401.794 656.88 404.13 658.864 404.13 663.344V674H399.49V664.016C399.49 661.744 398.594 660.656 396.546 660.656C394.562 660.656 393.058 661.872 393.058 664.336V674H388.418ZM120.464 715V692.12H129.456C134.448 692.12 137.04 694.168 137.04 698.072V698.2C137.04 700.6 135.888 702.36 133.328 703.096C136.304 703.704 137.904 705.4 137.904 708.472V708.6C137.904 712.792 135.152 715 129.872 715H120.464ZM125.52 701.528H128.624C131.12 701.528 132.112 700.632 132.112 698.584V698.456C132.112 696.536 131.024 695.672 128.592 695.672H125.52V701.528ZM125.52 711.416H129.072C131.632 711.416 132.784 710.264 132.784 708.184V708.056C132.784 705.944 131.632 704.856 128.816 704.856H125.52V711.416ZM147.03 715.352C143.766 715.352 141.334 713.432 141.334 709.048V698.264H145.942V708.408C145.942 710.68 146.87 711.768 148.854 711.768C150.806 711.768 152.342 710.552 152.342 708.088V698.264H156.95V715H152.342V712.376C151.478 714.072 149.782 715.352 147.03 715.352ZM161.375 715V698.264H166.015V701.464C167.071 699.224 168.703 698.04 171.424 698.008V702.328C168 702.296 166.015 703.416 166.015 706.616V715H161.375ZM180.717 715.352C176.653 715.352 173.453 712.44 173.453 706.872V706.616C173.453 701.112 176.621 697.88 180.813 697.88C183.501 697.88 185.165 699.064 186.094 700.76V690.68H190.701V715H186.094V712.216C185.229 713.912 183.181 715.352 180.717 715.352ZM182.093 711.736C184.525 711.736 186.221 710.104 186.221 706.712V706.456C186.221 703.128 184.749 701.432 182.221 701.432C179.629 701.432 178.189 703.192 178.189 706.52V706.776C178.189 710.104 179.789 711.736 182.093 711.736ZM202.852 715.352C197.796 715.352 194.116 712.184 194.116 706.84V706.584C194.116 701.304 197.86 697.88 202.724 697.88C207.044 697.88 210.885 700.408 210.885 706.392V707.672H198.82C198.948 710.456 200.452 712.056 202.98 712.056C205.124 712.056 206.18 711.128 206.468 709.72H210.852C210.309 713.336 207.428 715.352 202.852 715.352ZM198.884 704.824H206.372C206.212 702.296 204.932 701.08 202.724 701.08C200.644 701.08 199.236 702.456 198.884 704.824ZM214.242 715V698.264H218.882V700.92C219.714 699.256 221.538 697.88 224.322 697.88C227.618 697.88 229.954 699.864 229.954 704.344V715H225.314V705.016C225.314 702.744 224.418 701.656 222.37 701.656C220.386 701.656 218.882 702.872 218.882 705.336V715H214.242ZM250.079 715.352C243.807 715.352 240.927 712.408 240.639 707.832H245.599C245.823 709.88 246.687 711.576 250.079 711.576C252.351 711.576 253.855 710.328 253.855 708.536C253.855 706.712 252.895 706.072 249.535 705.56C243.679 704.792 241.279 703.032 241.279 698.616C241.279 694.712 244.543 691.8 249.599 691.8C254.751 691.8 257.759 694.104 258.175 698.648H253.407C253.087 696.568 251.871 695.608 249.599 695.608C247.327 695.608 246.175 696.664 246.175 698.2C246.175 699.832 246.911 700.6 250.431 701.112C255.967 701.816 258.815 703.32 258.815 708.056C258.815 712.12 255.487 715.352 250.079 715.352ZM264.852 695.992C263.38 695.992 262.228 694.904 262.228 693.464C262.228 692.024 263.38 690.936 264.852 690.936C266.356 690.936 267.508 692.024 267.508 693.464C267.508 694.904 266.356 695.992 264.852 695.992ZM262.58 715V698.264H267.188V715H262.58ZM277.884 715.32C274.364 715.32 272.476 713.528 272.476 710.04V701.56H270.332V698.264H272.476V694.648H277.084V698.264H280.604V701.56H277.084V709.624C277.084 710.968 277.756 711.608 278.94 711.608C279.644 711.608 280.156 711.512 280.7 711.288V714.872C280.06 715.096 279.132 715.32 277.884 715.32ZM289.722 715.352C286.458 715.352 284.026 713.432 284.026 709.048V698.264H288.634V708.408C288.634 710.68 289.562 711.768 291.546 711.768C293.498 711.768 295.034 710.552 295.034 708.088V698.264H299.642V715H295.034V712.376C294.17 714.072 292.474 715.352 289.722 715.352ZM308.58 715.352C305.54 715.352 302.98 713.88 302.98 710.36C302.98 706.456 306.564 704.984 311.684 704.984H313.572V704.312C313.572 702.328 312.964 701.24 310.852 701.24C309.028 701.24 308.196 702.168 308.004 703.608H303.62C303.908 699.64 307.044 697.88 311.14 697.88C315.236 697.88 318.148 699.544 318.148 704.088V715H313.636V712.984C312.676 714.328 311.204 715.352 308.58 715.352ZM309.956 712.12C312.004 712.12 313.572 711 313.572 709.144V707.736H311.78C309.092 707.736 307.524 708.312 307.524 710.104C307.524 711.32 308.26 712.12 309.956 712.12ZM328.5 715.32C324.98 715.32 323.092 713.528 323.092 710.04V701.56H320.948V698.264H323.092V694.648H327.7V698.264H331.22V701.56H327.7V709.624C327.7 710.968 328.372 711.608 329.556 711.608C330.26 711.608 330.772 711.512 331.316 711.288V714.872C330.676 715.096 329.748 715.32 328.5 715.32ZM337.171 695.992C335.699 695.992 334.547 694.904 334.547 693.464C334.547 692.024 335.699 690.936 337.171 690.936C338.675 690.936 339.827 692.024 339.827 693.464C339.827 694.904 338.675 695.992 337.171 695.992ZM334.899 715V698.264H339.507V715H334.899ZM351.866 715.352C346.874 715.352 343.066 712.024 343.066 706.808V706.552C343.066 701.304 346.874 697.88 351.898 697.88C356.922 697.88 360.698 701.24 360.698 706.456V706.712C360.698 711.992 356.89 715.352 351.866 715.352ZM351.898 711.832C354.49 711.832 355.994 709.912 355.994 706.744V706.52C355.994 703.32 354.49 701.4 351.898 701.4C349.338 701.4 347.802 703.256 347.802 706.456V706.712C347.802 709.912 349.274 711.832 351.898 711.832ZM364.129 715V698.264H368.769V700.92C369.601 699.256 371.425 697.88 374.209 697.88C377.505 697.88 379.841 699.864 379.841 704.344V715H375.201V705.016C375.201 702.744 374.305 701.656 372.257 701.656C370.273 701.656 368.769 702.872 368.769 705.336V715H364.129ZM390.217 715.352C385.705 715.352 383.081 713.368 382.921 709.752H387.241C387.433 711.256 388.169 712.12 390.185 712.12C391.977 712.12 392.809 711.448 392.809 710.296C392.809 709.144 391.817 708.664 389.417 708.312C384.969 707.64 383.241 706.36 383.241 703.096C383.241 699.608 386.441 697.88 389.865 697.88C393.577 697.88 396.361 699.224 396.777 703.064H392.521C392.265 701.688 391.497 701.048 389.897 701.048C388.393 701.048 387.529 701.752 387.529 702.776C387.529 703.832 388.329 704.248 390.761 704.6C394.953 705.208 397.257 706.264 397.257 709.848C397.257 713.464 394.633 715.352 390.217 715.352Z" fill="white"/>
<path d="M653.824 675.352C648.832 675.352 645.024 672.024 645.024 666.808V666.552C645.024 661.304 648.832 657.88 653.856 657.88C658.88 657.88 662.656 661.24 662.656 666.456V666.712C662.656 671.992 658.848 675.352 653.824 675.352ZM653.856 671.832C656.448 671.832 657.952 669.912 657.952 666.744V666.52C657.952 663.32 656.448 661.4 653.856 661.4C651.296 661.4 649.76 663.256 649.76 666.456V666.712C649.76 669.912 651.232 671.832 653.856 671.832ZM666.855 675V661.56H664.647V658.264H666.855V656.344C666.855 652.44 669.127 650.488 672.839 650.488C673.831 650.488 674.503 650.584 675.239 650.808V654.296C674.791 654.136 674.215 654.008 673.543 654.008C672.071 654.008 671.463 654.936 671.463 656.216V658.264H675.111V661.56H671.463V675H666.855ZM696.415 675.352C688.927 675.352 684.927 670.744 684.927 663.704V663.448C684.927 656.504 689.791 651.768 696.287 651.768C701.792 651.768 705.888 654.456 706.431 660.088H701.119C700.736 657.336 699.2 655.864 696.319 655.864C692.703 655.864 690.399 658.68 690.399 663.416V663.672C690.399 668.408 692.575 671.16 696.351 671.16C699.2 671.16 701.184 669.72 701.6 666.776H706.688C706.111 672.44 702.048 675.352 696.415 675.352ZM714.652 675.352C711.612 675.352 709.052 673.88 709.052 670.36C709.052 666.456 712.636 664.984 717.756 664.984H719.644V664.312C719.644 662.328 719.036 661.24 716.924 661.24C715.1 661.24 714.268 662.168 714.076 663.608H709.692C709.98 659.64 713.116 657.88 717.212 657.88C721.308 657.88 724.22 659.544 724.22 664.088V675H719.708V672.984C718.748 674.328 717.276 675.352 714.652 675.352ZM716.028 672.12C718.076 672.12 719.644 671 719.644 669.144V667.736H717.852C715.164 667.736 713.596 668.312 713.596 670.104C713.596 671.32 714.332 672.12 716.028 672.12ZM728.523 675V658.264H733.163V661.464C734.219 659.224 735.851 658.04 738.571 658.008V662.328C735.147 662.296 733.163 663.416 733.163 666.616V675H728.523ZM749.367 675.352C744.311 675.352 740.631 672.184 740.631 666.84V666.584C740.631 661.304 744.375 657.88 749.239 657.88C753.559 657.88 757.399 660.408 757.399 666.392V667.672H745.335C745.463 670.456 746.967 672.056 749.495 672.056C751.639 672.056 752.695 671.128 752.983 669.72H757.367C756.823 673.336 753.943 675.352 749.367 675.352ZM745.399 664.824H752.887C752.727 662.296 751.447 661.08 749.239 661.08C747.159 661.08 745.751 662.456 745.399 664.824ZM768.181 681.176C762.773 681.176 760.309 678.808 759.861 675.352H764.469C764.757 676.824 765.813 677.784 768.181 677.784C770.997 677.784 772.405 676.312 772.405 673.688V671.16C771.477 672.792 769.493 674.264 767.029 674.264C762.965 674.264 759.733 671.224 759.733 666.264V666.04C759.733 661.24 762.933 657.88 767.093 657.88C769.813 657.88 771.445 659.064 772.405 660.76V658.264H777.013V673.688C776.981 678.648 773.685 681.176 768.181 681.176ZM768.405 670.776C770.837 670.776 772.533 669.048 772.533 666.2V665.976C772.533 663.128 771.029 661.4 768.501 661.4C765.909 661.4 764.469 663.256 764.469 666.008V666.264C764.469 669.048 766.101 670.776 768.405 670.776ZM783.82 655.992C782.348 655.992 781.196 654.904 781.196 653.464C781.196 652.024 782.348 650.936 783.82 650.936C785.324 650.936 786.476 652.024 786.476 653.464C786.476 654.904 785.324 655.992 783.82 655.992ZM781.548 675V658.264H786.156V675H781.548ZM795.253 675L789.141 658.264H794.101L798.101 670.232L802.069 658.264H806.549L800.469 675H795.253ZM816.335 675.352C811.279 675.352 807.599 672.184 807.599 666.84V666.584C807.599 661.304 811.343 657.88 816.207 657.88C820.527 657.88 824.367 660.408 824.367 666.392V667.672H812.303C812.431 670.456 813.935 672.056 816.463 672.056C818.607 672.056 819.663 671.128 819.951 669.72H824.335C823.791 673.336 820.911 675.352 816.335 675.352ZM812.367 664.824H819.855C819.695 662.296 818.415 661.08 816.207 661.08C814.127 661.08 812.719 662.456 812.367 664.824ZM827.724 675V658.264H832.364V661.464C833.42 659.224 835.052 658.04 837.772 658.008V662.328C834.348 662.296 832.364 663.416 832.364 666.616V675H827.724ZM847.187 675.352C842.675 675.352 840.051 673.368 839.891 669.752H844.211C844.403 671.256 845.139 672.12 847.155 672.12C848.947 672.12 849.779 671.448 849.779 670.296C849.779 669.144 848.787 668.664 846.387 668.312C841.939 667.64 840.211 666.36 840.211 663.096C840.211 659.608 843.411 657.88 846.835 657.88C850.547 657.88 853.331 659.224 853.747 663.064H849.491C849.235 661.688 848.467 661.048 846.867 661.048C845.363 661.048 844.499 661.752 844.499 662.776C844.499 663.832 845.299 664.248 847.731 664.6C851.923 665.208 854.227 666.264 854.227 669.848C854.227 673.464 851.603 675.352 847.187 675.352ZM650.56 716.352C647.52 716.352 644.96 714.88 644.96 711.36C644.96 707.456 648.544 705.984 653.664 705.984H655.552V705.312C655.552 703.328 654.944 702.24 652.832 702.24C651.008 702.24 650.176 703.168 649.984 704.608H645.6C645.888 700.64 649.024 698.88 653.12 698.88C657.216 698.88 660.128 700.544 660.128 705.088V716H655.616V713.984C654.656 715.328 653.184 716.352 650.56 716.352ZM651.936 713.12C653.984 713.12 655.552 712 655.552 710.144V708.736H653.76C651.072 708.736 649.504 709.312 649.504 711.104C649.504 712.32 650.24 713.12 651.936 713.12ZM664.43 716V699.264H669.07V702.464C670.127 700.224 671.759 699.04 674.479 699.008V703.328C671.055 703.296 669.07 704.416 669.07 707.616V716H664.43ZM685.275 716.352C680.219 716.352 676.539 713.184 676.539 707.84V707.584C676.539 702.304 680.283 698.88 685.147 698.88C689.467 698.88 693.307 701.408 693.307 707.392V708.672H681.243C681.371 711.456 682.875 713.056 685.403 713.056C687.547 713.056 688.603 712.128 688.891 710.72H693.275C692.731 714.336 689.851 716.352 685.275 716.352ZM681.307 705.824H688.795C688.635 703.296 687.355 702.08 685.147 702.08C683.067 702.08 681.659 703.456 681.307 705.824ZM707.694 716V698.24L703.054 701.28V696.864L708.334 693.12H712.878V716H707.694ZM726.371 716.352C721.315 716.352 717.411 714.016 717.411 709.536C717.411 706.752 719.011 704.736 721.635 703.808C719.555 702.944 718.307 701.344 718.307 699.04C718.307 695.072 722.115 692.8 726.403 692.8C730.787 692.8 734.435 695.104 734.435 699.008C734.435 701.312 733.123 702.88 731.107 703.776C733.795 704.704 735.299 706.688 735.299 709.408C735.299 713.888 731.459 716.352 726.371 716.352ZM726.435 702.368C728.291 702.368 729.635 701.248 729.635 699.36C729.635 697.6 728.227 696.416 726.403 696.416C724.579 696.416 723.139 697.536 723.139 699.392C723.139 701.248 724.643 702.368 726.435 702.368ZM726.371 712.576C728.547 712.576 730.179 711.296 730.179 709.024C730.179 706.784 728.547 705.536 726.403 705.536C724.291 705.536 722.563 706.784 722.563 709.056C722.563 711.328 724.259 712.576 726.371 712.576ZM738.554 708.832V705.152H746.746V708.832H738.554ZM760.398 716V711.456H749.166V709.568L759.054 693.12H765.422V707.744H768.43V711.456H765.422V716H760.398ZM754.35 707.744H760.494V697.024L754.35 707.744ZM779.574 716.32C774.614 716.32 771.67 713.952 771.158 709.824H775.99C776.31 711.392 777.238 712.384 779.414 712.384C782.454 712.384 783.958 709.984 784.054 705.312C782.998 706.976 781.334 708.096 778.582 708.096C774.166 708.096 770.934 705.344 770.934 700.704C770.934 695.968 774.326 692.768 779.798 692.768C786.102 692.768 789.142 697.024 789.142 703.616V704.64C789.142 712.128 785.718 716.32 779.574 716.32ZM779.734 704.64C782.07 704.64 783.638 703.04 783.638 700.8C783.638 698.144 782.07 696.512 779.734 696.512C777.462 696.512 775.958 698.176 775.958 700.576C775.958 702.976 777.43 704.64 779.734 704.64ZM802.516 721.696L805.46 714.304L798.804 699.264H803.796L807.86 709.312L811.604 699.264H816.052L806.996 721.696H802.516ZM825.907 716.352C820.915 716.352 817.107 713.024 817.107 707.808V707.552C817.107 702.304 820.915 698.88 825.939 698.88C830.963 698.88 834.739 702.24 834.739 707.456V707.712C834.739 712.992 830.931 716.352 825.907 716.352ZM825.939 712.832C828.531 712.832 830.035 710.912 830.035 707.744V707.52C830.035 704.32 828.531 702.4 825.939 702.4C823.379 702.4 821.843 704.256 821.843 707.456V707.712C821.843 710.912 823.315 712.832 825.939 712.832Z" fill="white"/>
</svg>
