<svg width="962" height="362" viewBox="0 0 962 362" fill="none" xmlns="http://www.w3.org/2000/svg">
<path d="M7 257L29.6 114H71.6C119.6 114 142 138.2 142.2 175C142.2 224.6 110.6 257 59.2 257H7ZM43.4 231.8H59C90.6 231.8 108.6 211.4 108.6 176C108.6 153.6 97.4 139 70.8 139H58L43.4 231.8ZM155.094 257L177.694 114H270.294L266.294 139.2H205.894L200.694 172.6H249.294L245.694 196.2H197.094L191.294 231.8H255.494L251.494 257H155.094ZM311.625 257L286.425 114H319.625L336.225 223.8L387.625 114H419.025L348.825 257H311.625ZM416.516 257L439.116 114H531.716L527.716 139.2H467.316L462.116 172.6H510.716L507.116 196.2H458.516L452.716 231.8H516.916L512.916 257H416.516ZM538.047 257L560.647 114H593.047L574.447 231.6H632.647L628.647 257H538.047ZM796.725 175.8C796.725 224.6 763.125 259.2 716.525 259.2C677.925 259.2 648.725 234.8 648.725 196C648.725 147.8 682.325 112 728.525 112C768.725 112 796.725 137 796.725 175.8ZM762.925 176.6C762.925 155 751.525 137.8 727.725 137.6C698.925 137.4 682.325 164.6 682.325 195C682.325 218.4 695.925 233.6 718.325 233.6C746.525 233.6 762.925 207.4 762.925 176.6ZM810.406 257L833.006 114H880.206C911.406 114 929.806 128.4 929.806 153.6C929.806 188.8 904.806 205 871.806 205H851.006L842.806 257H810.406ZM854.406 182.4H871.206C889.206 182.4 898.806 173.2 898.806 156.4C898.806 144.4 891.406 138.4 876.606 138.4H861.406L854.406 182.4Z" fill="#F16562"/>
<path d="M13.8 335H16.96L23.64 312.4L30.12 335H33.32L40.76 306.4H37.52L31.64 329.56L24.92 306.4H22.44L15.72 329.48L9.92 306.4H6.36L13.8 335ZM46.3094 335H49.7894V306.4H46.3094V335ZM57.6031 335H61.0831V322.56H65.4831L74.0031 335H77.8831L69.1231 322.32C73.0431 321.56 76.2031 319.24 76.2031 314.52V314.36C76.2031 308.64 71.6831 306.4 66.2031 306.4H57.6031V335ZM61.0831 319.8V309.2H66.4431C70.3231 309.2 72.7231 310.48 72.7231 314.36V314.52C72.7231 318.04 70.5231 319.8 66.4431 319.8H61.0831ZM83.1203 335H100.52V332.16H86.6003V321.8H97.2403V318.96H86.6003V309.24H99.8003V306.4H83.1203V335ZM106.177 335H109.657V322.2H119.977V319.36H109.657V309.24H122.897V306.4H106.177V335ZM128.413 335H131.893V322.56H136.293L144.812 335H148.693L139.933 322.32C143.853 321.56 147.013 319.24 147.013 314.52V314.36C147.013 308.64 142.493 306.4 137.013 306.4H128.413V335ZM131.893 319.8V309.2H137.253C141.133 309.2 143.533 310.48 143.533 314.36V314.52C143.533 318.04 141.333 319.8 137.253 319.8H131.893ZM151.77 335H155.05L157.81 326.76H169.61L172.41 335H175.85L166.17 306.4H161.61L151.77 335ZM163.73 309.28L168.69 324H158.77L163.73 309.28ZM181.283 335H184.483V310.92L194.283 335H195.363L204.843 310.92V335H208.323V306.4H203.523L194.963 328.68L186.123 306.4H181.283V335ZM215.941 335H233.341V332.16H219.421V321.8H230.061V318.96H219.421V309.24H232.621V306.4H215.941V335ZM255.303 330.8H258.223V322.72H265.703V319.92H258.223V311.84H255.303V319.92H247.823V322.72H255.303V330.8ZM287.991 335H291.471V309.24H299.791V306.4H279.671V309.24H287.991V335ZM304.933 335H322.333V332.16H308.413V321.8H319.053V318.96H308.413V309.24H321.613V306.4H304.933V335ZM337.229 335.36C342.909 335.36 347.109 331.72 347.109 326.92C347.109 321.52 343.749 319.6 337.389 318.6C331.549 317.72 330.509 316.28 330.509 313.48C330.509 310.8 332.549 308.84 336.469 308.84C340.429 308.84 342.509 310.32 343.189 313.92H346.309C345.749 308.84 342.189 306.04 336.469 306.04C331.069 306.04 327.269 309.4 327.269 313.8C327.269 318.88 330.829 320.76 336.829 321.68C342.269 322.56 343.749 323.92 343.749 327.16C343.749 330.4 340.909 332.56 337.229 332.56C331.469 332.56 330.109 329.68 329.669 326.28H326.309C326.829 331.16 329.589 335.36 337.229 335.36ZM358.332 335H361.812V309.24H370.132V306.4H350.012V309.24H358.332V335ZM391.579 330.8H394.499V322.72H401.979V319.92H394.499V311.84H391.579V319.92H384.099V322.72H391.579V330.8ZM418.588 335H422.068V306.4H418.588V335ZM429.881 335H433.081V310.92L442.881 335H443.961L453.441 310.92V335H456.921V306.4H452.121L443.561 328.68L434.721 306.4H429.881V335ZM464.539 335H468.019V323.36H472.659C478.099 323.36 482.659 321 482.659 314.92V314.76C482.659 308.8 478.139 306.4 472.659 306.4H464.539V335ZM468.019 320.6V309.2H472.899C476.779 309.2 479.179 310.72 479.179 314.76V314.92C479.179 318.6 476.979 320.6 472.899 320.6H468.019ZM488.181 335H491.661V322.56H496.061L504.581 335H508.461L499.701 322.32C503.621 321.56 506.781 319.24 506.781 314.52V314.36C506.781 308.64 502.261 306.4 496.781 306.4H488.181V335ZM491.661 319.8V309.2H497.021C500.901 309.2 503.301 310.48 503.301 314.36V314.52C503.301 318.04 501.101 319.8 497.021 319.8H491.661ZM526.068 335.36C534.388 335.36 539.948 328.88 539.948 320.8V320.48C539.948 312.44 534.388 306.04 525.988 306.04C517.588 306.04 511.908 312.44 511.908 320.56V320.88C511.908 328.88 517.628 335.36 526.068 335.36ZM526.068 332.48C520.108 332.48 515.508 327.76 515.508 320.84V320.52C515.508 313.72 519.348 308.84 525.988 308.84C532.588 308.84 536.348 314.04 536.348 320.44V320.76C536.348 327.68 532.428 332.48 526.068 332.48ZM552.239 335H556.399L566.279 306.4H562.999L554.479 331.64L545.959 306.4H542.519L552.239 335ZM571.491 335H588.891V332.16H574.971V321.8H585.611V318.96H574.971V309.24H588.171V306.4H571.491V335Z" fill="#004A78"/>
</svg>
