<svg width="1601" height="535" viewBox="0 0 1601 535" fill="none" xmlns="http://www.w3.org/2000/svg">
<rect width="1601" height="535" rx="60" fill="#7BCEB2"/>
<path d="M173.28 124H189.04V113.04H196.4V101.76H189.04V66.8H169.28L145.44 106.88V113.04H173.28V124ZM160.88 101.76L173.68 79.12V101.76H160.88ZM223.579 124.96C238.059 124.96 246.779 116.96 246.779 104.8C246.779 92.4 239.899 85.36 229.419 85.36C222.299 85.36 218.219 88.32 216.059 91.44L216.379 78.8H243.099V66.8H204.539L203.339 100.48H213.099C215.019 98.24 217.899 96.4 222.539 96.4C227.499 96.4 230.299 99.44 230.299 104.56C230.299 109.12 228.139 112.64 223.419 112.64C218.139 112.64 216.539 110 215.979 106H201.099C201.499 116.72 208.379 124.96 223.579 124.96ZM255.807 124H270.447V88.4L284.287 124H289.728L303.728 88.4V124H320.048V66.8H299.087L288.128 97.28L277.168 66.8H255.807V124Z" fill="white"/>
<path d="M678.96 124H695.6L715.44 68.48V66.8H671.92V80.08H694.96L678.96 124ZM742.396 124.96C756.956 124.96 765.756 116.96 765.756 104.88C765.756 92.88 757.196 86.56 746.796 86.56C739.756 86.56 735.996 89.28 733.436 93.2C733.756 83.52 737.196 78.08 743.436 78.08C747.516 78.08 748.956 80.08 749.516 82.88H764.556C763.356 71.68 755.756 66 742.876 66C728.316 66 717.196 76.8 717.196 95.44V96.96C717.196 113.28 724.156 124.96 742.396 124.96ZM742.236 113.36C737.516 113.36 734.476 109.92 734.476 104.88C734.476 100.32 737.516 96.8 742.236 96.8C746.956 96.8 749.836 100.24 749.836 105.04C749.836 109.92 746.796 113.36 742.236 113.36ZM785.361 94.88C794.641 94.88 800.561 88.48 800.561 80.16C800.561 72 794.001 66.16 785.441 66.16C776.721 66.16 770.241 72.32 770.241 80.4C770.241 88.64 775.921 94.88 785.361 94.88ZM777.681 124H785.521L825.201 66.8H817.361L777.681 124ZM785.441 86.56C782.481 86.56 780.721 84.32 780.721 80.32C780.721 76.56 782.481 74.32 785.441 74.32C788.401 74.32 790.001 76.64 790.001 80.4C790.001 84.16 788.401 86.56 785.441 86.56ZM817.201 124.96C826.481 124.96 832.401 118.56 832.401 110.24C832.401 102 825.921 96.24 817.281 96.24C808.641 96.24 802.081 102.32 802.081 110.48C802.081 118.72 807.761 124.96 817.201 124.96ZM817.281 116.56C814.401 116.56 812.641 114.4 812.641 110.4C812.641 106.64 814.401 104.4 817.281 104.4C820.321 104.4 821.921 106.72 821.921 110.4C821.921 114.24 820.321 116.56 817.281 116.56Z" fill="white"/>
<path d="M681.96 372H698.6L718.44 316.48V314.8H674.92V328.08H697.96L681.96 372ZM743.907 372.96C758.387 372.96 767.107 364.96 767.107 352.8C767.107 340.4 760.227 333.36 749.747 333.36C742.627 333.36 738.547 336.32 736.387 339.44L736.707 326.8H763.427V314.8H724.867L723.667 348.48H733.427C735.347 346.24 738.227 344.4 742.867 344.4C747.827 344.4 750.627 347.44 750.627 352.56C750.627 357.12 748.467 360.64 743.747 360.64C738.467 360.64 736.867 358 736.307 354H721.427C721.827 364.72 728.707 372.96 743.907 372.96ZM785.314 342.88C794.594 342.88 800.514 336.48 800.514 328.16C800.514 320 793.954 314.16 785.394 314.16C776.674 314.16 770.194 320.32 770.194 328.4C770.194 336.64 775.874 342.88 785.314 342.88ZM777.634 372H785.474L825.154 314.8H817.314L777.634 372ZM785.394 334.56C782.434 334.56 780.674 332.32 780.674 328.32C780.674 324.56 782.434 322.32 785.394 322.32C788.354 322.32 789.954 324.64 789.954 328.4C789.954 332.16 788.354 334.56 785.394 334.56ZM817.154 372.96C826.434 372.96 832.354 366.56 832.354 358.24C832.354 350 825.874 344.24 817.234 344.24C808.594 344.24 802.034 350.32 802.034 358.48C802.034 366.72 807.714 372.96 817.154 372.96ZM817.234 364.56C814.354 364.56 812.594 362.4 812.594 358.4C812.594 354.64 814.354 352.4 817.234 352.4C820.274 352.4 821.874 354.72 821.874 358.4C821.874 362.24 820.274 364.56 817.234 364.56Z" fill="white"/>
<path d="M1203.28 372H1219.04V361.04H1226.4V349.76H1219.04V314.8H1199.28L1175.44 354.88V361.04H1203.28V372ZM1190.88 349.76L1203.68 327.12V349.76H1190.88ZM1255.26 372.96C1269.74 372.96 1279.18 366.48 1279.18 355.44C1279.18 348.96 1275.74 344.08 1268.94 341.76C1273.82 339.52 1277.02 335.76 1277.02 329.92C1277.02 319.76 1267.58 314 1255.42 314C1243.66 314 1233.82 319.76 1233.82 330C1233.82 335.76 1236.86 339.6 1241.82 341.84C1235.02 344.24 1231.42 349.28 1231.42 355.84C1231.42 366.96 1240.86 372.96 1255.26 372.96ZM1255.5 337.6C1251.82 337.6 1248.7 335.2 1248.7 331.28C1248.7 327.44 1251.74 325.04 1255.42 325.04C1259.18 325.04 1262.22 327.44 1262.22 331.28C1262.22 335.2 1259.26 337.6 1255.5 337.6ZM1255.34 361.44C1250.86 361.44 1247.58 358.72 1247.58 354.16C1247.58 349.52 1250.94 346.88 1255.42 346.88C1259.98 346.88 1263.1 349.6 1263.1 354.16C1263.1 358.72 1259.9 361.44 1255.34 361.44ZM1297.95 342.88C1307.23 342.88 1313.15 336.48 1313.15 328.16C1313.15 320 1306.59 314.16 1298.03 314.16C1289.31 314.16 1282.83 320.32 1282.83 328.4C1282.83 336.64 1288.51 342.88 1297.95 342.88ZM1290.27 372H1298.11L1337.79 314.8H1329.95L1290.27 372ZM1298.03 334.56C1295.07 334.56 1293.31 332.32 1293.31 328.32C1293.31 324.56 1295.07 322.32 1298.03 322.32C1300.99 322.32 1302.59 324.64 1302.59 328.4C1302.59 332.16 1300.99 334.56 1298.03 334.56ZM1329.79 372.96C1339.07 372.96 1344.99 366.56 1344.99 358.24C1344.99 350 1338.51 344.24 1329.87 344.24C1321.23 344.24 1314.67 350.32 1314.67 358.48C1314.67 366.72 1320.35 372.96 1329.79 372.96ZM1329.87 364.56C1326.99 364.56 1325.23 362.4 1325.23 358.4C1325.23 354.64 1326.99 352.4 1329.87 352.4C1332.91 352.4 1334.51 354.72 1334.51 358.4C1334.51 362.24 1332.91 364.56 1329.87 364.56Z" fill="white"/>
<path d="M1198.56 124.96C1213.04 124.96 1221.76 116.96 1221.76 104.8C1221.76 92.4 1214.88 85.36 1204.4 85.36C1197.28 85.36 1193.2 88.32 1191.04 91.44L1191.36 78.8H1218.08V66.8H1179.52L1178.32 100.48H1188.08C1190 98.24 1192.88 96.4 1197.52 96.4C1202.48 96.4 1205.28 99.44 1205.28 104.56C1205.28 109.12 1203.12 112.64 1198.4 112.64C1193.12 112.64 1191.52 110 1190.96 106H1176.08C1176.48 116.72 1183.36 124.96 1198.56 124.96ZM1251.35 124.96C1265.83 124.96 1275.27 118.48 1275.27 107.44C1275.27 100.96 1271.83 96.08 1265.03 93.76C1269.91 91.52 1273.11 87.76 1273.11 81.92C1273.11 71.76 1263.67 66 1251.51 66C1239.75 66 1229.91 71.76 1229.91 82C1229.91 87.76 1232.95 91.6 1237.91 93.84C1231.11 96.24 1227.51 101.28 1227.51 107.84C1227.51 118.96 1236.95 124.96 1251.35 124.96ZM1251.59 89.6C1247.91 89.6 1244.79 87.2 1244.79 83.28C1244.79 79.44 1247.83 77.04 1251.51 77.04C1255.27 77.04 1258.31 79.44 1258.31 83.28C1258.31 87.2 1255.35 89.6 1251.59 89.6ZM1251.43 113.44C1246.95 113.44 1243.67 110.72 1243.67 106.16C1243.67 101.52 1247.03 98.88 1251.51 98.88C1256.07 98.88 1259.19 101.6 1259.19 106.16C1259.19 110.72 1255.99 113.44 1251.43 113.44ZM1294.05 94.88C1303.33 94.88 1309.25 88.48 1309.25 80.16C1309.25 72 1302.69 66.16 1294.13 66.16C1285.41 66.16 1278.93 72.32 1278.93 80.4C1278.93 88.64 1284.61 94.88 1294.05 94.88ZM1286.37 124H1294.21L1333.89 66.8H1326.05L1286.37 124ZM1294.13 86.56C1291.17 86.56 1289.41 84.32 1289.41 80.32C1289.41 76.56 1291.17 74.32 1294.13 74.32C1297.09 74.32 1298.69 76.64 1298.69 80.4C1298.69 84.16 1297.09 86.56 1294.13 86.56ZM1325.89 124.96C1335.17 124.96 1341.09 118.56 1341.09 110.24C1341.09 102 1334.61 96.24 1325.97 96.24C1317.33 96.24 1310.77 102.32 1310.77 110.48C1310.77 118.72 1316.45 124.96 1325.89 124.96ZM1325.97 116.56C1323.09 116.56 1321.33 114.4 1321.33 110.4C1321.33 106.64 1323.09 104.4 1325.97 104.4C1329.01 104.4 1330.61 106.72 1330.61 110.4C1330.61 114.24 1329.01 116.56 1325.97 116.56Z" fill="white"/>
<path d="M144.64 372H190.64V359.76H171.44L179.44 352C185.84 345.84 190.24 339.92 190.24 332.08C190.24 321.52 182.8 314 168.8 314C154.96 314 146.32 321.28 145.76 335.6H160.64C161.36 328.8 163.92 326.32 168 326.32C172.08 326.32 174.08 328.88 174.08 332.72C174.08 337.52 170.32 342.4 164.64 348.48L144.64 369.68V372ZM202.744 372H219.384L239.224 316.48V314.8H195.704V328.08H218.744L202.744 372ZM257.251 342.88C266.531 342.88 272.451 336.48 272.451 328.16C272.451 320 265.891 314.16 257.331 314.16C248.611 314.16 242.131 320.32 242.131 328.4C242.131 336.64 247.811 342.88 257.251 342.88ZM249.571 372H257.411L297.091 314.8H289.251L249.571 372ZM257.331 334.56C254.371 334.56 252.611 332.32 252.611 328.32C252.611 324.56 254.371 322.32 257.331 322.32C260.291 322.32 261.891 324.64 261.891 328.4C261.891 332.16 260.291 334.56 257.331 334.56ZM289.091 372.96C298.371 372.96 304.291 366.56 304.291 358.24C304.291 350 297.811 344.24 289.171 344.24C280.531 344.24 273.971 350.32 273.971 358.48C273.971 366.72 279.651 372.96 289.091 372.96ZM289.171 364.56C286.291 364.56 284.531 362.4 284.531 358.4C284.531 354.64 286.291 352.4 289.171 352.4C292.211 352.4 293.811 354.72 293.811 358.4C293.811 362.24 292.211 364.56 289.171 364.56Z" fill="white"/>
<path d="M156.768 177.352C162.4 177.352 166.464 174.44 167.04 168.776H161.952C161.536 171.72 159.552 173.16 156.704 173.16C152.928 173.16 150.752 170.408 150.752 165.672V165.416C150.752 160.68 153.056 157.864 156.672 157.864C159.552 157.864 161.088 159.336 161.472 162.088H166.784C166.24 156.456 162.144 153.768 156.64 153.768C150.144 153.768 145.28 158.504 145.28 165.448V165.704C145.28 172.744 149.28 177.352 156.768 177.352ZM175.005 177.352C177.629 177.352 179.101 176.328 180.061 174.984V177H184.573V166.088C184.573 161.544 181.661 159.88 177.565 159.88C173.469 159.88 170.333 161.64 170.045 165.608H174.429C174.621 164.168 175.453 163.24 177.277 163.24C179.389 163.24 179.997 164.328 179.997 166.312V166.984H178.109C172.989 166.984 169.405 168.456 169.405 172.36C169.405 175.88 171.965 177.352 175.005 177.352ZM176.381 174.12C174.685 174.12 173.949 173.32 173.949 172.104C173.949 170.312 175.517 169.736 178.205 169.736H179.997V171.144C179.997 173 178.429 174.12 176.381 174.12ZM188.875 177H193.515V168.616C193.515 165.416 195.5 164.296 198.924 164.328V160.008C196.203 160.04 194.571 161.224 193.515 163.464V160.264H188.875V177ZM209.72 177.352C214.296 177.352 217.176 175.336 217.72 171.72H213.336C213.048 173.128 211.992 174.056 209.848 174.056C207.32 174.056 205.816 172.456 205.688 169.672H217.752V168.392C217.752 162.408 213.912 159.88 209.592 159.88C204.728 159.88 200.984 163.304 200.984 168.584V168.84C200.984 174.184 204.664 177.352 209.72 177.352ZM205.752 166.824C206.104 164.456 207.512 163.08 209.592 163.08C211.8 163.08 213.08 164.296 213.24 166.824H205.752ZM228.533 183.176C234.037 183.176 237.333 180.648 237.365 175.688V160.264H232.757V162.76C231.797 161.064 230.165 159.88 227.445 159.88C223.285 159.88 220.085 163.24 220.085 168.04V168.264C220.085 173.224 223.317 176.264 227.381 176.264C229.845 176.264 231.829 174.792 232.757 173.16V175.688C232.757 178.312 231.349 179.784 228.533 179.784C226.165 179.784 225.109 178.824 224.821 177.352H220.213C220.661 180.808 223.125 183.176 228.533 183.176ZM228.757 172.776C226.453 172.776 224.821 171.048 224.821 168.264V168.008C224.821 165.256 226.261 163.4 228.853 163.4C231.381 163.4 232.885 165.128 232.885 167.976V168.2C232.885 171.048 231.189 172.776 228.757 172.776ZM244.173 157.992C245.677 157.992 246.829 156.904 246.829 155.464C246.829 154.024 245.677 152.936 244.173 152.936C242.701 152.936 241.549 154.024 241.549 155.464C241.549 156.904 242.701 157.992 244.173 157.992ZM241.901 177H246.509V160.264H241.901V177ZM255.605 177H260.821L266.901 160.264H262.421L258.453 172.232L254.453 160.264H249.493L255.605 177ZM276.687 177.352C281.263 177.352 284.143 175.336 284.687 171.72H280.303C280.015 173.128 278.959 174.056 276.815 174.056C274.287 174.056 272.783 172.456 272.655 169.672H284.719V168.392C284.719 162.408 280.879 159.88 276.559 159.88C271.695 159.88 267.951 163.304 267.951 168.584V168.84C267.951 174.184 271.631 177.352 276.687 177.352ZM272.719 166.824C273.071 164.456 274.479 163.08 276.559 163.08C278.767 163.08 280.047 164.296 280.207 166.824H272.719ZM288.077 177H292.717V168.616C292.717 165.416 294.701 164.296 298.125 164.328V160.008C295.405 160.04 293.773 161.224 292.717 163.464V160.264H288.077V177ZM307.539 177.352C311.955 177.352 314.579 175.464 314.579 171.848C314.579 168.264 312.275 167.208 308.083 166.6C305.651 166.248 304.851 165.832 304.851 164.776C304.851 163.752 305.715 163.048 307.219 163.048C308.819 163.048 309.587 163.688 309.843 165.064H314.099C313.683 161.224 310.899 159.88 307.187 159.88C303.763 159.88 300.563 161.608 300.563 165.096C300.563 168.36 302.291 169.64 306.739 170.312C309.139 170.664 310.131 171.144 310.131 172.296C310.131 173.448 309.299 174.12 307.507 174.12C305.491 174.12 304.755 173.256 304.563 171.752H300.243C300.403 175.368 303.027 177.352 307.539 177.352ZM326.024 177H330.632V163.56H334.28V160.264H330.632V158.216C330.632 156.936 331.24 156.008 332.712 156.008C333.384 156.008 333.96 156.136 334.408 156.296V152.808C333.672 152.584 333 152.488 332.008 152.488C328.296 152.488 326.024 154.44 326.024 158.344V160.264H323.816V163.56H326.024V177ZM344.539 177.352C349.563 177.352 353.371 173.992 353.371 168.712V168.456C353.371 163.24 349.595 159.88 344.571 159.88C339.547 159.88 335.739 163.304 335.739 168.552V168.808C335.739 174.024 339.547 177.352 344.539 177.352ZM344.571 173.832C341.947 173.832 340.475 171.912 340.475 168.712V168.456C340.475 165.256 342.011 163.4 344.571 163.4C347.163 163.4 348.667 165.32 348.667 168.52V168.744C348.667 171.912 347.163 173.832 344.571 173.832ZM356.802 177H361.442V168.616C361.442 165.416 363.426 164.296 366.85 164.328V160.008C364.13 160.04 362.498 161.224 361.442 163.464V160.264H356.802V177ZM150.56 218.352C153.184 218.352 154.656 217.328 155.616 215.984V218H160.128V207.088C160.128 202.544 157.216 200.88 153.12 200.88C149.024 200.88 145.888 202.64 145.6 206.608H149.984C150.176 205.168 151.008 204.24 152.832 204.24C154.944 204.24 155.552 205.328 155.552 207.312V207.984H153.664C148.544 207.984 144.96 209.456 144.96 213.36C144.96 216.88 147.52 218.352 150.56 218.352ZM151.936 215.12C150.24 215.12 149.504 214.32 149.504 213.104C149.504 211.312 151.072 210.736 153.76 210.736H155.552V212.144C155.552 214 153.984 215.12 151.936 215.12ZM170.703 218.352C173.167 218.352 175.215 216.912 176.079 215.216V218H180.687V193.68H176.079V203.76C175.151 202.064 173.486 200.88 170.799 200.88C166.606 200.88 163.438 204.112 163.438 209.616V209.872C163.438 215.44 166.638 218.352 170.703 218.352ZM172.078 214.736C169.774 214.736 168.174 213.104 168.174 209.776V209.52C168.174 206.192 169.615 204.432 172.207 204.432C174.734 204.432 176.207 206.128 176.207 209.456V209.712C176.207 213.104 174.51 214.736 172.078 214.736ZM190.693 218.352C193.445 218.352 195.141 217.072 196.005 215.376V218H200.614V201.264H196.005V211.088C196.005 213.552 194.469 214.768 192.517 214.768C190.533 214.768 189.605 213.68 189.605 211.408V201.264H184.997V212.048C184.997 216.432 187.429 218.352 190.693 218.352ZM205.167 218H209.775V193.68H205.167V218ZM220.44 218.32C221.688 218.32 222.616 218.096 223.256 217.872V214.288C222.712 214.512 222.2 214.608 221.496 214.608C220.312 214.608 219.64 213.968 219.64 212.624V204.56H223.16V201.264H219.64V197.648H215.032V201.264H212.888V204.56H215.032V213.04C215.032 216.528 216.92 218.32 220.44 218.32ZM241.9 218.352C246.924 218.352 250.732 214.992 250.732 209.712V209.456C250.732 204.24 246.956 200.88 241.932 200.88C236.908 200.88 233.1 204.304 233.1 209.552V209.808C233.1 215.024 236.908 218.352 241.9 218.352ZM241.932 214.832C239.308 214.832 237.836 212.912 237.836 209.712V209.456C237.836 206.256 239.372 204.4 241.932 204.4C244.524 204.4 246.028 206.32 246.028 209.52V209.744C246.028 212.912 244.524 214.832 241.932 214.832ZM254.163 218H258.803V209.616C258.803 206.416 260.787 205.296 264.211 205.328V201.008C261.491 201.04 259.859 202.224 258.803 204.464V201.264H254.163V218ZM282.575 218.352C287.439 218.352 290.319 215.6 290.575 211.632H286.383C286.159 213.776 284.655 214.864 282.799 214.864C280.207 214.864 278.703 213.136 278.703 209.776V209.52C278.703 206.32 280.303 204.528 282.703 204.528C284.591 204.528 285.775 205.424 286.095 207.376H290.479C290.063 202.576 286.479 200.88 282.607 200.88C277.839 200.88 273.967 204.176 273.967 209.584V209.84C273.967 215.312 277.679 218.352 282.575 218.352ZM293.81 218H298.45V208.336C298.45 205.872 299.954 204.656 301.938 204.656C303.986 204.656 304.882 205.744 304.882 208.016V218H309.522V207.344C309.522 202.864 307.186 200.88 303.89 200.88C301.106 200.88 299.282 202.256 298.45 203.92V193.68H293.81V218ZM316.218 198.992C317.722 198.992 318.874 197.904 318.874 196.464C318.874 195.024 317.722 193.936 316.218 193.936C314.746 193.936 313.594 195.024 313.594 196.464C313.594 197.904 314.746 198.992 316.218 198.992ZM313.946 218H318.554V201.264H313.946V218ZM323.266 218H327.874V193.68H323.266V218ZM338.699 218.352C341.163 218.352 343.211 216.912 344.075 215.216V218H348.683V193.68H344.075V203.76C343.147 202.064 341.483 200.88 338.795 200.88C334.603 200.88 331.435 204.112 331.435 209.616V209.872C331.435 215.44 334.635 218.352 338.699 218.352ZM340.075 214.736C337.771 214.736 336.171 213.104 336.171 209.776V209.52C336.171 206.192 337.611 204.432 340.203 204.432C342.731 204.432 344.203 206.128 344.203 209.456V209.712C344.203 213.104 342.507 214.736 340.075 214.736ZM365.208 222.736H369.016C366.616 219.344 364.376 214.64 364.376 207.984C364.376 201.328 366.616 196.592 369.016 193.232H365.208C362.552 196.368 359.864 201.136 359.864 207.984C359.864 214.832 362.552 219.6 365.208 222.736ZM381.488 218.352C387.664 218.352 391.152 215.12 391.152 208.88V195.12H385.936V208.56C385.936 212.752 384.592 214.224 381.52 214.224C378.384 214.224 377.264 212.56 377.264 208.752V195.12H372.048V209.072C372.048 215.152 375.472 218.352 381.488 218.352ZM396.956 218.288C398.588 218.288 399.836 217.04 399.836 215.472C399.836 213.936 398.588 212.688 396.956 212.688C395.356 212.688 394.108 213.936 394.108 215.472C394.108 217.04 395.356 218.288 396.956 218.288ZM412.005 218.352C417.413 218.352 420.741 215.12 420.741 211.056C420.741 206.32 417.893 204.816 412.357 204.112C408.837 203.6 408.101 202.832 408.101 201.2C408.101 199.664 409.253 198.608 411.525 198.608C413.797 198.608 415.013 199.568 415.333 201.648H420.101C419.685 197.104 416.677 194.8 411.525 194.8C406.469 194.8 403.205 197.712 403.205 201.616C403.205 206.032 405.605 207.792 411.461 208.56C414.821 209.072 415.781 209.712 415.781 211.536C415.781 213.328 414.277 214.576 412.005 214.576C408.613 214.576 407.749 212.88 407.525 210.832H402.565C402.853 215.408 405.733 218.352 412.005 218.352ZM426.283 218.288C427.915 218.288 429.163 217.04 429.163 215.472C429.163 213.936 427.915 212.688 426.283 212.688C424.683 212.688 423.435 213.936 423.435 215.472C423.435 217.04 424.683 218.288 426.283 218.288ZM431.786 222.672H435.594C438.218 219.536 440.906 214.768 440.906 207.92C440.906 201.04 438.218 196.304 435.594 193.168H431.786C434.154 196.56 436.394 201.264 436.394 207.92C436.394 214.576 434.154 219.312 431.786 222.672Z" fill="white"/>
<path d="M153.824 426.352C158.848 426.352 162.656 422.992 162.656 417.712V417.456C162.656 412.24 158.88 408.88 153.856 408.88C148.832 408.88 145.024 412.304 145.024 417.552V417.808C145.024 423.024 148.832 426.352 153.824 426.352ZM153.856 422.832C151.232 422.832 149.76 420.912 149.76 417.712V417.456C149.76 414.256 151.296 412.4 153.856 412.4C156.448 412.4 157.952 414.32 157.952 417.52V417.744C157.952 420.912 156.448 422.832 153.856 422.832ZM166.855 426H171.463V412.56H175.111V409.264H171.463V407.216C171.463 405.936 172.071 405.008 173.543 405.008C174.215 405.008 174.791 405.136 175.239 405.296V401.808C174.503 401.584 173.831 401.488 172.839 401.488C169.127 401.488 166.855 403.44 166.855 407.344V409.264H164.647V412.56H166.855V426ZM185.695 431.696H190.335V423.44C191.199 425.072 193.087 426.352 195.679 426.352C199.84 426.352 202.976 423.248 202.976 417.712V417.456C202.976 411.92 199.775 408.88 195.679 408.88C193.215 408.88 191.263 410.288 190.335 411.888V409.264H185.695V431.696ZM194.303 422.736C191.775 422.736 190.175 421.104 190.175 417.744V417.488C190.175 414.128 191.839 412.432 194.271 412.432C196.608 412.432 198.271 414.096 198.271 417.488V417.744C198.271 421.008 196.863 422.736 194.303 422.736ZM214.166 426.352C219.19 426.352 222.998 422.992 222.998 417.712V417.456C222.998 412.24 219.222 408.88 214.198 408.88C209.174 408.88 205.366 412.304 205.366 417.552V417.808C205.366 423.024 209.174 426.352 214.166 426.352ZM214.198 422.832C211.574 422.832 210.102 420.912 210.102 417.712V417.456C210.102 414.256 211.638 412.4 214.198 412.4C216.79 412.4 218.294 414.32 218.294 417.52V417.744C218.294 420.912 216.79 422.832 214.198 422.832ZM232.572 426.352C236.988 426.352 239.612 424.464 239.612 420.848C239.612 417.264 237.308 416.208 233.116 415.6C230.684 415.248 229.884 414.832 229.884 413.776C229.884 412.752 230.748 412.048 232.252 412.048C233.852 412.048 234.62 412.688 234.876 414.064H239.132C238.716 410.224 235.932 408.88 232.22 408.88C228.796 408.88 225.596 410.608 225.596 414.096C225.596 417.36 227.324 418.64 231.772 419.312C234.172 419.664 235.164 420.144 235.164 421.296C235.164 422.448 234.332 423.12 232.54 423.12C230.524 423.12 229.788 422.256 229.596 420.752H225.276C225.436 424.368 228.06 426.352 232.572 426.352ZM245.274 406.992C246.778 406.992 247.93 405.904 247.93 404.464C247.93 403.024 246.778 401.936 245.274 401.936C243.802 401.936 242.65 403.024 242.65 404.464C242.65 405.904 243.802 406.992 245.274 406.992ZM243.002 426H247.61V409.264H243.002V426ZM258.306 426.32C259.554 426.32 260.482 426.096 261.122 425.872V422.288C260.578 422.512 260.066 422.608 259.362 422.608C258.178 422.608 257.506 421.968 257.506 420.624V412.56H261.026V409.264H257.506V405.648H252.898V409.264H250.754V412.56H252.898V421.04C252.898 424.528 254.786 426.32 258.306 426.32ZM266.977 406.992C268.481 406.992 269.633 405.904 269.633 404.464C269.633 403.024 268.481 401.936 266.977 401.936C265.505 401.936 264.353 403.024 264.353 404.464C264.353 405.904 265.505 406.992 266.977 406.992ZM264.705 426H269.313V409.264H264.705V426ZM278.409 426H283.625L289.705 409.264H285.225L281.257 421.232L277.257 409.264H272.297L278.409 426ZM299.491 426.352C304.067 426.352 306.947 424.336 307.491 420.72H303.107C302.819 422.128 301.763 423.056 299.619 423.056C297.091 423.056 295.587 421.456 295.459 418.672H307.523V417.392C307.523 411.408 303.683 408.88 299.363 408.88C294.499 408.88 290.755 412.304 290.755 417.584V417.84C290.755 423.184 294.435 426.352 299.491 426.352ZM295.523 415.824C295.875 413.456 297.283 412.08 299.363 412.08C301.571 412.08 302.851 413.296 303.011 415.824H295.523ZM322.806 426.352C325.43 426.352 326.902 425.328 327.862 423.984V426H332.374V415.088C332.374 410.544 329.462 408.88 325.366 408.88C321.27 408.88 318.134 410.64 317.846 414.608H322.23C322.422 413.168 323.254 412.24 325.078 412.24C327.19 412.24 327.798 413.328 327.798 415.312V415.984H325.91C320.79 415.984 317.206 417.456 317.206 421.36C317.206 424.88 319.766 426.352 322.806 426.352ZM324.182 423.12C322.486 423.12 321.75 422.32 321.75 421.104C321.75 419.312 323.318 418.736 326.006 418.736H327.798V420.144C327.798 422 326.23 423.12 324.182 423.12ZM344.261 426.352C349.125 426.352 352.005 423.6 352.261 419.632H348.069C347.845 421.776 346.341 422.864 344.485 422.864C341.893 422.864 340.389 421.136 340.389 417.776V417.52C340.389 414.32 341.989 412.528 344.389 412.528C346.277 412.528 347.461 413.424 347.781 415.376H352.165C351.749 410.576 348.165 408.88 344.293 408.88C339.525 408.88 335.653 412.176 335.653 417.584V417.84C335.653 423.312 339.365 426.352 344.261 426.352ZM361.609 426.32C362.857 426.32 363.785 426.096 364.425 425.872V422.288C363.881 422.512 363.369 422.608 362.665 422.608C361.481 422.608 360.809 421.968 360.809 420.624V412.56H364.329V409.264H360.809V405.648H356.201V409.264H354.057V412.56H356.201V421.04C356.201 424.528 358.089 426.32 361.609 426.32ZM370.279 406.992C371.783 406.992 372.935 405.904 372.935 404.464C372.935 403.024 371.783 401.936 370.279 401.936C368.807 401.936 367.655 403.024 367.655 404.464C367.655 405.904 368.807 406.992 370.279 406.992ZM368.007 426H372.615V409.264H368.007V426ZM381.711 426H386.927L393.007 409.264H388.527L384.559 421.232L380.559 409.264H375.599L381.711 426ZM398.232 406.992C399.736 406.992 400.888 405.904 400.888 404.464C400.888 403.024 399.736 401.936 398.232 401.936C396.76 401.936 395.608 403.024 395.608 404.464C395.608 405.904 396.76 406.992 398.232 406.992ZM395.96 426H400.568V409.264H395.96V426ZM411.264 426.32C412.512 426.32 413.44 426.096 414.08 425.872V422.288C413.536 422.512 413.024 422.608 412.32 422.608C411.136 422.608 410.464 421.968 410.464 420.624V412.56H413.984V409.264H410.464V405.648H405.856V409.264H403.712V412.56H405.856V421.04C405.856 424.528 407.744 426.32 411.264 426.32ZM419.934 406.992C421.438 406.992 422.59 405.904 422.59 404.464C422.59 403.024 421.438 401.936 419.934 401.936C418.462 401.936 417.31 403.024 417.31 404.464C417.31 405.904 418.462 406.992 419.934 406.992ZM417.662 426H422.27V409.264H417.662V426ZM434.566 426.352C439.142 426.352 442.022 424.336 442.566 420.72H438.182C437.894 422.128 436.838 423.056 434.694 423.056C432.166 423.056 430.662 421.456 430.534 418.672H442.598V417.392C442.598 411.408 438.758 408.88 434.438 408.88C429.574 408.88 425.83 412.304 425.83 417.584V417.84C425.83 423.184 429.51 426.352 434.566 426.352ZM430.598 415.824C430.95 413.456 432.358 412.08 434.438 412.08C436.646 412.08 437.926 413.296 438.086 415.824H430.598ZM452.192 426.352C456.608 426.352 459.232 424.464 459.232 420.848C459.232 417.264 456.928 416.208 452.736 415.6C450.304 415.248 449.504 414.832 449.504 413.776C449.504 412.752 450.368 412.048 451.872 412.048C453.472 412.048 454.24 412.688 454.496 414.064H458.752C458.336 410.224 455.552 408.88 451.84 408.88C448.416 408.88 445.216 410.608 445.216 414.096C445.216 417.36 446.944 418.64 451.392 419.312C453.792 419.664 454.784 420.144 454.784 421.296C454.784 422.448 453.952 423.12 452.16 423.12C450.144 423.12 449.408 422.256 449.216 420.752H444.896C445.056 424.368 447.68 426.352 452.192 426.352ZM150.56 467.352C153.184 467.352 154.656 466.328 155.616 464.984V467H160.128V456.088C160.128 451.544 157.216 449.88 153.12 449.88C149.024 449.88 145.888 451.64 145.6 455.608H149.984C150.176 454.168 151.008 453.24 152.832 453.24C154.944 453.24 155.552 454.328 155.552 456.312V456.984H153.664C148.544 456.984 144.96 458.456 144.96 462.36C144.96 465.88 147.52 467.352 150.56 467.352ZM151.936 464.12C150.24 464.12 149.504 463.32 149.504 462.104C149.504 460.312 151.072 459.736 153.76 459.736H155.552V461.144C155.552 463 153.984 464.12 151.936 464.12ZM164.43 467H169.07V458.616C169.07 455.416 171.055 454.296 174.479 454.328V450.008C171.759 450.04 170.127 451.224 169.07 453.464V450.264H164.43V467ZM185.275 467.352C189.851 467.352 192.731 465.336 193.275 461.72H188.891C188.603 463.128 187.547 464.056 185.403 464.056C182.875 464.056 181.371 462.456 181.243 459.672H193.307V458.392C193.307 452.408 189.467 449.88 185.147 449.88C180.283 449.88 176.539 453.304 176.539 458.584V458.84C176.539 464.184 180.219 467.352 185.275 467.352ZM181.307 456.824C181.659 454.456 183.067 453.08 185.147 453.08C187.355 453.08 188.635 454.296 188.795 456.824H181.307ZM204.078 467H208.718V458.616C208.718 455.416 210.702 454.296 214.126 454.328V450.008C211.406 450.04 209.774 451.224 208.718 453.464V450.264H204.078V467ZM224.922 467.352C229.498 467.352 232.378 465.336 232.922 461.72H228.538C228.25 463.128 227.194 464.056 225.05 464.056C222.522 464.056 221.018 462.456 220.89 459.672H232.955V458.392C232.955 452.408 229.114 449.88 224.794 449.88C219.93 449.88 216.186 453.304 216.186 458.584V458.84C216.186 464.184 219.866 467.352 224.922 467.352ZM220.954 456.824C221.306 454.456 222.714 453.08 224.794 453.08C227.002 453.08 228.282 454.296 228.442 456.824H220.954ZM242.584 467.352C245.048 467.352 247.096 465.912 247.96 464.216V467H252.568V442.68H247.96V452.76C247.032 451.064 245.368 449.88 242.68 449.88C238.488 449.88 235.32 453.112 235.32 458.616V458.872C235.32 464.44 238.52 467.352 242.584 467.352ZM243.96 463.736C241.656 463.736 240.056 462.104 240.056 458.776V458.52C240.056 455.192 241.496 453.432 244.088 453.432C246.616 453.432 248.088 455.128 248.088 458.456V458.712C248.088 462.104 246.392 463.736 243.96 463.736ZM262.575 467.352C265.327 467.352 267.023 466.072 267.887 464.376V467H272.495V450.264H267.887V460.088C267.887 462.552 266.351 463.768 264.399 463.768C262.415 463.768 261.487 462.68 261.487 460.408V450.264H256.879V461.048C256.879 465.432 259.311 467.352 262.575 467.352ZM284.504 467.352C289.368 467.352 292.248 464.6 292.504 460.632H288.312C288.088 462.776 286.584 463.864 284.728 463.864C282.136 463.864 280.632 462.136 280.632 458.776V458.52C280.632 455.32 282.232 453.528 284.632 453.528C286.52 453.528 287.704 454.424 288.024 456.376H292.408C291.992 451.576 288.408 449.88 284.536 449.88C279.768 449.88 275.896 453.176 275.896 458.584V458.84C275.896 464.312 279.608 467.352 284.504 467.352ZM303.453 467.352C308.029 467.352 310.909 465.336 311.453 461.72H307.069C306.781 463.128 305.725 464.056 303.581 464.056C301.053 464.056 299.549 462.456 299.421 459.672H311.485V458.392C311.485 452.408 307.645 449.88 303.325 449.88C298.461 449.88 294.717 453.304 294.717 458.584V458.84C294.717 464.184 298.397 467.352 303.453 467.352ZM299.485 456.824C299.837 454.456 301.245 453.08 303.325 453.08C305.533 453.08 306.813 454.296 306.973 456.824H299.485ZM321.114 467.352C323.578 467.352 325.626 465.912 326.49 464.216V467H331.098V442.68H326.49V452.76C325.562 451.064 323.898 449.88 321.21 449.88C317.018 449.88 313.85 453.112 313.85 458.616V458.872C313.85 464.44 317.05 467.352 321.114 467.352ZM322.49 463.736C320.186 463.736 318.586 462.104 318.586 458.776V458.52C318.586 455.192 320.026 453.432 322.618 453.432C325.146 453.432 326.618 455.128 326.618 458.456V458.712C326.618 462.104 324.922 463.736 322.49 463.736Z" fill="white"/>
<path d="M673.464 177H680.92C688.952 177 692.952 172.424 692.952 165.576V165.32C692.952 158.472 688.984 154.12 680.952 154.12H673.464V177ZM678.648 172.968V158.152H680.696C685.528 158.152 687.544 160.68 687.544 165.384V165.64C687.544 170.376 685.368 172.968 680.76 172.968H678.648ZM704.299 177.352C708.875 177.352 711.755 175.336 712.299 171.72H707.915C707.627 173.128 706.571 174.056 704.427 174.056C701.899 174.056 700.395 172.456 700.267 169.672H712.331V168.392C712.331 162.408 708.491 159.88 704.171 159.88C699.307 159.88 695.563 163.304 695.563 168.584V168.84C695.563 174.184 699.243 177.352 704.299 177.352ZM700.331 166.824C700.683 164.456 702.091 163.08 704.171 163.08C706.379 163.08 707.659 164.296 707.819 166.824H700.331ZM721.924 177.352C726.34 177.352 728.964 175.464 728.964 171.848C728.964 168.264 726.66 167.208 722.468 166.6C720.036 166.248 719.236 165.832 719.236 164.776C719.236 163.752 720.1 163.048 721.604 163.048C723.204 163.048 723.972 163.688 724.228 165.064H728.484C728.068 161.224 725.284 159.88 721.572 159.88C718.148 159.88 714.948 161.608 714.948 165.096C714.948 168.36 716.676 169.64 721.124 170.312C723.524 170.664 724.516 171.144 724.516 172.296C724.516 173.448 723.684 174.12 721.892 174.12C719.876 174.12 719.14 173.256 718.948 171.752H714.628C714.788 175.368 717.412 177.352 721.924 177.352ZM734.627 157.992C736.131 157.992 737.283 156.904 737.283 155.464C737.283 154.024 736.131 152.936 734.627 152.936C733.155 152.936 732.003 154.024 732.003 155.464C732.003 156.904 733.155 157.992 734.627 157.992ZM732.355 177H736.963V160.264H732.355V177ZM741.547 177H746.187V168.616C746.187 165.416 748.171 164.296 751.595 164.328V160.008C748.875 160.04 747.243 161.224 746.187 163.464V160.264H741.547V177ZM762.391 177.352C766.967 177.352 769.847 175.336 770.391 171.72H766.007C765.719 173.128 764.663 174.056 762.519 174.056C759.991 174.056 758.487 172.456 758.359 169.672H770.423V168.392C770.423 162.408 766.583 159.88 762.263 159.88C757.399 159.88 753.655 163.304 753.655 168.584V168.84C753.655 174.184 757.335 177.352 762.391 177.352ZM758.423 166.824C758.775 164.456 760.183 163.08 762.263 163.08C764.471 163.08 765.751 164.296 765.911 166.824H758.423ZM781.61 177H786.794V167.56H795.978V177H801.162V154.12H795.978V163.464H786.794V154.12H781.61V177ZM813.539 177.352C818.115 177.352 820.995 175.336 821.539 171.72H817.155C816.867 173.128 815.811 174.056 813.667 174.056C811.139 174.056 809.635 172.456 809.507 169.672H821.571V168.392C821.571 162.408 817.731 159.88 813.411 159.88C808.547 159.88 804.803 163.304 804.803 168.584V168.84C804.803 174.184 808.483 177.352 813.539 177.352ZM809.571 166.824C809.923 164.456 811.331 163.08 813.411 163.08C815.619 163.08 816.899 164.296 817.059 166.824H809.571ZM829.596 177.352C832.22 177.352 833.692 176.328 834.652 174.984V177H839.164V166.088C839.164 161.544 836.252 159.88 832.156 159.88C828.06 159.88 824.924 161.64 824.636 165.608H829.02C829.212 164.168 830.044 163.24 831.868 163.24C833.98 163.24 834.588 164.328 834.588 166.312V166.984H832.7C827.58 166.984 823.996 168.456 823.996 172.36C823.996 175.88 826.556 177.352 829.596 177.352ZM830.972 174.12C829.276 174.12 828.54 173.32 828.54 172.104C828.54 170.312 830.108 169.736 832.796 169.736H834.588V171.144C834.588 173 833.02 174.12 830.972 174.12ZM843.595 177H848.203V152.68H843.595V177ZM858.868 177.32C860.116 177.32 861.044 177.096 861.684 176.872V173.288C861.14 173.512 860.628 173.608 859.924 173.608C858.74 173.608 858.068 172.968 858.068 171.624V163.56H861.588V160.264H858.068V156.648H853.46V160.264H851.316V163.56H853.46V172.04C853.46 175.528 855.348 177.32 858.868 177.32ZM865.138 177H869.778V167.336C869.778 164.872 871.282 163.656 873.266 163.656C875.314 163.656 876.21 164.744 876.21 167.016V177H880.85V166.344C880.85 161.864 878.514 159.88 875.218 159.88C872.434 159.88 870.61 161.256 869.778 162.92V152.68H865.138V177ZM892.975 177H900.431C908.463 177 912.463 172.424 912.463 165.576V165.32C912.463 158.472 908.495 154.12 900.463 154.12H892.975V177ZM898.159 172.968V158.152H900.207C905.039 158.152 907.055 160.68 907.055 165.384V165.64C907.055 170.376 904.879 172.968 900.271 172.968H898.159ZM920.548 177.352C923.172 177.352 924.644 176.328 925.604 174.984V177H930.116V166.088C930.116 161.544 927.204 159.88 923.108 159.88C919.012 159.88 915.876 161.64 915.588 165.608H919.972C920.164 164.168 920.996 163.24 922.82 163.24C924.932 163.24 925.54 164.328 925.54 166.312V166.984H923.652C918.532 166.984 914.948 168.456 914.948 172.36C914.948 175.88 917.508 177.352 920.548 177.352ZM921.924 174.12C920.228 174.12 919.492 173.32 919.492 172.104C919.492 170.312 921.06 169.736 923.748 169.736H925.54V171.144C925.54 173 923.972 174.12 921.924 174.12ZM940.467 177.32C941.715 177.32 942.643 177.096 943.283 176.872V173.288C942.739 173.512 942.227 173.608 941.523 173.608C940.339 173.608 939.667 172.968 939.667 171.624V163.56H943.187V160.264H939.667V156.648H935.059V160.264H932.915V163.56H935.059V172.04C935.059 175.528 936.947 177.32 940.467 177.32ZM951.344 177.352C953.968 177.352 955.44 176.328 956.4 174.984V177H960.912V166.088C960.912 161.544 958 159.88 953.904 159.88C949.808 159.88 946.672 161.64 946.384 165.608H950.768C950.96 164.168 951.792 163.24 953.616 163.24C955.728 163.24 956.336 164.328 956.336 166.312V166.984H954.448C949.328 166.984 945.744 168.456 945.744 172.36C945.744 175.88 948.304 177.352 951.344 177.352ZM952.72 174.12C951.024 174.12 950.288 173.32 950.288 172.104C950.288 170.312 951.856 169.736 954.544 169.736H956.336V171.144C956.336 173 954.768 174.12 952.72 174.12ZM677.944 218H683.16V199.152H689.336V195.12H671.768V199.152H677.944V218ZM692.462 218H697.102V208.336C697.102 205.872 698.606 204.656 700.59 204.656C702.638 204.656 703.534 205.744 703.534 208.016V218H708.174V207.344C708.174 202.864 705.838 200.88 702.542 200.88C699.758 200.88 697.934 202.256 697.102 203.92V193.68H692.462V218ZM712.469 218H717.109V209.616C717.109 206.416 719.093 205.296 722.517 205.328V201.008C719.797 201.04 718.165 202.224 717.109 204.464V201.264H712.469V218ZM733.378 218.352C738.402 218.352 742.21 214.992 742.21 209.712V209.456C742.21 204.24 738.434 200.88 733.41 200.88C728.386 200.88 724.578 204.304 724.578 209.552V209.808C724.578 215.024 728.386 218.352 733.378 218.352ZM733.41 214.832C730.786 214.832 729.314 212.912 729.314 209.712V209.456C729.314 206.256 730.85 204.4 733.41 204.4C736.002 204.4 737.506 206.32 737.506 209.52V209.744C737.506 212.912 736.002 214.832 733.41 214.832ZM751.208 218.352C753.96 218.352 755.656 217.072 756.52 215.376V218H761.128V201.264H756.52V211.088C756.52 213.552 754.984 214.768 753.032 214.768C751.048 214.768 750.12 213.68 750.12 211.408V201.264H745.512V212.048C745.512 216.432 747.944 218.352 751.208 218.352ZM772.978 224.176C778.482 224.176 781.778 221.648 781.81 216.688V201.264H777.202V203.76C776.242 202.064 774.61 200.88 771.89 200.88C767.73 200.88 764.53 204.24 764.53 209.04V209.264C764.53 214.224 767.762 217.264 771.826 217.264C774.29 217.264 776.274 215.792 777.202 214.16V216.688C777.202 219.312 775.794 220.784 772.978 220.784C770.61 220.784 769.554 219.824 769.266 218.352H764.658C765.106 221.808 767.57 224.176 772.978 224.176ZM773.202 213.776C770.898 213.776 769.266 212.048 769.266 209.264V209.008C769.266 206.256 770.706 204.4 773.298 204.4C775.826 204.4 777.33 206.128 777.33 208.976V209.2C777.33 212.048 775.634 213.776 773.202 213.776ZM786.218 218H790.858V208.336C790.858 205.872 792.362 204.656 794.346 204.656C796.394 204.656 797.29 205.744 797.29 208.016V218H801.93V207.344C801.93 202.864 799.594 200.88 796.298 200.88C793.514 200.88 791.69 202.256 790.858 203.92V193.68H786.218V218ZM812.263 218H817.127L818.695 212.912H826.983L828.551 218H833.959L826.535 195.12H819.783L812.263 218ZM822.855 199.344L825.863 209.232H819.815L822.855 199.344ZM836.991 223.696H841.631V215.44C842.495 217.072 844.383 218.352 846.975 218.352C851.135 218.352 854.271 215.248 854.271 209.712V209.456C854.271 203.92 851.071 200.88 846.975 200.88C844.511 200.88 842.559 202.288 841.631 203.888V201.264H836.991V223.696ZM845.599 214.736C843.071 214.736 841.471 213.104 841.471 209.744V209.488C841.471 206.128 843.135 204.432 845.567 204.432C847.903 204.432 849.567 206.096 849.567 209.488V209.744C849.567 213.008 848.159 214.736 845.599 214.736ZM857.685 223.696H862.325V215.44C863.189 217.072 865.077 218.352 867.669 218.352C871.829 218.352 874.965 215.248 874.965 209.712V209.456C874.965 203.92 871.765 200.88 867.669 200.88C865.205 200.88 863.253 202.288 862.325 203.888V201.264H857.685V223.696ZM866.293 214.736C863.765 214.736 862.165 213.104 862.165 209.744V209.488C862.165 206.128 863.829 204.432 866.261 204.432C868.597 204.432 870.261 206.096 870.261 209.488V209.744C870.261 213.008 868.853 214.736 866.293 214.736ZM884.523 218.352C888.939 218.352 891.563 216.464 891.563 212.848C891.563 209.264 889.259 208.208 885.067 207.6C882.635 207.248 881.835 206.832 881.835 205.776C881.835 204.752 882.699 204.048 884.203 204.048C885.803 204.048 886.571 204.688 886.827 206.064H891.083C890.667 202.224 887.883 200.88 884.171 200.88C880.747 200.88 877.547 202.608 877.547 206.096C877.547 209.36 879.275 210.64 883.723 211.312C886.123 211.664 887.115 212.144 887.115 213.296C887.115 214.448 886.283 215.12 884.491 215.12C882.475 215.12 881.739 214.256 881.547 212.752H877.227C877.387 216.368 880.011 218.352 884.523 218.352Z" fill="white"/>
<path d="M680.824 426.352C685.848 426.352 689.656 422.992 689.656 417.712V417.456C689.656 412.24 685.88 408.88 680.856 408.88C675.832 408.88 672.024 412.304 672.024 417.552V417.808C672.024 423.024 675.832 426.352 680.824 426.352ZM680.856 422.832C678.232 422.832 676.76 420.912 676.76 417.712V417.456C676.76 414.256 678.296 412.4 680.856 412.4C683.448 412.4 684.952 414.32 684.952 417.52V417.744C684.952 420.912 683.448 422.832 680.856 422.832ZM693.855 426H698.463V412.56H702.111V409.264H698.463V407.216C698.463 405.936 699.071 405.008 700.543 405.008C701.215 405.008 701.791 405.136 702.239 405.296V401.808C701.503 401.584 700.831 401.488 699.839 401.488C696.127 401.488 693.855 403.44 693.855 407.344V409.264H691.647V412.56H693.855V426ZM723.415 426.352C729.048 426.352 733.111 423.44 733.688 417.776H728.6C728.184 420.72 726.2 422.16 723.351 422.16C719.575 422.16 717.399 419.408 717.399 414.672V414.416C717.399 409.68 719.703 406.864 723.319 406.864C726.2 406.864 727.736 408.336 728.119 411.088H733.431C732.888 405.456 728.792 402.768 723.287 402.768C716.791 402.768 711.927 407.504 711.927 414.448V414.704C711.927 421.744 715.927 426.352 723.415 426.352ZM741.652 426.352C744.276 426.352 745.748 425.328 746.708 423.984V426H751.22V415.088C751.22 410.544 748.308 408.88 744.212 408.88C740.116 408.88 736.98 410.64 736.692 414.608H741.076C741.268 413.168 742.1 412.24 743.924 412.24C746.036 412.24 746.644 413.328 746.644 415.312V415.984H744.756C739.636 415.984 736.052 417.456 736.052 421.36C736.052 424.88 738.612 426.352 741.652 426.352ZM743.028 423.12C741.332 423.12 740.596 422.32 740.596 421.104C740.596 419.312 742.164 418.736 744.852 418.736H746.644V420.144C746.644 422 745.076 423.12 743.028 423.12ZM755.523 426H760.163V417.616C760.163 414.416 762.147 413.296 765.571 413.328V409.008C762.851 409.04 761.219 410.224 760.163 412.464V409.264H755.523V426ZM776.367 426.352C780.943 426.352 783.823 424.336 784.367 420.72H779.983C779.695 422.128 778.639 423.056 776.495 423.056C773.967 423.056 772.463 421.456 772.335 418.672H784.399V417.392C784.399 411.408 780.559 408.88 776.239 408.88C771.375 408.88 767.631 412.304 767.631 417.584V417.84C767.631 423.184 771.311 426.352 776.367 426.352ZM772.399 415.824C772.751 413.456 774.159 412.08 776.239 412.08C778.447 412.08 779.727 413.296 779.887 415.824H772.399ZM795.181 432.176C800.685 432.176 803.981 429.648 804.013 424.688V409.264H799.405V411.76C798.445 410.064 796.813 408.88 794.093 408.88C789.933 408.88 786.733 412.24 786.733 417.04V417.264C786.733 422.224 789.965 425.264 794.029 425.264C796.493 425.264 798.477 423.792 799.405 422.16V424.688C799.405 427.312 797.997 428.784 795.181 428.784C792.813 428.784 791.757 427.824 791.469 426.352H786.861C787.309 429.808 789.773 432.176 795.181 432.176ZM795.405 421.776C793.101 421.776 791.469 420.048 791.469 417.264V417.008C791.469 414.256 792.909 412.4 795.501 412.4C798.029 412.4 799.533 414.128 799.533 416.976V417.2C799.533 420.048 797.837 421.776 795.405 421.776ZM810.82 406.992C812.324 406.992 813.476 405.904 813.476 404.464C813.476 403.024 812.324 401.936 810.82 401.936C809.348 401.936 808.196 403.024 808.196 404.464C808.196 405.904 809.348 406.992 810.82 406.992ZM808.548 426H813.156V409.264H808.548V426ZM822.253 426H827.469L833.549 409.264H829.069L825.101 421.232L821.101 409.264H816.141L822.253 426ZM843.335 426.352C847.911 426.352 850.791 424.336 851.335 420.72H846.951C846.663 422.128 845.607 423.056 843.463 423.056C840.935 423.056 839.431 421.456 839.303 418.672H851.367V417.392C851.367 411.408 847.527 408.88 843.207 408.88C838.343 408.88 834.599 412.304 834.599 417.584V417.84C834.599 423.184 838.279 426.352 843.335 426.352ZM839.367 415.824C839.719 413.456 841.127 412.08 843.207 412.08C845.415 412.08 846.695 413.296 846.855 415.824H839.367ZM854.724 426H859.364V417.616C859.364 414.416 861.348 413.296 864.772 413.328V409.008C862.052 409.04 860.42 410.224 859.364 412.464V409.264H854.724V426ZM874.187 426.352C878.603 426.352 881.227 424.464 881.227 420.848C881.227 417.264 878.923 416.208 874.731 415.6C872.299 415.248 871.499 414.832 871.499 413.776C871.499 412.752 872.363 412.048 873.867 412.048C875.467 412.048 876.235 412.688 876.491 414.064H880.747C880.331 410.224 877.547 408.88 873.835 408.88C870.411 408.88 867.211 410.608 867.211 414.096C867.211 417.36 868.939 418.64 873.387 419.312C875.787 419.664 876.779 420.144 876.779 421.296C876.779 422.448 875.947 423.12 874.155 423.12C872.139 423.12 871.403 422.256 871.211 420.752H866.891C867.051 424.368 869.675 426.352 874.187 426.352ZM677.56 467.352C680.184 467.352 681.656 466.328 682.616 464.984V467H687.128V456.088C687.128 451.544 684.216 449.88 680.12 449.88C676.024 449.88 672.888 451.64 672.6 455.608H676.984C677.176 454.168 678.008 453.24 679.832 453.24C681.944 453.24 682.552 454.328 682.552 456.312V456.984H680.664C675.544 456.984 671.96 458.456 671.96 462.36C671.96 465.88 674.52 467.352 677.56 467.352ZM678.936 464.12C677.24 464.12 676.504 463.32 676.504 462.104C676.504 460.312 678.072 459.736 680.76 459.736H682.552V461.144C682.552 463 680.984 464.12 678.936 464.12ZM691.43 467H696.07V458.616C696.07 455.416 698.055 454.296 701.479 454.328V450.008C698.759 450.04 697.127 451.224 696.07 453.464V450.264H691.43V467ZM712.275 467.352C716.851 467.352 719.731 465.336 720.275 461.72H715.891C715.603 463.128 714.547 464.056 712.403 464.056C709.875 464.056 708.371 462.456 708.243 459.672H720.307V458.392C720.307 452.408 716.467 449.88 712.147 449.88C707.283 449.88 703.539 453.304 703.539 458.584V458.84C703.539 464.184 707.219 467.352 712.275 467.352ZM708.307 456.824C708.659 454.456 710.067 453.08 712.147 453.08C714.355 453.08 715.635 454.296 715.795 456.824H708.307ZM731.494 467H736.678V458.136H744.198V454.232H736.678V448.184H746.182V444.12H731.494V467ZM756.422 467.352C760.998 467.352 763.878 465.336 764.422 461.72H760.038C759.75 463.128 758.694 464.056 756.55 464.056C754.022 464.056 752.518 462.456 752.39 459.672H764.455V458.392C764.455 452.408 760.614 449.88 756.294 449.88C751.43 449.88 747.686 453.304 747.686 458.584V458.84C747.686 464.184 751.366 467.352 756.422 467.352ZM752.454 456.824C752.806 454.456 754.214 453.08 756.294 453.08C758.502 453.08 759.782 454.296 759.942 456.824H752.454ZM767.812 467H772.452V457.112C772.452 454.84 773.892 453.688 775.684 453.688C777.316 453.688 778.308 454.648 778.308 456.792V467H782.916V457.112C782.916 454.84 784.356 453.688 786.148 453.688C787.812 453.688 788.772 454.648 788.772 456.792V467H793.38V456.28C793.38 451.832 790.98 449.88 787.876 449.88C785.764 449.88 783.588 450.776 782.244 452.792C781.444 450.808 779.78 449.88 777.572 449.88C775.076 449.88 773.284 451.256 772.452 452.824V450.264H767.812V467ZM802.175 467.352C804.799 467.352 806.271 466.328 807.231 464.984V467H811.743V456.088C811.743 451.544 808.831 449.88 804.735 449.88C800.639 449.88 797.503 451.64 797.215 455.608H801.599C801.791 454.168 802.623 453.24 804.447 453.24C806.559 453.24 807.167 454.328 807.167 456.312V456.984H805.279C800.159 456.984 796.575 458.456 796.575 462.36C796.575 465.88 799.135 467.352 802.175 467.352ZM803.551 464.12C801.855 464.12 801.119 463.32 801.119 462.104C801.119 460.312 802.687 459.736 805.375 459.736H807.167V461.144C807.167 463 805.599 464.12 803.551 464.12ZM816.173 467H820.781V442.68H816.173V467ZM833.046 467.352C837.622 467.352 840.502 465.336 841.046 461.72H836.662C836.374 463.128 835.318 464.056 833.174 464.056C830.646 464.056 829.142 462.456 829.014 459.672H841.078V458.392C841.078 452.408 837.238 449.88 832.918 449.88C828.054 449.88 824.31 453.304 824.31 458.584V458.84C824.31 464.184 827.99 467.352 833.046 467.352ZM829.078 456.824C829.43 454.456 830.838 453.08 832.918 453.08C835.126 453.08 836.406 454.296 836.566 456.824H829.078Z" fill="white"/>
<path d="M1179.59 177H1184.81V154.12H1179.59V177ZM1189.77 177H1194.41V167.336C1194.41 164.872 1195.92 163.656 1197.9 163.656C1199.95 163.656 1200.85 164.744 1200.85 167.016V177H1205.49V166.344C1205.49 161.864 1203.15 159.88 1199.85 159.88C1197.07 159.88 1195.25 161.256 1194.41 162.92V160.264H1189.77V177ZM1217.61 177H1222.25V160.936L1228.62 177H1230.32L1236.65 160.936V177H1241.8V154.12H1235.08L1229.8 168.36L1224.46 154.12H1217.61V177ZM1254.26 177.352C1258.83 177.352 1261.71 175.336 1262.26 171.72H1257.87C1257.59 173.128 1256.53 174.056 1254.39 174.056C1251.86 174.056 1250.35 172.456 1250.23 169.672H1262.29V168.392C1262.29 162.408 1258.45 159.88 1254.13 159.88C1249.27 159.88 1245.52 163.304 1245.52 168.584V168.84C1245.52 174.184 1249.2 177.352 1254.26 177.352ZM1250.29 166.824C1250.64 164.456 1252.05 163.08 1254.13 163.08C1256.34 163.08 1257.62 164.296 1257.78 166.824H1250.29ZM1271.92 177.352C1274.38 177.352 1276.43 175.912 1277.3 174.216V177H1281.9V152.68H1277.3V162.76C1276.37 161.064 1274.7 159.88 1272.02 159.88C1267.82 159.88 1264.66 163.112 1264.66 168.616V168.872C1264.66 174.44 1267.86 177.352 1271.92 177.352ZM1273.3 173.736C1270.99 173.736 1269.39 172.104 1269.39 168.776V168.52C1269.39 165.192 1270.83 163.432 1273.42 163.432C1275.95 163.432 1277.42 165.128 1277.42 168.456V168.712C1277.42 172.104 1275.73 173.736 1273.3 173.736ZM1288.74 157.992C1290.25 157.992 1291.4 156.904 1291.4 155.464C1291.4 154.024 1290.25 152.936 1288.74 152.936C1287.27 152.936 1286.12 154.024 1286.12 155.464C1286.12 156.904 1287.27 157.992 1288.74 157.992ZM1286.47 177H1291.08V160.264H1286.47V177ZM1301.23 177.352C1303.98 177.352 1305.68 176.072 1306.54 174.376V177H1311.15V160.264H1306.54V170.088C1306.54 172.552 1305.01 173.768 1303.05 173.768C1301.07 173.768 1300.14 172.68 1300.14 170.408V160.264H1295.53V171.048C1295.53 175.432 1297.97 177.352 1301.23 177.352ZM1315.58 177H1320.22V167.112C1320.22 164.84 1321.66 163.688 1323.45 163.688C1325.08 163.688 1326.07 164.648 1326.07 166.792V177H1330.68V167.112C1330.68 164.84 1332.12 163.688 1333.91 163.688C1335.58 163.688 1336.54 164.648 1336.54 166.792V177H1341.14V166.28C1341.14 161.832 1338.74 159.88 1335.64 159.88C1333.53 159.88 1331.35 160.776 1330.01 162.792C1329.21 160.808 1327.54 159.88 1325.34 159.88C1322.84 159.88 1321.05 161.256 1320.22 162.824V160.264H1315.58V177ZM1358.95 177.32C1360.2 177.32 1361.13 177.096 1361.77 176.872V173.288C1361.23 173.512 1360.71 173.608 1360.01 173.608C1358.83 173.608 1358.15 172.968 1358.15 171.624V163.56H1361.67V160.264H1358.15V156.648H1353.55V160.264H1351.4V163.56H1353.55V172.04C1353.55 175.528 1355.43 177.32 1358.95 177.32ZM1373 177.352C1378.02 177.352 1381.83 173.992 1381.83 168.712V168.456C1381.83 163.24 1378.06 159.88 1373.03 159.88C1368.01 159.88 1364.2 163.304 1364.2 168.552V168.808C1364.2 174.024 1368.01 177.352 1373 177.352ZM1373.03 173.832C1370.41 173.832 1368.94 171.912 1368.94 168.712V168.456C1368.94 165.256 1370.47 163.4 1373.03 163.4C1375.62 163.4 1377.13 165.32 1377.13 168.52V168.744C1377.13 171.912 1375.62 173.832 1373.03 173.832ZM1393.09 177H1398.28V167.56H1407.46V177H1412.64V154.12H1407.46V163.464H1398.28V154.12H1393.09V177ZM1419.83 157.992C1421.34 157.992 1422.49 156.904 1422.49 155.464C1422.49 154.024 1421.34 152.936 1419.83 152.936C1418.36 152.936 1417.21 154.024 1417.21 155.464C1417.21 156.904 1418.36 157.992 1419.83 157.992ZM1417.56 177H1422.17V160.264H1417.56V177ZM1434.18 183.176C1439.68 183.176 1442.98 180.648 1443.01 175.688V160.264H1438.4V162.76C1437.44 161.064 1435.81 159.88 1433.09 159.88C1428.93 159.88 1425.73 163.24 1425.73 168.04V168.264C1425.73 173.224 1428.96 176.264 1433.03 176.264C1435.49 176.264 1437.47 174.792 1438.4 173.16V175.688C1438.4 178.312 1436.99 179.784 1434.18 179.784C1431.81 179.784 1430.75 178.824 1430.47 177.352H1425.86C1426.31 180.808 1428.77 183.176 1434.18 183.176ZM1434.4 172.776C1432.1 172.776 1430.47 171.048 1430.47 168.264V168.008C1430.47 165.256 1431.91 163.4 1434.5 163.4C1437.03 163.4 1438.53 165.128 1438.53 167.976V168.2C1438.53 171.048 1436.83 172.776 1434.4 172.776ZM1447.42 177H1452.06V167.336C1452.06 164.872 1453.56 163.656 1455.55 163.656C1457.59 163.656 1458.49 164.744 1458.49 167.016V177H1463.13V166.344C1463.13 161.864 1460.79 159.88 1457.5 159.88C1454.71 159.88 1452.89 161.256 1452.06 162.92V152.68H1447.42V177ZM1179.46 218H1188.87C1194.15 218 1196.9 215.792 1196.9 211.6V211.472C1196.9 208.4 1195.3 206.704 1192.33 206.096C1194.89 205.36 1196.04 203.6 1196.04 201.2V201.072C1196.04 197.168 1193.45 195.12 1188.46 195.12H1179.46V218ZM1184.52 204.528V198.672H1187.59C1190.02 198.672 1191.11 199.536 1191.11 201.456V201.584C1191.11 203.632 1190.12 204.528 1187.62 204.528H1184.52ZM1184.52 214.416V207.856H1187.82C1190.63 207.856 1191.78 208.944 1191.78 211.056V211.184C1191.78 213.264 1190.63 214.416 1188.07 214.416H1184.52ZM1206.03 218.352C1208.78 218.352 1210.48 217.072 1211.34 215.376V218H1215.95V201.264H1211.34V211.088C1211.34 213.552 1209.81 214.768 1207.85 214.768C1205.87 214.768 1204.94 213.68 1204.94 211.408V201.264H1200.33V212.048C1200.33 216.432 1202.77 218.352 1206.03 218.352ZM1220.38 218H1225.02V209.616C1225.02 206.416 1227 205.296 1230.42 205.328V201.008C1227.7 201.04 1226.07 202.224 1225.02 204.464V201.264H1220.38V218ZM1239.72 218.352C1242.18 218.352 1244.23 216.912 1245.09 215.216V218H1249.7V193.68H1245.09V203.76C1244.17 202.064 1242.5 200.88 1239.81 200.88C1235.62 200.88 1232.45 204.112 1232.45 209.616V209.872C1232.45 215.44 1235.65 218.352 1239.72 218.352ZM1241.09 214.736C1238.79 214.736 1237.19 213.104 1237.19 209.776V209.52C1237.19 206.192 1238.63 204.432 1241.22 204.432C1243.75 204.432 1245.22 206.128 1245.22 209.456V209.712C1245.22 213.104 1243.53 214.736 1241.09 214.736ZM1261.85 218.352C1266.43 218.352 1269.31 216.336 1269.85 212.72H1265.47C1265.18 214.128 1264.12 215.056 1261.98 215.056C1259.45 215.056 1257.95 213.456 1257.82 210.672H1269.88V209.392C1269.88 203.408 1266.04 200.88 1261.72 200.88C1256.86 200.88 1253.12 204.304 1253.12 209.584V209.84C1253.12 215.184 1256.8 218.352 1261.85 218.352ZM1257.88 207.824C1258.24 205.456 1259.64 204.08 1261.72 204.08C1263.93 204.08 1265.21 205.296 1265.37 207.824H1257.88ZM1273.24 218H1277.88V208.336C1277.88 205.872 1279.39 204.656 1281.37 204.656C1283.42 204.656 1284.31 205.744 1284.31 208.016V218H1288.95V207.344C1288.95 202.864 1286.62 200.88 1283.32 200.88C1280.54 200.88 1278.71 202.256 1277.88 203.92V201.264H1273.24V218ZM1309.08 218.352C1314.49 218.352 1317.81 215.12 1317.81 211.056C1317.81 206.32 1314.97 204.816 1309.43 204.112C1305.91 203.6 1305.17 202.832 1305.17 201.2C1305.17 199.664 1306.33 198.608 1308.6 198.608C1310.87 198.608 1312.09 199.568 1312.41 201.648H1317.17C1316.76 197.104 1313.75 194.8 1308.6 194.8C1303.54 194.8 1300.28 197.712 1300.28 201.616C1300.28 206.032 1302.68 207.792 1308.53 208.56C1311.89 209.072 1312.85 209.712 1312.85 211.536C1312.85 213.328 1311.35 214.576 1309.08 214.576C1305.69 214.576 1304.82 212.88 1304.6 210.832H1299.64C1299.93 215.408 1302.81 218.352 1309.08 218.352ZM1323.85 198.992C1325.36 198.992 1326.51 197.904 1326.51 196.464C1326.51 195.024 1325.36 193.936 1323.85 193.936C1322.38 193.936 1321.23 195.024 1321.23 196.464C1321.23 197.904 1322.38 198.992 1323.85 198.992ZM1321.58 218H1326.19V201.264H1321.58V218ZM1336.88 218.32C1338.13 218.32 1339.06 218.096 1339.7 217.872V214.288C1339.16 214.512 1338.64 214.608 1337.94 214.608C1336.76 214.608 1336.08 213.968 1336.08 212.624V204.56H1339.6V201.264H1336.08V197.648H1331.48V201.264H1329.33V204.56H1331.48V213.04C1331.48 216.528 1333.36 218.32 1336.88 218.32ZM1348.72 218.352C1351.47 218.352 1353.17 217.072 1354.03 215.376V218H1358.64V201.264H1354.03V211.088C1354.03 213.552 1352.5 214.768 1350.55 214.768C1348.56 214.768 1347.63 213.68 1347.63 211.408V201.264H1343.03V212.048C1343.03 216.432 1345.46 218.352 1348.72 218.352ZM1367.58 218.352C1370.2 218.352 1371.68 217.328 1372.64 215.984V218H1377.15V207.088C1377.15 202.544 1374.24 200.88 1370.14 200.88C1366.04 200.88 1362.91 202.64 1362.62 206.608H1367C1367.2 205.168 1368.03 204.24 1369.85 204.24C1371.96 204.24 1372.57 205.328 1372.57 207.312V207.984H1370.68C1365.56 207.984 1361.98 209.456 1361.98 213.36C1361.98 216.88 1364.54 218.352 1367.58 218.352ZM1368.96 215.12C1367.26 215.12 1366.52 214.32 1366.52 213.104C1366.52 211.312 1368.09 210.736 1370.78 210.736H1372.57V212.144C1372.57 214 1371 215.12 1368.96 215.12ZM1387.5 218.32C1388.75 218.32 1389.68 218.096 1390.32 217.872V214.288C1389.77 214.512 1389.26 214.608 1388.56 214.608C1387.37 214.608 1386.7 213.968 1386.7 212.624V204.56H1390.22V201.264H1386.7V197.648H1382.09V201.264H1379.95V204.56H1382.09V213.04C1382.09 216.528 1383.98 218.32 1387.5 218.32ZM1396.17 198.992C1397.67 198.992 1398.83 197.904 1398.83 196.464C1398.83 195.024 1397.67 193.936 1396.17 193.936C1394.7 193.936 1393.55 195.024 1393.55 196.464C1393.55 197.904 1394.7 198.992 1396.17 198.992ZM1393.9 218H1398.51V201.264H1393.9V218ZM1410.87 218.352C1415.89 218.352 1419.7 214.992 1419.7 209.712V209.456C1419.7 204.24 1415.92 200.88 1410.9 200.88C1405.87 200.88 1402.07 204.304 1402.07 209.552V209.808C1402.07 215.024 1405.87 218.352 1410.87 218.352ZM1410.9 214.832C1408.27 214.832 1406.8 212.912 1406.8 209.712V209.456C1406.8 206.256 1408.34 204.4 1410.9 204.4C1413.49 204.4 1414.99 206.32 1414.99 209.52V209.744C1414.99 212.912 1413.49 214.832 1410.9 214.832ZM1423.13 218H1427.77V208.336C1427.77 205.872 1429.27 204.656 1431.26 204.656C1433.31 204.656 1434.2 205.744 1434.2 208.016V218H1438.84V207.344C1438.84 202.864 1436.51 200.88 1433.21 200.88C1430.43 200.88 1428.6 202.256 1427.77 203.92V201.264H1423.13V218ZM1449.22 218.352C1453.63 218.352 1456.26 216.464 1456.26 212.848C1456.26 209.264 1453.95 208.208 1449.76 207.6C1447.33 207.248 1446.53 206.832 1446.53 205.776C1446.53 204.752 1447.39 204.048 1448.9 204.048C1450.5 204.048 1451.26 204.688 1451.52 206.064H1455.78C1455.36 202.224 1452.58 200.88 1448.86 200.88C1445.44 200.88 1442.24 202.608 1442.24 206.096C1442.24 209.36 1443.97 210.64 1448.42 211.312C1450.82 211.664 1451.81 212.144 1451.81 213.296C1451.81 214.448 1450.98 215.12 1449.18 215.12C1447.17 215.12 1446.43 214.256 1446.24 212.752H1441.92C1442.08 216.368 1444.7 218.352 1449.22 218.352Z" fill="white"/>
<path d="M1186.82 426.352C1191.85 426.352 1195.66 422.992 1195.66 417.712V417.456C1195.66 412.24 1191.88 408.88 1186.86 408.88C1181.83 408.88 1178.02 412.304 1178.02 417.552V417.808C1178.02 423.024 1181.83 426.352 1186.82 426.352ZM1186.86 422.832C1184.23 422.832 1182.76 420.912 1182.76 417.712V417.456C1182.76 414.256 1184.3 412.4 1186.86 412.4C1189.45 412.4 1190.95 414.32 1190.95 417.52V417.744C1190.95 420.912 1189.45 422.832 1186.86 422.832ZM1199.85 426H1204.46V412.56H1208.11V409.264H1204.46V407.216C1204.46 405.936 1205.07 405.008 1206.54 405.008C1207.21 405.008 1207.79 405.136 1208.24 405.296V401.808C1207.5 401.584 1206.83 401.488 1205.84 401.488C1202.13 401.488 1199.85 403.44 1199.85 407.344V409.264H1197.65V412.56H1199.85V426ZM1229.42 426.352C1235.05 426.352 1239.11 423.44 1239.69 417.776H1234.6C1234.18 420.72 1232.2 422.16 1229.35 422.16C1225.58 422.16 1223.4 419.408 1223.4 414.672V414.416C1223.4 409.68 1225.7 406.864 1229.32 406.864C1232.2 406.864 1233.74 408.336 1234.12 411.088H1239.43C1238.89 405.456 1234.79 402.768 1229.29 402.768C1222.79 402.768 1217.93 407.504 1217.93 414.448V414.704C1217.93 421.744 1221.93 426.352 1229.42 426.352ZM1247.65 426.352C1250.28 426.352 1251.75 425.328 1252.71 423.984V426H1257.22V415.088C1257.22 410.544 1254.31 408.88 1250.21 408.88C1246.12 408.88 1242.98 410.64 1242.69 414.608H1247.08C1247.27 413.168 1248.1 412.24 1249.92 412.24C1252.04 412.24 1252.64 413.328 1252.64 415.312V415.984H1250.76C1245.64 415.984 1242.05 417.456 1242.05 421.36C1242.05 424.88 1244.61 426.352 1247.65 426.352ZM1249.03 423.12C1247.33 423.12 1246.6 422.32 1246.6 421.104C1246.6 419.312 1248.16 418.736 1250.85 418.736H1252.64V420.144C1252.64 422 1251.08 423.12 1249.03 423.12ZM1261.52 426H1266.16V417.616C1266.16 414.416 1268.15 413.296 1271.57 413.328V409.008C1268.85 409.04 1267.22 410.224 1266.16 412.464V409.264H1261.52V426ZM1282.37 426.352C1286.94 426.352 1289.82 424.336 1290.37 420.72H1285.98C1285.7 422.128 1284.64 423.056 1282.5 423.056C1279.97 423.056 1278.46 421.456 1278.34 418.672H1290.4V417.392C1290.4 411.408 1286.56 408.88 1282.24 408.88C1277.38 408.88 1273.63 412.304 1273.63 417.584V417.84C1273.63 423.184 1277.31 426.352 1282.37 426.352ZM1278.4 415.824C1278.75 413.456 1280.16 412.08 1282.24 412.08C1284.45 412.08 1285.73 413.296 1285.89 415.824H1278.4ZM1301.18 432.176C1306.68 432.176 1309.98 429.648 1310.01 424.688V409.264H1305.4V411.76C1304.44 410.064 1302.81 408.88 1300.09 408.88C1295.93 408.88 1292.73 412.24 1292.73 417.04V417.264C1292.73 422.224 1295.96 425.264 1300.03 425.264C1302.49 425.264 1304.48 423.792 1305.4 422.16V424.688C1305.4 427.312 1304 428.784 1301.18 428.784C1298.81 428.784 1297.76 427.824 1297.47 426.352H1292.86C1293.31 429.808 1295.77 432.176 1301.18 432.176ZM1301.4 421.776C1299.1 421.776 1297.47 420.048 1297.47 417.264V417.008C1297.47 414.256 1298.91 412.4 1301.5 412.4C1304.03 412.4 1305.53 414.128 1305.53 416.976V417.2C1305.53 420.048 1303.84 421.776 1301.4 421.776ZM1316.82 406.992C1318.32 406.992 1319.48 405.904 1319.48 404.464C1319.48 403.024 1318.32 401.936 1316.82 401.936C1315.35 401.936 1314.2 403.024 1314.2 404.464C1314.2 405.904 1315.35 406.992 1316.82 406.992ZM1314.55 426H1319.16V409.264H1314.55V426ZM1328.25 426H1333.47L1339.55 409.264H1335.07L1331.1 421.232L1327.1 409.264H1322.14L1328.25 426ZM1349.33 426.352C1353.91 426.352 1356.79 424.336 1357.33 420.72H1352.95C1352.66 422.128 1351.61 423.056 1349.46 423.056C1346.93 423.056 1345.43 421.456 1345.3 418.672H1357.37V417.392C1357.37 411.408 1353.53 408.88 1349.21 408.88C1344.34 408.88 1340.6 412.304 1340.6 417.584V417.84C1340.6 423.184 1344.28 426.352 1349.33 426.352ZM1345.37 415.824C1345.72 413.456 1347.13 412.08 1349.21 412.08C1351.41 412.08 1352.69 413.296 1352.85 415.824H1345.37ZM1360.72 426H1365.36V417.616C1365.36 414.416 1367.35 413.296 1370.77 413.328V409.008C1368.05 409.04 1366.42 410.224 1365.36 412.464V409.264H1360.72V426ZM1380.19 426.352C1384.6 426.352 1387.23 424.464 1387.23 420.848C1387.23 417.264 1384.92 416.208 1380.73 415.6C1378.3 415.248 1377.5 414.832 1377.5 413.776C1377.5 412.752 1378.36 412.048 1379.87 412.048C1381.47 412.048 1382.23 412.688 1382.49 414.064H1386.75C1386.33 410.224 1383.55 408.88 1379.83 408.88C1376.41 408.88 1373.21 410.608 1373.21 414.096C1373.21 417.36 1374.94 418.64 1379.39 419.312C1381.79 419.664 1382.78 420.144 1382.78 421.296C1382.78 422.448 1381.95 423.12 1380.15 423.12C1378.14 423.12 1377.4 422.256 1377.21 420.752H1372.89C1373.05 424.368 1375.67 426.352 1380.19 426.352ZM1183.56 467.352C1186.18 467.352 1187.66 466.328 1188.62 464.984V467H1193.13V456.088C1193.13 451.544 1190.22 449.88 1186.12 449.88C1182.02 449.88 1178.89 451.64 1178.6 455.608H1182.98C1183.18 454.168 1184.01 453.24 1185.83 453.24C1187.94 453.24 1188.55 454.328 1188.55 456.312V456.984H1186.66C1181.54 456.984 1177.96 458.456 1177.96 462.36C1177.96 465.88 1180.52 467.352 1183.56 467.352ZM1184.94 464.12C1183.24 464.12 1182.5 463.32 1182.5 462.104C1182.5 460.312 1184.07 459.736 1186.76 459.736H1188.55V461.144C1188.55 463 1186.98 464.12 1184.94 464.12ZM1197.43 467H1202.07V458.616C1202.07 455.416 1204.05 454.296 1207.48 454.328V450.008C1204.76 450.04 1203.13 451.224 1202.07 453.464V450.264H1197.43V467ZM1218.27 467.352C1222.85 467.352 1225.73 465.336 1226.27 461.72H1221.89C1221.6 463.128 1220.55 464.056 1218.4 464.056C1215.87 464.056 1214.37 462.456 1214.24 459.672H1226.31V458.392C1226.31 452.408 1222.47 449.88 1218.15 449.88C1213.28 449.88 1209.54 453.304 1209.54 458.584V458.84C1209.54 464.184 1213.22 467.352 1218.27 467.352ZM1214.31 456.824C1214.66 454.456 1216.07 453.08 1218.15 453.08C1220.35 453.08 1221.64 454.296 1221.8 456.824H1214.31ZM1240.69 467H1245.88V444.12H1241.33L1236.05 447.864V452.28L1240.69 449.24V467ZM1259.37 467.352C1264.46 467.352 1268.3 464.888 1268.3 460.408C1268.3 457.688 1266.8 455.704 1264.11 454.776C1266.12 453.88 1267.44 452.312 1267.44 450.008C1267.44 446.104 1263.79 443.8 1259.4 443.8C1255.12 443.8 1251.31 446.072 1251.31 450.04C1251.31 452.344 1252.56 453.944 1254.64 454.808C1252.01 455.736 1250.41 457.752 1250.41 460.536C1250.41 465.016 1254.32 467.352 1259.37 467.352ZM1259.44 453.368C1257.64 453.368 1256.14 452.248 1256.14 450.392C1256.14 448.536 1257.58 447.416 1259.4 447.416C1261.23 447.416 1262.64 448.6 1262.64 450.36C1262.64 452.248 1261.29 453.368 1259.44 453.368ZM1259.37 463.576C1257.26 463.576 1255.56 462.328 1255.56 460.056C1255.56 457.784 1257.29 456.536 1259.4 456.536C1261.55 456.536 1263.18 457.784 1263.18 460.024C1263.18 462.296 1261.55 463.576 1259.37 463.576ZM1271.55 459.832H1279.75V456.152H1271.55V459.832ZM1293.4 467H1298.42V462.456H1301.43V458.744H1298.42V444.12H1292.05L1282.17 460.568V462.456H1293.4V467ZM1287.35 458.744L1293.49 448.024V458.744H1287.35ZM1312.57 467.32C1318.72 467.32 1322.14 463.128 1322.14 455.64V454.616C1322.14 448.024 1319.1 443.768 1312.8 443.768C1307.33 443.768 1303.93 446.968 1303.93 451.704C1303.93 456.344 1307.17 459.096 1311.58 459.096C1314.33 459.096 1316 457.976 1317.05 456.312C1316.96 460.984 1315.45 463.384 1312.41 463.384C1310.24 463.384 1309.31 462.392 1308.99 460.824H1304.16C1304.67 464.952 1307.61 467.32 1312.57 467.32ZM1312.73 455.64C1310.43 455.64 1308.96 453.976 1308.96 451.576C1308.96 449.176 1310.46 447.512 1312.73 447.512C1315.07 447.512 1316.64 449.144 1316.64 451.8C1316.64 454.04 1315.07 455.64 1312.73 455.64ZM1335.52 472.696H1340L1349.05 450.264H1344.6L1340.86 460.312L1336.8 450.264H1331.8L1338.46 465.304L1335.52 472.696ZM1358.91 467.352C1363.93 467.352 1367.74 463.992 1367.74 458.712V458.456C1367.74 453.24 1363.96 449.88 1358.94 449.88C1353.91 449.88 1350.11 453.304 1350.11 458.552V458.808C1350.11 464.024 1353.91 467.352 1358.91 467.352ZM1358.94 463.832C1356.31 463.832 1354.84 461.912 1354.84 458.712V458.456C1354.84 455.256 1356.38 453.4 1358.94 453.4C1361.53 453.4 1363.03 455.32 1363.03 458.52V458.744C1363.03 461.912 1361.53 463.832 1358.94 463.832Z" fill="white"/>
</svg>
