<svg width="835" height="143" viewBox="0 0 835 143" fill="none" xmlns="http://www.w3.org/2000/svg">
<path d="M2.98023e-08 143L22.6 -6.67572e-06H64.6C112.6 -6.67572e-06 135 24.2 135.2 61C135.2 110.6 103.6 143 52.2 143H2.98023e-08ZM36.4 117.8H52C83.6 117.8 101.6 97.4 101.6 62C101.6 39.6 90.4 25 63.8 25H51L36.4 117.8ZM148.094 143L170.694 -6.67572e-06H263.294L259.294 25.2H198.894L193.694 58.6H242.294L238.694 82.2H190.094L184.294 117.8H248.494L244.494 143H148.094ZM269.625 143L292.225 -6.67572e-06H324.625L306.025 117.6H364.225L360.225 143H269.625ZM384.339 143L406.939 -6.67572e-06H439.539L416.939 143H384.339ZM485.773 143L460.573 -6.67572e-06H493.773L510.373 109.8L561.773 -6.67572e-06H593.173L522.973 143H485.773ZM590.664 143L613.264 -6.67572e-06H705.864L701.864 25.2H641.464L636.264 58.6H684.864L681.264 82.2H632.664L626.864 117.8H691.064L687.064 143H590.664ZM712.195 143L734.795 -6.67572e-06H784.595C815.995 -6.67572e-06 834.195 14.2 833.995 39C833.995 63.8 818.395 78 797.995 82.4L827.995 143H794.595L767.395 87.8H752.995L744.395 143H712.195ZM756.595 65.8H775.595C792.795 65.8 802.195 58.4 802.195 42.2C802.395 30.2 794.795 24.8 780.795 24.8H763.195L756.595 65.8Z" fill="#F16562"/>
</svg>
