<svg width="950" height="362" viewBox="0 0 950 362" fill="none" xmlns="http://www.w3.org/2000/svg">
<path d="M7 257L29.6 114H71.6C119.6 114 142 138.2 142.2 175C142.2 224.6 110.6 257 59.2 257H7ZM43.4 231.8H59C90.6 231.8 108.6 211.4 108.6 176C108.6 153.6 97.4 139 70.8 139H58L43.4 231.8ZM153.094 257L175.694 114H268.294L264.294 139.2H203.894L198.694 172.6H247.294L243.694 196.2H195.094L189.294 231.8H253.494L249.494 257H153.094ZM272.625 257L295.225 114H387.025L382.825 139.4H323.425L317.625 177.2H364.625L360.625 201.6H313.625L305.025 257H272.625ZM388.073 257L410.673 114H443.273L420.673 257H388.073ZM452.508 257L475.108 114H512.908L551.708 208.2L566.708 114H595.908L573.308 257H540.708L497.708 155.2L481.708 257H452.508ZM604.07 257L626.67 114H719.27L715.27 139.2H654.87L649.67 172.6H698.27L694.67 196.2H646.07L640.27 231.8H704.47L700.47 257H604.07Z" fill="#F16562"/>
<path d="M8.6 335H12.08V323.36H16.72C22.16 323.36 26.72 321 26.72 314.92V314.76C26.72 308.8 22.2 306.4 16.72 306.4H8.6V335ZM12.08 320.6V309.2H16.96C20.84 309.2 23.24 310.72 23.24 314.76V314.92C23.24 318.6 21.04 320.6 16.96 320.6H12.08ZM32.2422 335H49.6422V332.16H35.7222V321.8H46.3622V318.96H35.7222V309.24H48.9222V306.4H32.2422V335ZM55.2984 335H58.7784V322.56H63.1784L71.6984 335H75.5784L66.8184 322.32C70.7384 321.56 73.8984 319.24 73.8984 314.52V314.36C73.8984 308.64 69.3784 306.4 63.8984 306.4H55.2984V335ZM58.7784 319.8V309.2H64.1384C68.0184 309.2 70.4184 310.48 70.4184 314.36V314.52C70.4184 318.04 68.2184 319.8 64.1384 319.8H58.7784ZM89.665 335.36C95.345 335.36 99.545 331.72 99.545 326.92C99.545 321.52 96.185 319.6 89.825 318.6C83.985 317.72 82.945 316.28 82.945 313.48C82.945 310.8 84.985 308.84 88.905 308.84C92.865 308.84 94.945 310.32 95.625 313.92H98.745C98.185 308.84 94.625 306.04 88.905 306.04C83.505 306.04 79.705 309.4 79.705 313.8C79.705 318.88 83.265 320.76 89.265 321.68C94.705 322.56 96.185 323.92 96.185 327.16C96.185 330.4 93.345 332.56 89.665 332.56C83.905 332.56 82.545 329.68 82.105 326.28H78.745C79.265 331.16 82.025 335.36 89.665 335.36ZM118.468 335.36C126.788 335.36 132.348 328.88 132.348 320.8V320.48C132.348 312.44 126.788 306.04 118.388 306.04C109.988 306.04 104.308 312.44 104.308 320.56V320.88C104.308 328.88 110.028 335.36 118.468 335.36ZM118.468 332.48C112.508 332.48 107.908 327.76 107.908 320.84V320.52C107.908 313.72 111.748 308.84 118.388 308.84C124.988 308.84 128.748 314.04 128.748 320.44V320.76C128.748 327.68 124.828 332.48 118.468 332.48ZM138.53 335H141.85V310.48L156.29 335H160.29V306.4H156.97V330.04L143.05 306.4H138.53V335ZM165.715 335H168.995L171.755 326.76H183.555L186.355 335H189.795L180.115 306.4H175.555L165.715 335ZM177.675 309.28L182.635 324H172.715L177.675 309.28ZM203.882 335.36C209.562 335.36 213.762 331.72 213.762 326.92C213.762 321.52 210.402 319.6 204.042 318.6C198.202 317.72 197.162 316.28 197.162 313.48C197.162 310.8 199.202 308.84 203.122 308.84C207.082 308.84 209.162 310.32 209.842 313.92H212.962C212.402 308.84 208.842 306.04 203.122 306.04C197.722 306.04 193.922 309.4 193.922 313.8C193.922 318.88 197.482 320.76 203.482 321.68C208.922 322.56 210.402 323.92 210.402 327.16C210.402 330.4 207.562 332.56 203.882 332.56C198.122 332.56 196.762 329.68 196.322 326.28H192.962C193.482 331.16 196.242 335.36 203.882 335.36ZM236.426 330.8H239.346V322.72H246.826V319.92H239.346V311.84H236.426V319.92H228.946V322.72H236.426V330.8ZM265.154 335.36C269.514 335.36 273.074 332.96 273.074 327.24V306.4H269.594V327.08C269.594 330.92 267.794 332.52 264.954 332.52C263.234 332.52 262.194 332.16 261.154 331.72V334.6C261.914 335 262.994 335.36 265.154 335.36ZM293.191 335.36C301.511 335.36 307.071 328.88 307.071 320.8V320.48C307.071 312.44 301.511 306.04 293.111 306.04C284.711 306.04 279.031 312.44 279.031 320.56V320.88C279.031 328.88 284.751 335.36 293.191 335.36ZM293.191 332.48C287.231 332.48 282.631 327.76 282.631 320.84V320.52C282.631 313.72 286.471 308.84 293.111 308.84C299.711 308.84 303.471 314.04 303.471 320.44V320.76C303.471 327.68 299.551 332.48 293.191 332.48ZM323.293 335.36C330.653 335.36 334.133 331.08 334.133 324.12V306.4H330.653V323.64C330.653 330.64 327.933 332.48 323.373 332.48C318.613 332.48 316.493 330.16 316.493 324.16V306.4H313.013V324.56C313.013 331.52 316.733 335.36 323.293 335.36ZM341.505 335H344.985V322.56H349.385L357.905 335H361.785L353.025 322.32C356.945 321.56 360.105 319.24 360.105 314.52V314.36C360.105 308.64 355.585 306.4 350.105 306.4H341.505V335ZM344.985 319.8V309.2H350.345C354.225 309.2 356.625 310.48 356.625 314.36V314.52C356.625 318.04 354.425 319.8 350.345 319.8H344.985ZM367.022 335H370.342V310.48L384.782 335H388.782V306.4H385.462V330.04L371.542 306.4H367.022V335ZM396.367 335H413.767V332.16H399.847V321.8H410.487V318.96H399.847V309.24H413.047V306.4H396.367V335ZM426.303 335H429.783V322.56L438.823 306.4H435.343L428.143 319.68L420.663 306.4H416.743L426.303 322.52V335ZM451.954 335.36C457.634 335.36 461.834 331.72 461.834 326.92C461.834 321.52 458.474 319.6 452.114 318.6C446.274 317.72 445.234 316.28 445.234 313.48C445.234 310.8 447.274 308.84 451.194 308.84C455.154 308.84 457.234 310.32 457.914 313.92H461.034C460.474 308.84 456.914 306.04 451.194 306.04C445.794 306.04 441.994 309.4 441.994 313.8C441.994 318.88 445.554 320.76 451.554 321.68C456.994 322.56 458.474 323.92 458.474 327.16C458.474 330.4 455.634 332.56 451.954 332.56C446.194 332.56 444.834 329.68 444.394 326.28H441.034C441.554 331.16 444.314 335.36 451.954 335.36ZM484.498 330.8H487.418V322.72H494.898V319.92H487.418V311.84H484.498V319.92H477.018V322.72H484.498V330.8ZM511.306 335H514.786V322.2H525.106V319.36H514.786V309.24H528.026V306.4H511.306V335ZM533.542 335H550.102V332.16H537.022V306.4H533.542V335ZM566.897 335.36C575.217 335.36 580.777 328.88 580.777 320.8V320.48C580.777 312.44 575.217 306.04 566.817 306.04C558.417 306.04 552.737 312.44 552.737 320.56V320.88C552.737 328.88 558.457 335.36 566.897 335.36ZM566.897 332.48C560.937 332.48 556.337 327.76 556.337 320.84V320.52C556.337 313.72 560.177 308.84 566.817 308.84C573.417 308.84 577.177 314.04 577.177 320.44V320.76C577.177 327.68 573.257 332.48 566.897 332.48ZM591.144 335H594.304L600.984 312.4L607.464 335H610.664L618.104 306.4H614.864L608.984 329.56L602.264 306.4H599.784L593.064 329.48L587.264 306.4H583.704L591.144 335ZM632.303 335.36C637.983 335.36 642.183 331.72 642.183 326.92C642.183 321.52 638.823 319.6 632.463 318.6C626.623 317.72 625.583 316.28 625.583 313.48C625.583 310.8 627.623 308.84 631.543 308.84C635.503 308.84 637.583 310.32 638.263 313.92H641.383C640.823 308.84 637.263 306.04 631.543 306.04C626.143 306.04 622.343 309.4 622.343 313.8C622.343 318.88 625.903 320.76 631.903 321.68C637.343 322.56 638.823 323.92 638.823 327.16C638.823 330.4 635.983 332.56 632.303 332.56C626.543 332.56 625.183 329.68 624.743 326.28H621.383C621.903 331.16 624.663 335.36 632.303 335.36ZM664.847 330.8H667.767V322.72H675.247V319.92H667.767V311.84H664.847V319.92H657.367V322.72H664.847V330.8ZM691.655 335H694.855V310.92L704.655 335H705.735L715.215 310.92V335H718.695V306.4H713.895L705.335 328.68L696.495 306.4H691.655V335ZM724.153 335H727.433L730.193 326.76H741.993L744.793 335H748.233L738.553 306.4H733.993L724.153 335ZM736.113 309.28L741.073 324H731.153L736.113 309.28ZM753.666 335H757.146V323.36H761.786C767.226 323.36 771.786 321 771.786 314.92V314.76C771.786 308.8 767.266 306.4 761.786 306.4H753.666V335ZM757.146 320.6V309.2H762.026C765.906 309.2 768.306 310.72 768.306 314.76V314.92C768.306 318.6 766.106 320.6 762.026 320.6H757.146ZM786.353 335.36C792.033 335.36 796.233 331.72 796.233 326.92C796.233 321.52 792.873 319.6 786.513 318.6C780.673 317.72 779.633 316.28 779.633 313.48C779.633 310.8 781.673 308.84 785.593 308.84C789.553 308.84 791.633 310.32 792.313 313.92H795.433C794.873 308.84 791.313 306.04 785.593 306.04C780.193 306.04 776.393 309.4 776.393 313.8C776.393 318.88 779.953 320.76 785.953 321.68C791.393 322.56 792.873 323.92 792.873 327.16C792.873 330.4 790.033 332.56 786.353 332.56C780.593 332.56 779.233 329.68 778.793 326.28H775.433C775.953 331.16 778.713 335.36 786.353 335.36Z" fill="#004A78"/>
</svg>
